<?xml version="1.0" encoding="utf-8"?>
<!-- Generator: Adobe Illustrator 27.5.0, SVG Export Plug-In . SVG Version: 6.00 Build 0)  -->
<svg version="1.1" xmlns="http://www.w3.org/2000/svg" xmlns:xlink="http://www.w3.org/1999/xlink" x="0px" y="0px"
	 viewBox="0 0 500 500" style="enable-background:new 0 0 500 500;" xml:space="preserve">
<g id="BACKGROUND">
	<rect style="fill:#9DE6CE;" width="500" height="500"/>
</g>
<g id="OBJECTS">
	<g>
		<defs>
			<rect id="SVGID_1_" width="500" height="500"/>
		</defs>
		<clipPath id="SVGID_00000160181310223472780760000017150345582546101893_">
			<use xlink:href="#SVGID_1_"  style="overflow:visible;"/>
		</clipPath>
		<g style="clip-path:url(#SVGID_00000160181310223472780760000017150345582546101893_);">
			<g>
				<path style="fill:#FFFFFF;" d="M254.411,231.942c0.231,0.586,2.351,5.002,3.886,8.174c1.119,1.832,2.048,2.997,2.565,3.103
					c1.263-0.329,5.356-7.192,8.461-13.571c-1.689-2.997-4.54-7.032-6.123-7.397c-1.169-0.278-5.574,3.669-9.594,8.521
					c0.076,0.177,0.153,0.35,0.229,0.525C254.115,231.416,254.33,231.651,254.411,231.942z M261.099,227.781
					c0.104-0.256,0.397-0.379,0.653-0.275c0.256,0.105,0.379,0.397,0.275,0.654c-0.008,0.02-0.021,0.045-0.031,0.063
					c-0.578,0.991-1.026,2.072-1.319,3.204c-0.035,0.138-0.176,0.221-0.314,0.186c-0.127-0.033-0.207-0.154-0.192-0.28
					C260.314,230.125,260.625,228.926,261.099,227.781z"/>
				<path style="fill:#FFFFFF;" d="M268.709,256.164l6.6-5.248c-0.667-1.925-1.39-4.065-2.094-6.246l-2.038-5.789l-0.978-0.336
					l-5.739,8.012l0.504,3.023L268.709,256.164z M268.521,251.164c0.011-1.026,0.259-2.027,0.704-2.911
					c0.064-0.127,0.22-0.179,0.347-0.115c0.114,0.057,0.166,0.19,0.13,0.308c-0.266,0.871-0.324,1.787-0.183,2.649
					c0.045,0.274-0.141,0.532-0.415,0.576c-0.274,0.044-0.532-0.141-0.576-0.415c-0.005-0.028-0.007-0.056-0.007-0.083
					L268.521,251.164z"/>
				
					<polygon style="fill:#0B1011;stroke:#0B1011;stroke-width:2;stroke-linecap:round;stroke-linejoin:round;stroke-miterlimit:10;" points="
					437.405,333.164 438.039,327.671 378.961,334.337 				"/>
				
					<path style="fill:#0B1011;stroke:#0B1011;stroke-width:2;stroke-linecap:round;stroke-linejoin:round;stroke-miterlimit:10;" d="
					M244.511,201.008c-0.991-0.956-4.48-3.762-8.021-6.509l-2.314,25.715c0.247,1.44,3.012,16.114,13.159,21.214
					c0.451-0.852,1.45-2.735,2.457-4.619c1.152-2.157,1.874-3.508,2.368-4.343c-0.065-0.149-0.133-0.302-0.196-0.447
					c-8.833-1.952-12.01-12.068-12.142-12.501c-0.054-0.176-0.058-0.364-0.011-0.543
					C240.517,216.262,243.765,203.779,244.511,201.008z"/>
				<path style="fill:#FFFFFF;" d="M338.048,238.501c-0.059,0.247-0.125,0.499-0.201,0.754c-0.304,1.772-0.881,3.366-1.86,4.595
					c-0.025,0.032-0.06,0.054-0.089,0.082c-0.027,0.027-0.052,0.053-0.082,0.076c-0.084,0.066-0.176,0.118-0.278,0.155
					c-0.012,0.004-0.021,0.015-0.034,0.019l-1.314,0.413l1.126,7.597c0.027,0.181-0.014,0.358-0.083,0.525
					c0.389,1.637,0.801,3.348,1.105,4.574l1.867-2.096l0.792-3.392c-0.049,0.004-0.099,0.008-0.15-0.003
					c-0.27-0.06-0.441-0.327-0.381-0.598c0.005-0.022,0.014-0.05,0.021-0.07c0.394-1.032,0.538-2.185,0.397-3.321
					c-0.018-0.141,0.082-0.271,0.223-0.289c0.129-0.017,0.249,0.067,0.282,0.19c0.125,0.472,0.191,0.961,0.224,1.454l1.766-7.557
					l-2.796-3.555L338.048,238.501z"/>
				
					<path style="fill:#0B1011;stroke:#0B1011;stroke-width:2;stroke-linecap:round;stroke-linejoin:round;stroke-miterlimit:10;" d="
					M269.008,236.775c0.257-0.359,0.722-0.507,1.138-0.363l0.672,0.231c-0.355-1.333-0.66-2.589-0.892-3.716
					c-2.551,5.005-6.566,12.087-8.943,12.285c-0.039,0.003-0.078,0.005-0.117,0.005c-0.915,0-1.955-0.876-3.02-2.243l-2.844,3.833
					l3.132,0.308c0.532,0.052,1.136,0.111,1.732,0.342c0.597,0.229,1.08,0.586,1.563,0.963c0.521,0.406,1.021,0.843,1.528,1.27
					l-0.535-3.212c-0.044-0.262,0.018-0.531,0.174-0.747L269.008,236.775z"/>
				<path style="fill:#FFFFFF;" d="M256.628,241.258c-0.021-0.044-0.04-0.082-0.061-0.126c-1.193-1.892-2.366-4.202-3.389-6.403
					c-1.099,2.03-2.806,5.234-4.085,7.65l2.713,5.376L256.628,241.258z M251.146,244.321c-0.263-0.086-0.407-0.369-0.321-0.632
					c0.007-0.021,0.017-0.045,0.026-0.064c0.511-1.049,0.88-2.181,1.086-3.352c0.024-0.14,0.158-0.234,0.298-0.21
					c0.129,0.022,0.219,0.137,0.214,0.265c-0.05,1.236-0.274,2.476-0.671,3.672C251.692,244.263,251.41,244.407,251.146,244.321z"/>
				<path style="fill:#FFFFFF;" d="M312.547,244.232l2.952,2.003l3.729-1.766c0.355-0.334,0.677-0.667,0.939-0.964
					c0.086-3.009,0.178-6.766,0.241-10.174l-0.34-9.265c-1.413-0.793-5.55-2.136-7.921-2.694c-0.766,0.074-3.534,2.999-5.899,6.296
					l-0.35,1.003c-0.247,0.887-0.857,2.966-1.757,5.27c0.061,0.056,0.132,0.099,0.178,0.17l0.872,1.327
					c2.291,2.989,5.094,6.467,7.194,8.727C312.437,244.188,312.497,244.199,312.547,244.232z M314.733,227.052
					c0.275-0.026,0.519,0.176,0.545,0.451c0.001,0.014,0.002,0.028,0.002,0.041l0.063,5.858c0.001,0.142-0.113,0.259-0.255,0.26
					c-0.135,0.001-0.246-0.102-0.259-0.234l-0.548-5.833C314.256,227.322,314.458,227.078,314.733,227.052z"/>
				
					<path style="fill:#0B1011;stroke:#0B1011;stroke-width:2;stroke-linecap:round;stroke-linejoin:round;stroke-miterlimit:10;" d="
					M310.675,245.25c-0.313-0.34-0.633-0.696-0.959-1.066l0.057,2.469L310.675,245.25z"/>
				<path style="fill:#FFFFFF;" d="M320.605,253.255l-1.22-6.287c-1.132,0.864-2.508,1.62-3.871,1.62
					c-0.56,0-1.117-0.128-1.652-0.428c-0.464-0.26-1.073-0.777-1.757-1.437l-2.249,3.499l0.047,2.036
					c0.001,0.03-0.013,0.057-0.015,0.086c-0.005,0.081-0.017,0.158-0.041,0.235c-0.014,0.043-0.03,0.083-0.049,0.124
					c-0.014,0.029-0.019,0.062-0.035,0.09l-1.783,3.003l7.855,8.06L320.605,253.255z M315.443,258.977
					c-0.276,0.017-0.514-0.193-0.531-0.469c-0.001-0.02-0.001-0.042,0-0.061l0.242-3.951c0.009-0.142,0.131-0.25,0.273-0.242
					c0.132,0.008,0.234,0.113,0.242,0.242l0.243,3.951C315.929,258.723,315.719,258.96,315.443,258.977z"/>
				<path style="fill:#FFFFFF;" d="M293.805,257.344c-0.085-0.555-0.36-1.797-0.7-3.223l-1.049-2.464
					c-0.103-0.241-0.107-0.513-0.011-0.757l0.089-0.227l-3.707-9.445l-8.306,16.782l-0.126,0.446
					c2.117,2.934,5.025,6.946,6.387,8.786C291.552,260.31,293.237,258.08,293.805,257.344z M285.652,262.03
					c-0.001-0.017-0.002-0.034-0.002-0.051c0.012-1.637,0.139-3.267,0.376-4.876c0.021-0.141,0.152-0.238,0.293-0.217
					c0.132,0.02,0.225,0.137,0.22,0.267c-0.074,1.6-0.036,3.2,0.111,4.784c0.026,0.275-0.177,0.519-0.452,0.545
					C285.921,262.508,285.677,262.306,285.652,262.03z"/>
				<path style="fill:#FFFFFF;" d="M278.889,255.024l7.333-25.859c-1.485-1.376-6.254-5.758-7.917-6.901
					c-1.005,0.132-4.124,3.614-6.836,7.627c0.245,3.008,1.902,8.757,3.687,14.27l2.358,6.698c0.048,0.136,0.054,0.276,0.043,0.414
					C278.054,252.696,278.512,253.982,278.889,255.024z M278.205,229.228c0.276-0.02,0.516,0.188,0.536,0.464
					c0.002,0.023,0.002,0.049,0,0.072l-0.242,3.366c-0.01,0.142-0.134,0.249-0.276,0.239c-0.13-0.009-0.23-0.113-0.239-0.239
					l-0.243-3.366C277.721,229.488,277.929,229.248,278.205,229.228z"/>
				
					<path style="fill:#0B1011;stroke:#0B1011;stroke-width:2;stroke-linecap:round;stroke-linejoin:round;stroke-miterlimit:10;" d="
					M287.568,231.746l-4.454,15.706l4.521-9.135c0.176-0.354,0.523-0.572,0.939-0.556c0.395,0.017,0.743,0.265,0.888,0.634
					l3.745,9.541l2.176-5.546C292.291,240.779,289.243,235.232,287.568,231.746z"/>
				<path style="fill:#FFFFFF;" d="M296.563,240.763l4.69-5.144c0.237-0.509,0.467-1.033,0.688-1.57
					c0.006-0.088,0.021-0.176,0.051-0.262l1.875-5.37c-1.038-0.864-3.604-2.957-6.895-5.344c-0.566-0.411-1.161-0.536-1.854-0.39
					c-2.53,0.521-5.431,4.353-6.642,6.248C290.904,234.497,294.43,240.065,296.563,240.763z M296.282,227.168
					c0.275-0.034,0.525,0.162,0.559,0.437c0.002,0.019,0.004,0.04,0.004,0.059l0.018,4.144c0.001,0.142-0.114,0.257-0.256,0.258
					c-0.132,0.001-0.241-0.098-0.256-0.225l-0.003-0.025l-0.497-4.04l-0.006-0.048C295.811,227.452,296.007,227.202,296.282,227.168
					z"/>
				<path style="fill:#FFFFFF;" d="M294.38,250.943c0.257,1.006,0.468,1.851,0.648,2.589l3.471,8.148l9.361-9.757l-0.171-1.623
					c-0.024-0.226,0.03-0.452,0.152-0.643l-0.157-6.781l-4.142-6.303c-0.068-0.088-0.143-0.186-0.207-0.27l-0.415,0.455
					c-1.395,2.896-3.19,5.529-5.242,6.014c-0.09,0.021-0.181,0.02-0.271,0.032l-0.067,0.073l-3.059,7.795l0.06,0.152
					C294.357,250.864,294.37,250.903,294.38,250.943z M298.939,256.517c0.186-1.989,0.545-3.955,1.069-5.868
					c0.038-0.137,0.179-0.218,0.316-0.18c0.13,0.036,0.209,0.166,0.185,0.296c-0.36,1.921-0.551,3.866-0.572,5.806
					c-0.003,0.276-0.23,0.498-0.506,0.495c-0.276-0.003-0.498-0.23-0.495-0.506C298.937,256.545,298.938,256.53,298.939,256.517z"/>
				<path style="fill:#FFFFFF;" d="M333.125,252.266l-0.929-7.109l-3.402,1.004c-0.078,0.023-0.157,0.03-0.236,0.034
					c-0.012,0.001-0.024,0.005-0.036,0.005c-0.004,0-0.008,0.002-0.011,0.002c-0.015,0-0.029-0.01-0.044-0.011
					c-0.123-0.006-0.24-0.035-0.352-0.084c-0.041-0.018-0.076-0.039-0.114-0.063c-0.091-0.054-0.169-0.123-0.24-0.206
					c-0.018-0.021-0.045-0.03-0.061-0.053l-0.963-1.339l-3.441,6.634l4.854,7.731L333.125,252.266z M327.545,255.035
					c-0.277,0.002-0.503-0.221-0.505-0.498c0-0.024,0.002-0.054,0.006-0.077c0.155-1.036,0.209-2.095,0.159-3.157
					c-0.007-0.142,0.103-0.264,0.245-0.271c0.129-0.006,0.241,0.084,0.266,0.207c0.215,1.075,0.326,2.179,0.327,3.292
					C328.045,254.807,327.822,255.033,327.545,255.035z"/>
				<path style="fill:#D94328;" d="M196.615,110.598c-7.915,0-14.354,13.66-14.354,30.451S188.7,171.5,196.615,171.5
					c0.239,0,0.477-0.014,0.714-0.038v-0.016h0.117c7.53-0.916,13.523-14.197,13.523-30.396
					C210.969,124.258,204.53,110.598,196.615,110.598z M195.957,150.22c-2.435,0-4.342-4.27-4.342-9.72s1.907-9.72,4.342-9.72
					c2.435,0,4.341,4.27,4.341,9.72S198.392,150.22,195.957,150.22z"/>
				<path style="fill:#D8DAD9;" d="M236,191.549c0.116,0.049,0.2,0.139,0.251,0.244c0.004,0.003,0.01,0.005,0.014,0.008
					c0.235,0.18,0.457,0.352,0.681,0.524c3.02-1.619,7.265-9.468,8.482-11.81c-0.981-2.301-2.287-4.464-3.914-6.385
					c-0.092-0.108-0.079-0.271,0.029-0.363c0.107-0.091,0.268-0.079,0.361,0.027c6.625,7.591,8.374,19.03,4.369,28.357
					c-0.768,2.896-2.914,11.128-4.452,17.04c0.518,1.472,3.424,8.826,9.924,10.695c2.076-2.545,8.738-10.319,11.903-9.585
					c2.497,0.576,5.418,4.98,6.876,7.433c3.026-4.335,6.725-8.578,8.82-7.18c1.601,1.067,5.941,5.026,7.812,6.752
					c1.305-1.925,4.351-5.921,7.556-6.582c1.257-0.26,2.408-0.013,3.433,0.73c2.896,2.1,5.238,3.976,6.502,5.014
					c2.519-3.517,5.884-7.52,7.957-7.044c0.287,0.068,5.572,1.328,8.24,2.835c5.711-5.697,5.977-5.715,6.458-5.715
					c1.604-0.306,2.91-0.006,3.968,0.589c1.154-0.826,3.851-2.539,5.927-2.179c0.498,0.086,0.93,0.297,1.298,0.596
					c1.754-0.84,6.175-2.689,9.01-1.52l-0.012-0.095c-0.487-6.467-12.399-19.787-17.865-25.585
					c-0.094-0.005-0.188-0.026-0.269-0.085c-0.003-0.002-0.008-0.006-0.011-0.008c-5.117-3.927-8.242-10.213-8.312-16.584
					c-0.002-0.142,0.112-0.259,0.255-0.26c0.14-0.001,0.255,0.109,0.26,0.248c0.171,4.715,2.071,9.305,5.149,12.818l5.962-21.073
					c-3.594,1.74-7.623,2.717-11.877,2.717c-15.076,0-27.342-12.266-27.342-27.342c0-15.076,12.266-27.341,27.342-27.341
					c4.799,0,9.311,1.247,13.235,3.427c-1.923-7.232-3.708-13.303-4.008-14.321c-0.829-1.198-7.712-10.875-19.338-20.35
					c3.849,5.934,7.378,14.702,1.527,22.038c-8.114,10.176-17.373,15.234-28.015,15.235c-5.546,0.001-11.466-1.373-17.798-4.111
					c-9.349-4.042-13.111-9.261-17.095-14.786c-5.384-7.468-11.489-15.925-33.291-24.081c-3.608,2.192-6.861,4.54-9.782,6.989
					c11.625,2.871,18.778,13.103,19.096,13.565c0.173,0.251,0.221,0.567,0.132,0.858c-0.089,0.291-0.306,0.526-0.589,0.638
					c-4.149,1.638-10.484,12.014-12.866,16.389c4.931,6.764,8.082,17.019,8.082,28.481c0,17.842-7.478,32.783-17.722,36.15
					c2.807,1.957,5.928,3.732,9.342,5.268c0.023,0.01,0.037,0.032,0.059,0.044c3.666,1.468,7.403,2.745,11.171,3.955
					C227.326,188.239,231.725,189.738,236,191.549z M284.196,202.943c-0.155,0.228-0.466,0.288-0.695,0.132
					c-0.002-0.001-0.006-0.004-0.008-0.005c-3.57-2.527-6.983-5.271-10.212-8.214c-0.793-0.76-1.634-1.415-2.363-2.349
					c-0.355-0.469-0.597-1.064-0.682-1.637c-0.095-0.578-0.092-1.134-0.09-1.686c0.025-2.215,0.454-4.419,1.247-6.478
					c0.051-0.133,0.2-0.199,0.333-0.148c0.131,0.051,0.197,0.198,0.149,0.329c-0.734,2.016-1.109,4.16-1.093,6.299
					c0.007,1.077,0.058,2.135,0.695,2.905c0.623,0.779,1.517,1.474,2.309,2.2c3.26,2.862,6.694,5.52,10.277,7.956
					C284.292,202.404,284.351,202.715,284.196,202.943z M318.094,215.723c-0.269,0.062-0.538-0.105-0.6-0.374
					c-0.001-0.004-0.003-0.012-0.004-0.016c-0.258-1.311-1.013-2.514-1.952-3.545c-0.94-1.04-2.08-1.914-3.223-2.81
					c-1.142-0.893-2.304-1.83-3.264-2.97c-0.962-1.13-1.748-2.404-2.322-3.765c-0.055-0.131,0.006-0.282,0.137-0.337
					c0.129-0.054,0.277,0.005,0.335,0.131c0.59,1.296,1.38,2.498,2.329,3.552c0.944,1.06,2.079,1.927,3.244,2.787
					c1.161,0.86,2.365,1.725,3.407,2.813c1.034,1.075,1.935,2.389,2.288,3.935C318.531,215.392,318.363,215.661,318.094,215.723z
					 M322.364,200.92c0.008-0.012,0.016-0.025,0.025-0.036l3.347-4.447c0.086-0.114,0.247-0.137,0.361-0.051
					c0.107,0.081,0.133,0.23,0.064,0.342l-2.948,4.721c-0.146,0.234-0.455,0.306-0.69,0.16
					C322.289,201.463,322.218,201.154,322.364,200.92z M313.689,171.627c5.512,10.138,7.287,21.895,7.36,22.391
					c0.036,0.243-0.02,0.491-0.154,0.696c-0.115,0.174-2.904,4.276-10.575,4.509c-0.01,0.001-0.021,0.001-0.03,0.001
					c-0.191,0-0.38-0.055-0.541-0.159l-5.457-3.511l-2.984,3.076c-1.418,1.468-3.319,2.232-5.247,2.232
					c-1.279,0-2.57-0.336-3.739-1.028c-2.661-1.581-5.88-3.49-7.559-4.48c-2.242-1.307-5.319-3.101-5.721-5.712
					c-0.198-1.289,0.278-2.578,1.418-3.832c3.246-3.561,15.979-19.018,16.108-19.173c0.081-0.099,0.186-0.184,0.298-0.245
					c0,0,0.162-0.088,0.459-0.212c0,0,0,0,0,0C299.183,165.352,308.406,161.879,313.689,171.627z M290.076,118.918
					c0.141,0.001,0.255,0.116,0.255,0.257c0.018,7.476,0.363,14.95,1.041,22.392c0.344,3.717,0.758,7.442,1.269,11.128
					c0.137,0.908,0.338,1.766,0.763,2.523c0.422,0.765,1.006,1.51,1.541,2.277l3.259,4.57c0.16,0.225,0.108,0.537-0.117,0.697
					c-0.225,0.16-0.537,0.108-0.697-0.117l-0.003-0.004l-3.21-4.605c-0.524-0.773-1.097-1.508-1.574-2.388
					c-0.485-0.887-0.702-1.888-0.832-2.826c-0.477-3.732-0.848-7.453-1.154-11.191c-0.6-7.471-0.865-14.968-0.801-22.459
					C289.818,119.031,289.934,118.917,290.076,118.918z M237.441,131.135c0.023-0.258,0.647-6.372,6.772-10.795
					c6.509-4.7,16.493-5.613,29.669-2.748l-0.008-0.08l1.265,0.352l0.191,0.019l0.097,0.066c1.07,0.341,8.109,2.72,9.068,6.214
					c0.835,3.064-0.76,27.444-0.944,30.214l-0.021,0.301l-0.183,0.239c-0.434,0.568-9.838,12.655-23.098,12.655
					c-1.408,0-2.859-0.136-4.349-0.438c-5.898-1.192-10.326-3.338-13.201-6.363l-0.034-0.001l-0.288-0.322
					c-0.002-0.002-0.003-0.004-0.004-0.005l-1.535-1.717l0.246,0.006c-1.468-2.284-1.815-4.382-1.865-5.558
					c-0.069-1.478-1.763-21.662-1.779-21.866l-0.008-0.087L237.441,131.135z"/>
				<path style="fill:#FFFFFF;" d="M339.662,217.208c1.295,2.504,3.415,7.586,4.765,10.898l1.129,2.531
					c0.066,0.148,0.085,0.305,0.077,0.461c0.023,0.059,0.042,0.106,0.05,0.127c0.159,0.401,0.043,0.859-0.288,1.136l-1.507,1.26
					c3.44,7.578,7.72,15.794,9.526,17.698c0.57-3.183-0.318-16.051-1.625-27.802c-0.362-0.803-2.317-5.015-4.465-7.256
					C346.029,214.91,342.27,216.002,339.662,217.208z M350.197,230.965c0.401,1.248,0.721,2.581,0.612,3.941
					c-0.011,0.142-0.135,0.247-0.277,0.236c-0.139-0.011-0.243-0.132-0.236-0.271c0.062-1.252-0.272-2.497-0.701-3.702
					c-0.438-1.212-0.927-2.413-1.457-3.59c-1.061-2.356-2.296-4.63-3.69-6.797c-0.15-0.232-0.083-0.542,0.15-0.691
					c0.232-0.15,0.542-0.083,0.691,0.15c0.002,0.004,0.006,0.01,0.008,0.014c1.352,2.253,2.535,4.603,3.537,7.025
					C349.334,228.49,349.789,229.716,350.197,230.965z"/>
				
					<path style="fill:#0B1011;stroke:#0B1011;stroke-width:2;stroke-linecap:round;stroke-linejoin:round;stroke-miterlimit:10;" d="
					M198.007,104.56c4.7,0,9.058,2.474,12.642,6.672c1.9-3.383,7.575-12.988,12.333-15.963c-2.114-2.663-8.977-10.354-18.67-12.136
					c-10.25,9.193-16.076,19.507-18.736,27.776C189.196,106.785,193.491,104.56,198.007,104.56z"/>
				<path style="fill:#0B1011;stroke:#0B1011;stroke-width:2;stroke-miterlimit:10;" d="M218.076,141.41
					c0-13.474-4.429-25.178-10.89-30.975l-6.987,0.037c6.742,3.317,11.769,15.763,11.769,30.577
					c0,14.552-4.851,26.824-11.413,30.396h7.556C214.071,165.316,218.076,154.01,218.076,141.41z"/>
				<path style="fill:#D8DAD9;" d="M295.444,138.78c0,13.974,11.368,25.342,25.342,25.342c5.478,0,10.551-1.753,14.7-4.719
					c-2.248,0.831-4.667,1.307-7.2,1.307c-1.784,0-3.55-0.226-5.249-0.672c0,0-0.001,0-0.001,0c0,0-0.001,0-0.001,0
					c-0.001,0-0.002,0-0.003-0.001c-8.044-2.079-13.967-8.698-15.322-16.695c-0.194-1.142-0.294-2.313-0.294-3.502
					c0-9.504,6.423-17.81,15.619-20.198c1.717-0.439,3.482-0.662,5.251-0.662c4.631,0,8.9,1.534,12.366,4.095
					c-4.646-5.864-11.821-9.636-19.866-9.636C306.812,113.439,295.444,124.807,295.444,138.78z"/>
				<path style="fill:#0B1011;stroke:#0B1011;stroke-width:2;stroke-miterlimit:10;" d="M327.26,121.012
					c7.15,3.407,11.886,10.669,11.886,18.828c0,8.172-4.74,15.439-11.898,18.837c0.345,0.019,0.69,0.033,1.037,0.033
					c5.208,0,9.929-2.121,13.346-5.543c2.831-4.09,4.496-9.046,4.496-14.386c0-2.798-0.463-5.489-1.304-8.007
					c-3.213-5.831-9.42-9.793-16.538-9.793C327.944,120.98,327.602,120.994,327.26,121.012z"/>
				<path style="fill:#D94328;" d="M250.918,97.401c3.983,5.525,7.423,10.296,16.265,14.12c17.543,7.585,31.755,4.14,43.455-10.535
					c7.459-9.352-3.118-22.158-6.07-25.404c-13.942-9.727-32.975-17.627-55.555-13.35c-12.258,2.321-22.422,6.211-30.799,10.956
					C239.366,81.38,245.493,89.878,250.918,97.401z M257.79,67.43c0.1-0.257,0.389-0.385,0.647-0.286l0.005,0.002
					c4.224,1.69,8.492,3.408,12.427,5.811c3.941,2.355,7.447,5.602,9.834,9.554c2.423,3.914,4.177,8.183,5.524,12.55
					c1.335,4.377,2.227,8.868,2.896,13.379c0.021,0.141-0.076,0.272-0.217,0.292c-0.14,0.021-0.27-0.076-0.292-0.215
					c-0.706-4.487-1.634-8.943-2.994-13.268c-1.371-4.312-3.148-8.521-5.557-12.334c-2.372-3.842-5.765-6.926-9.649-9.207
					c-3.87-2.317-8.103-3.983-12.338-5.632C257.819,67.977,257.691,67.687,257.79,67.43z"/>
				<path style="fill:#FFFFFF;" d="M195.957,131.78c-1.581,0-3.342,3.581-3.342,8.72s1.761,8.72,3.342,8.72
					c1.58,0,3.341-3.581,3.341-8.72S197.537,131.78,195.957,131.78z"/>
				<path style="fill:#D8DAD9;" d="M281.577,153.932c0.712-10.752,1.55-27.186,0.989-29.24c-0.465-1.697-4.193-3.502-6.439-4.378
					c0.064,0.883,0.114,1.771,0.172,2.657c0.06,0.928,0.126,1.854,0.18,2.785c0.064,1.113,0.113,2.228,0.167,3.343
					c0.039,0.814,0.085,1.628,0.119,2.442c0.052,1.253,0.088,2.505,0.127,3.758c0.021,0.681,0.05,1.362,0.067,2.042
					c0.049,1.93,0.083,3.858,0.101,5.779c0.027,3.296-0.091,6.471-1.811,9.099c-0.242,0.368-0.508,0.711-0.794,1.032
					c-1.427,1.604-3.354,2.657-5.332,3.435c-0.791,0.311-1.59,0.579-2.369,0.82c-0.868,0.269-1.741,0.521-2.617,0.758
					c-0.299,0.081-0.601,0.149-0.901,0.226c-0.579,0.148-1.157,0.299-1.739,0.433c-0.356,0.082-0.714,0.151-1.071,0.228
					c-0.53,0.114-1.06,0.231-1.592,0.333c-0.379,0.073-0.759,0.133-1.139,0.199c-0.513,0.09-1.026,0.183-1.541,0.262
					c-0.394,0.061-0.789,0.109-1.183,0.163c-0.505,0.069-1.009,0.141-1.515,0.2c-0.404,0.047-0.809,0.082-1.214,0.123
					c-0.499,0.049-0.997,0.101-1.497,0.14c-0.413,0.032-0.827,0.055-1.24,0.08c-0.495,0.031-0.99,0.063-1.485,0.083
					c-0.418,0.018-0.837,0.025-1.256,0.036c-0.36,0.009-0.72,0.027-1.081,0.031c2.562,1.998,6.119,3.466,10.618,4.376
					C269.566,167.855,280.078,155.759,281.577,153.932z"/>
				<path style="fill:#00B565;" d="M246.126,199.844c0.003,0.004,0.006,0.007,0.009,0.01c0.013-0.036,0.027-0.072,0.039-0.109
					C246.158,199.78,246.142,199.811,246.126,199.844z"/>
				
					<path style="fill:#0B1011;stroke:#0B1011;stroke-width:2;stroke-linecap:round;stroke-linejoin:round;stroke-miterlimit:10;" d="
					M322.156,243.915c-0.007,0.221-0.087,0.435-0.228,0.606c-0.103,0.126-0.391,0.465-0.807,0.895l0.778,4.011l3.527-6.8
					l-3.12-4.338C322.254,240.448,322.199,242.439,322.156,243.915z"/>
				<path style="fill:#FFFFFF;" d="M337.41,217.284c-0.136-0.203-0.301-0.315-0.553-0.359c-1.004-0.178-2.669,0.666-3.933,1.498
					c4.088,4.41,5.122,12.848,5.384,16.96c0.121-0.026,0.244-0.031,0.365-0.012l3.328-2.781l1.414-1.65
					c-0.216-0.539-0.507-1.259-0.85-2.099L337.41,217.284z"/>
				<path style="fill:#D8DAD9;" d="M197.492,172.445c-0.29,0.034-0.582,0.055-0.876,0.055c-8.466,0-15.354-14.109-15.354-31.451
					s6.888-31.451,15.354-31.451c0.202,0,0.402,0.015,0.602,0.031l-0.001-0.141l8.771-0.047c-2.447-1.849-5.145-2.881-7.98-2.881
					c-5.175,0-10.095,3.447-13.854,9.705c-4.01,6.641-6.217,15.571-6.217,25.145c0,19.222,9.004,34.86,20.07,34.86
					c0.643,0,1.243-0.048,1.836-0.146c2.585-0.416,5.027-1.703,7.235-3.678H197.492z"/>
				<path style="fill:#FFFFFF;" d="M333.595,242.66l0.896-0.264c0.395-0.858,1.011-2.313,1.405-3.607
					c0.906-5.875-1.697-14.707-3.631-17.869c-1.799-2.943-3.897-2.552-4.586-2.422c-0.008,0.001-0.016,0.003-0.024,0.004
					c-0.647,0.516-3.049,2.837-5.33,5.107c0.001,0.005,0.006,0.01,0.008,0.014c0.188,0.625,0.165,5.011,0.078,9.776l0.062,1.697
					l4.431,6.162c0.296,0.044,0.555,0.211,0.71,0.472l1.323,2.233l3.709-1.447c0.283-0.109,0.602-0.086,0.865,0.067
					C333.545,242.602,333.564,242.637,333.595,242.66z M330.713,232.196c-0.134,0.025-0.264-0.059-0.297-0.189
					c-0.616-2.378-1.486-4.682-2.588-6.857c-0.125-0.246-0.026-0.548,0.22-0.672s0.547-0.026,0.672,0.22
					c0.005,0.009,0.01,0.021,0.014,0.03c0.986,2.31,1.718,4.717,2.184,7.167C330.945,232.035,330.853,232.169,330.713,232.196z"/>
				<path style="fill:#D8DAD9;" d="M300.75,168.154c0.413,0.335,0.819,0.677,1.217,1.028c0.212,0.187,0.424,0.375,0.632,0.566
					c0.401,0.369,0.792,0.747,1.177,1.13c0.176,0.175,0.355,0.346,0.527,0.524c0.545,0.563,1.077,1.138,1.585,1.731
					c0.561,0.654,1.205,1.44,1.735,2.31c1.341,2.181,1.887,4.653,2.212,6.563c0.398,2.298,0.595,4.654,0.584,7
					c0,0.001,0,0.001,0,0.002c0,0,0,0.001,0,0.001c0,0.224,0,0.563-0.056,0.941c-0.006,0.04-0.017,0.082-0.024,0.123
					c-0.016,0.087-0.03,0.175-0.052,0.264c-0.032,0.128-0.073,0.258-0.122,0.386c-0.001,0.004-0.002,0.007-0.004,0.011
					c-0.154,0.397-0.401,0.783-0.796,1.085c-0.366,0.277-0.766,0.402-1.087,0.501l-0.215,0.069
					c-0.242,0.082-0.476,0.203-0.702,0.342c-0.071,0.044-0.138,0.097-0.207,0.145c-0.154,0.109-0.304,0.228-0.447,0.362
					c-0.071,0.066-0.141,0.135-0.21,0.207c-0.14,0.148-0.272,0.31-0.398,0.48c-0.052,0.07-0.108,0.136-0.157,0.21
					c-0.016,0.024-0.027,0.052-0.043,0.076l4.665,3.002c5.294-0.243,7.736-2.518,8.438-3.321c-0.37-2.187-2.303-12.536-7.072-21.31
					c-3.54-6.531-9.04-6.093-12.123-5.186c0.107,0.082,0.208,0.17,0.314,0.253C300.334,167.813,300.541,167.984,300.75,168.154z"/>
				<path style="fill:#D8DAD9;" d="M336.112,260.29c-0.56,3.47-1.62,10.15-2.67,17.48c-0.79,5.52-4.19,7.68-7.05,8.52
					c-0.24,0.02-0.48,0.04-0.73,0.03c-0.08,0-0.15,0-0.22,0.01l-0.44,0.08c2.23-6.03,1.92-13.71,1.91-14.07
					c-0.01-0.19-0.08-0.37-0.19-0.53c-5.74-8.07-29.75-2.11-30.77-1.85c-0.46,0.12-0.78,0.55-0.75,1.03
					c0.39,6.38-5.94,14.76-6.59,15.62c-21.14-4.23-40.75-15.07-54.97-24.76c-1.54-1.05-3.02-2.09-4.43-3.1
					c-0.1-0.13-0.24-0.23-0.41-0.3c-4.15-3-7.7-5.78-10.51-8.09c-1.82-1.5-3.27-3.07-4.43-4.65c-0.02-0.06-0.03-0.11-0.06-0.16
					l-1.03-1.78l-1.35-2.33c-3.09-7.09-1.39-13.42-1.36-13.51c0.01-0.06,0.01-0.11,0.02-0.17c0.17-0.4,0.37-0.98,0.63-1.81
					l14.36,2.21c0.05,0.01,0.1,0.01,0.15,0.01c0.22,0,0.43-0.07,0.6-0.2c0.22-0.16,0.36-0.4,0.39-0.66l4.39-32.35
					c0.07-0.51-0.26-1-0.77-1.11l-15.96-3.48c-0.64-3.42-1.32-5.87-1.55-6.66c3.41,1.4,6.88,2.65,10.36,3.84
					c4.1,1.39,8.15,2.86,12.1,4.57c-0.06,0.12-0.11,0.25-0.12,0.38l-2.49,27.66c-0.01,0.08-0.01,0.16,0.01,0.24
					c0.11,0.72,2.82,17.76,15.03,23.19c0.09,0.04,0.19,0.05,0.28,0.06l3.26,6.45c0.16,0.31,0.46,0.52,0.81,0.55h0.08
					c0.32,0,0.61-0.14,0.8-0.4l1.19-1.6c0.05,0.01,0.1,0.04,0.15,0.05l4.16,0.4c0.44,0.05,0.86,0.09,1.2,0.22
					c0.35,0.13,0.68,0.39,1.06,0.68c1.67,1.3,3.28,2.73,4.78,4.23c0.13,0.13,0.29,0.2,0.46,0.24l2.11,3.7
					c0.14,0.25,0.39,0.43,0.68,0.48c0.06,0.02,0.12,0.02,0.18,0.02c0.23,0,0.45-0.07,0.63-0.21l6.97-5.55
					c0.84,2.4,1.53,4.26,1.86,5.15c-0.15,0.33-0.12,0.71,0.09,1c7.53,10.44,7.68,10.54,7.88,10.67c0.17,0.12,0.36,0.17,0.55,0.17
					c0.31,0,0.61-0.14,0.8-0.4c2.74-3.67,6.69-8.97,7.94-10.61l2.12,4.97c0.13,0.31,0.41,0.53,0.74,0.59
					c0.06,0.01,0.12,0.02,0.18,0.02c0.27,0,0.53-0.11,0.72-0.31l7.17-7.47l9.37,9.61c0.19,0.2,0.44,0.31,0.71,0.31
					c0.06,0,0.12-0.01,0.18-0.02c0.32-0.06,0.6-0.27,0.73-0.57l5.51-12.23c0.01-0.03,0.01-0.06,0.02-0.08l4.64,7.39
					c0.18,0.28,0.48,0.45,0.8,0.47h0.05c0.31,0,0.6-0.15,0.79-0.4l4.82-6.33c1.11,4.63,1.22,4.85,1.27,4.95
					c0.15,0.3,0.43,0.5,0.76,0.54c0.05,0.01,0.09,0.01,0.13,0.01C335.942,260.34,336.022,260.31,336.112,260.29z"/>
				
					<path style="fill:#0B1011;stroke:#0B1011;stroke-width:2;stroke-linecap:round;stroke-linejoin:round;stroke-miterlimit:10;" d="
					M155.522,324.647l-3.024,1.603c-0.083,0.044-0.173,0.076-0.265,0.095c-0.037,0.008-0.476,0.106-1.216,0.301l42.021,12.87
					c-10.549-4.273-24.766-10.004-37.369-14.99C155.62,324.566,155.581,324.616,155.522,324.647z"/>
				<path style="fill:#40595E;" d="M159.019,412.51c-15.16-21.717-20.494-29.43-20.812-30.707
					c-0.973-3.887,6.651-11.246,8.189-12.681c0.091-0.085,0.195-0.151,0.311-0.197l31.023-12.439l-1.225-1.7l-0.012-0.022
					l-0.027-0.062c-0.979-2.26-2.169-4.518-3.432-6.685c-1.275-2.17-2.652-4.281-4.149-6.299c-2.978-4.021-6.416-7.715-10.389-10.69
					l-10.94-3.351c-10.04,3.287-33.772,13.417-46.439,38.529c-15.765,31.252-49.852,124.209-52.998,135.032
					c1.423,0.03,4.326,0.03,7.783,0.027c7.233,0.001,18.064-0.006,30.183,0.295l98.657-0.019l1.028-49.624
					c0.004-0.204,0.084-0.381,0.192-0.537C176.787,437.962,167.129,424.127,159.019,412.51z"/>
				<path style="fill:#5C6A6D;" d="M186.485,484.361l-0.681,17.181l32.039-0.006c-0.318-0.688-0.708-1.463-1.139-2.291
					L186.485,484.361z"/>
				<path style="fill:#F7BE27;" d="M148.395,296.512c-3.726,0-6.756,2.571-6.756,5.732c0,3.16,3.03,5.731,6.756,5.731
					s6.757-2.571,6.757-5.731C155.152,299.083,152.121,296.512,148.395,296.512z"/>
				
					<path style="fill:#0B1011;stroke:#0B1011;stroke-width:2;stroke-linecap:round;stroke-linejoin:round;stroke-miterlimit:10;" d="
					M322.228,286.793c0.045,0.003,0.207,0.014,0.452,0.017c2.311-5.112,2.276-12.491,2.238-14.071
					c-4.262-5.268-20.695-2.697-27.7-1.033c-0.076,6.008-4.636,12.855-6.416,15.305c5.1,0.903,10.278,1.423,15.486,1.424
					c5.209,0.001,10.439-0.505,15.648-1.623C322.032,286.792,322.13,286.784,322.228,286.793z"/>
				
					<path style="fill:#0B1011;stroke:#0B1011;stroke-width:2;stroke-linecap:round;stroke-linejoin:round;stroke-miterlimit:10;" d="
					M151.68,324.419l1.588-0.842c-11.534-4.55-21.371-8.33-25.223-9.551c-2.671-0.847-4.667-1.836-6.026-2.95l-0.376,6.573
					l25.904,7.934C149.746,324.883,151.227,324.523,151.68,324.419z"/>
				<path style="fill:#40595E;" d="M374.285,447.884l-29.537,53.627l26.094-0.005c-0.091-3.609-0.45-20.343,0.616-26.744
					C372.304,469.687,373.632,455.269,374.285,447.884z"/>
				<path style="fill:#40595E;" d="M178.871,356.03l7.737-3.102l9.128-10.494l-32.382-9.918c2.628,2.449,4.985,5.17,7.101,8.044
					c1.535,2.084,2.942,4.255,4.243,6.487c1.296,2.244,2.486,4.509,3.528,6.933l-0.039-0.083L178.871,356.03z"/>
				
					<path style="fill:#0B1011;stroke:#0B1011;stroke-width:2;stroke-linecap:round;stroke-linejoin:round;stroke-miterlimit:10;" d="
					M228.5,195.609l-14.263-3.112c1.009,6.298,1.63,14.881-0.446,22.457c-1.138,4.155-1.93,7.043-2.508,9.06l13.088,2.014
					L228.5,195.609z"/>
				<path style="fill:#40595E;" d="M270.47,391.26c-0.349-8.605-0.499-15.752-0.632-22.058c-0.135-6.416-0.247-11.674-0.524-16.126
					c-0.103-0.169-0.172-0.359-0.159-0.571c0.008-0.13,0.045-0.252,0.098-0.364c-0.847-12.221-3.113-18.183-11.045-25.453
					c-6.201-5.685-18.279-12.874-29.959-19.827c-15.427-9.183-28.75-17.114-30.32-22.175c-2.551-8.222,11.405-34.169,13.802-38.531
					c-0.887-1.309-1.595-2.622-2.157-3.914l-0.168-0.29L123.084,305.1c0-0.001,0-0.001,0-0.001c0.002,0-0.711,0.617-1.02,1.477
					c0.115,0.174,0.191,0.375,0.178,0.598l-0.064,1.119c0.528,0.989,2.085,2.436,6.471,3.827c11.9,3.773,80.169,31.648,80.857,31.93
					c0.377,0.154,0.623,0.521,0.622,0.929c-0.001,0.407-0.25,0.773-0.628,0.925l-61.874,24.808c-3.451,3.252-7.98,8.607-7.48,10.607
					c0.494,1.371,9.772,14.66,20.513,30.047c21.4,30.654,53.564,76.729,59.377,90.169l2.843-0.001
					c-1.383-1.822-2.664-3.701-3.942-5.584c-1.765-2.626-3.476-5.284-5.168-7.953c-3.379-5.341-6.671-10.732-9.935-16.139
					c-6.521-10.819-12.918-21.709-19.294-32.61l-19.096-32.72c-3.192-5.447-6.392-10.89-9.638-16.304
					c-1.624-2.706-3.259-5.406-4.928-8.082c-0.836-1.337-1.68-2.669-2.55-3.981c-0.436-0.655-0.877-1.306-1.336-1.941
					c-0.231-0.316-0.465-0.629-0.71-0.926c-0.123-0.146-0.248-0.294-0.378-0.417c-0.052-0.054-0.108-0.097-0.154-0.129
					c-0.06,0.039-0.132,0.057-0.207,0.036c-0.137-0.039-0.216-0.182-0.176-0.318c0.023-0.064,0.062-0.129,0.106-0.181
					c0.06-0.054,0.189-0.101,0.251-0.093c0.056,0.006,0.115,0.019,0.168,0.038l0.095,0.053c0.118,0.074,0.197,0.147,0.275,0.222
					c0.157,0.149,0.287,0.303,0.419,0.458c0.259,0.311,0.498,0.629,0.734,0.95c0.468,0.643,0.915,1.297,1.355,1.955
					c0.879,1.316,1.729,2.649,2.571,3.986c1.681,2.675,3.326,5.372,4.96,8.075c3.265,5.407,6.483,10.84,9.693,16.278l19.2,32.659
					c6.41,10.88,12.841,21.747,19.392,32.539c3.279,5.394,6.586,10.77,9.976,16.091c1.697,2.659,3.412,5.305,5.178,7.914
					c1.419,2.078,2.854,4.159,4.396,6.126l29.303-0.006C255.48,494.037,272.102,431.516,270.47,391.26z M148.395,309.976
					c-4.828,0-8.756-3.468-8.756-7.731c0-4.263,3.928-7.732,8.756-7.732c4.828,0,8.757,3.469,8.757,7.732
					C157.152,306.507,153.224,309.976,148.395,309.976z M170.055,385.195c-4.828,0-8.757-3.469-8.757-7.732
					c0-4.263,3.929-7.732,8.757-7.732s8.756,3.468,8.756,7.732C178.811,381.727,174.883,385.195,170.055,385.195z"/>
				<path style="fill:#00B565;" d="M145.863,374.608c-0.008,0.027-0.034,0.039-0.049,0.061c0.004-0.004,0.012-0.005,0.014-0.01
					C145.849,374.651,145.863,374.628,145.863,374.608z"/>
				<path style="fill:#F7BE27;" d="M403.395,325.42c3.726,0,6.756-2.571,6.756-5.732c0-3.16-3.03-5.731-6.756-5.731
					c-3.726,0-6.757,2.571-6.757,5.731C396.639,322.849,399.67,325.42,403.395,325.42z"/>
				<path style="fill:#F7BE27;" d="M170.055,371.732c-3.726,0-6.757,2.571-6.757,5.732c0,3.161,3.031,5.732,6.757,5.732
					s6.756-2.571,6.756-5.732C176.811,374.303,173.78,371.732,170.055,371.732z"/>
				<path style="fill:#40595E;" d="M425.13,360.535l-87.719,139.95c-0.127,0.245-0.428,0.342-0.674,0.215
					c-0.245-0.127-0.342-0.428-0.214-0.675l88.186-139.8c-0.355-0.237-0.713-0.426-1.069-0.545
					c-3.867-1.553-7.734-3.107-11.602-4.66c-3.797-1.525-7.595-3.05-11.392-4.576c-2.9-1.165-7.782-2.124-9.569-4.895
					c-0.73-1.131-1.201-2.43-2.056-3.47c-1.018-1.238-2.488-2.001-3.916-2.73c-2.322-1.186-4.644-2.372-6.966-3.558
					c-0.358-0.183-0.749-0.404-0.865-0.788c-0.168-0.552,0.317-1.073,0.774-1.425c2.527-1.949,5.653-1.79,8.741-2.138
					c3.088-0.348,6.175-0.697,9.263-1.045c6.173-0.697,12.346-1.393,18.518-2.09c7.319-0.826,14.639-1.652,21.959-2.478
					c0,0-91.76-54.594-98.704-61.905l-2.441,15.937c-0.756,2.932-3.529,8.094-8.869,8.431c-0.081,0.021-0.16,0.04-0.24,0.06
					c-2.206,1.253-6.019,3.267-10.572,5.066l2.417,19.827c0.054,0.545,0.397,4.069,0.877,9.236c0.092,0.186,0.142,0.395,0.102,0.614
					c-0.009,0.051-0.022,0.098-0.031,0.148c1.494,16.164,4.175,46.923,3.742,55.151c-0.156,2.96-0.101,11.614-0.029,22.571
					c0.193,30.061,0.515,79.981-2.716,100.551l22.4-0.004l88.576-132.296C430.041,366.975,427.672,362.525,425.13,360.535z
					 M403.267,357.065c4.828,0,8.756,3.468,8.756,7.731c0,4.263-3.928,7.732-8.756,7.732c-4.828,0-8.757-3.469-8.757-7.732
					C394.51,360.533,398.439,357.065,403.267,357.065z M403.395,311.957c4.828,0,8.756,3.468,8.756,7.731
					c0,4.263-3.928,7.732-8.756,7.732c-4.828,0-8.757-3.469-8.757-7.732C394.639,315.425,398.567,311.957,403.395,311.957z"/>
				
					<path style="fill:#0B1011;stroke:#0B1011;stroke-width:2;stroke-linecap:round;stroke-linejoin:round;stroke-miterlimit:10;" d="
					M313.777,294.148c-2.079,0.754-4.277,1.435-6.522,1.969l-0.085,0.038l0.096,3.656c3.267-1.796,5.885-3.263,6.738-3.809
					L313.777,294.148z"/>
				<path style="fill:#F7BE27;" d="M403.267,370.528c3.726,0,6.756-2.571,6.756-5.732c0-3.16-3.03-5.731-6.756-5.731
					c-3.726,0-6.757,2.571-6.757,5.731C396.51,367.957,399.541,370.528,403.267,370.528z"/>
				<path style="fill:#D8DAD9;" d="M309.202,340.04c-1.21,1.38-2.5,2.61-3.85,3.69c-3.7,2.98-7.82,4.9-11.82,6.13
					c-1.19,0.37-2.36,0.67-3.51,0.93c-4.11,0.91-7.89,1.15-10.7,1.17c-2.71,0.02-4.52-0.18-4.83-0.22c-0.03-0.01-0.07-0.01-0.1-0.01
					c-1.01-0.01-2.02-0.07-3.04-0.12l-1.74-14.74l-1.53-12.91l6.28,1.77l18.79,5.28c0.09,0.03,0.18,0.04,0.27,0.04
					c0.12,0,0.23-0.02,0.35-0.06l4.79-1.79l9.09-3.39l0.64,5.84L309.202,340.04z"/>
				<path style="fill:#40595E;" d="M408.31,386.11l-31.644,57.452c0,0.003,0.001,0.005,0.001,0.008
					c-0.084,0.999-2.072,24.538-3.236,31.522c-1.028,6.173-0.672,23.005-0.587,26.415l33.894-0.007l30.286,0.291
					c-4.621-11.813-10.749-39.114-16.684-65.551C415.922,416.558,411.742,397.942,408.31,386.11z"/>
				<path style="fill:#D94328;" d="M323.301,121.65c-0.22,0.06-0.436,0.131-0.652,0.199c-0.254,0.079-0.511,0.153-0.76,0.243
					c-0.239,0.086-0.47,0.187-0.704,0.282c-0.251,0.102-0.505,0.199-0.75,0.311c-0.224,0.102-0.439,0.218-0.658,0.329
					c-0.243,0.123-0.49,0.241-0.727,0.374c-0.208,0.117-0.407,0.247-0.61,0.371c-0.235,0.144-0.474,0.284-0.702,0.438
					c-0.193,0.13-0.376,0.273-0.564,0.41c-0.225,0.164-0.453,0.324-0.67,0.497c-0.181,0.145-0.351,0.301-0.526,0.452
					c-0.21,0.181-0.424,0.357-0.625,0.547c-0.169,0.16-0.327,0.331-0.49,0.496c-0.192,0.195-0.389,0.386-0.573,0.589
					c-0.158,0.175-0.304,0.361-0.455,0.542c-0.173,0.207-0.352,0.41-0.517,0.624c-0.146,0.191-0.279,0.392-0.418,0.588
					c-0.153,0.217-0.313,0.429-0.457,0.652c-0.135,0.208-0.254,0.425-0.38,0.639c-0.132,0.223-0.271,0.441-0.393,0.669
					c-0.122,0.226-0.227,0.461-0.34,0.692c-0.11,0.226-0.228,0.447-0.329,0.678c-0.106,0.243-0.195,0.494-0.291,0.741
					c-0.089,0.229-0.186,0.453-0.266,0.686c-0.09,0.262-0.162,0.532-0.24,0.799c-0.067,0.226-0.143,0.448-0.202,0.677
					c-0.074,0.291-0.128,0.588-0.188,0.884c-0.044,0.213-0.098,0.422-0.134,0.636c-0.057,0.338-0.091,0.683-0.13,1.026
					c-0.02,0.178-0.052,0.353-0.067,0.532c-0.044,0.525-0.067,1.055-0.067,1.589c0,0.535,0.023,1.066,0.067,1.591
					c0.015,0.179,0.046,0.353,0.066,0.531c0.039,0.344,0.073,0.69,0.13,1.029c0.036,0.212,0.089,0.419,0.132,0.629
					c0.061,0.299,0.115,0.599,0.19,0.893c0.057,0.223,0.131,0.439,0.196,0.659c0.081,0.273,0.154,0.55,0.246,0.818
					c0.077,0.223,0.171,0.439,0.256,0.658c0.1,0.257,0.192,0.518,0.302,0.77c0.096,0.219,0.208,0.429,0.312,0.643
					c0.118,0.243,0.229,0.49,0.357,0.728c0.115,0.213,0.245,0.417,0.368,0.626c0.135,0.229,0.263,0.461,0.407,0.684
					c0.132,0.204,0.279,0.399,0.419,0.598c0.151,0.215,0.297,0.434,0.457,0.643c0.149,0.194,0.312,0.377,0.469,0.566
					c0.167,0.201,0.329,0.407,0.505,0.601c0.165,0.183,0.343,0.354,0.515,0.53c0.182,0.186,0.359,0.377,0.549,0.555
					c0.18,0.17,0.372,0.327,0.559,0.489c0.197,0.171,0.389,0.347,0.594,0.51c0.193,0.154,0.397,0.295,0.596,0.442
					c0.212,0.156,0.419,0.316,0.638,0.464c0.206,0.139,0.423,0.264,0.635,0.395c0.225,0.139,0.446,0.282,0.677,0.411
					c0.219,0.122,0.447,0.231,0.671,0.345c0.237,0.12,0.471,0.246,0.714,0.356c0.228,0.104,0.465,0.193,0.699,0.288
					c0.251,0.102,0.499,0.209,0.756,0.301c0.237,0.085,0.482,0.155,0.724,0.231c0.226,0.071,0.45,0.144,0.68,0.207
					c8.165-2.238,13.845-9.678,13.845-18.191C337.146,131.337,331.467,123.897,323.301,121.65z"/>
				<path style="fill:#5C6A6D;" d="M277.905,364.589c2.297-0.113,4.588-0.316,6.865-0.611c4.553-0.585,9.066-1.535,13.395-3.035
					c4.32-1.502,8.466-3.548,12.131-6.273c3.423-2.52,6.382-5.656,8.698-9.221c-0.469-5.758-0.966-11.46-1.411-16.42
					c-1.55,4.702-3.756,8.529-6.369,11.635c-0.072,0.307-0.284,0.554-0.575,0.679c-9.877,11.103-24.991,12.565-32.238,12.565
					c-2.28,0-3.78-0.144-4.094-0.178c-0.979-0.016-1.973-0.069-2.963-0.116c0.187,3.198,0.296,6.772,0.39,10.831
					C273.786,364.59,275.837,364.691,277.905,364.589z"/>
				
					<path style="fill:#0B1011;stroke:#0B1011;stroke-width:2;stroke-linecap:round;stroke-linejoin:round;stroke-miterlimit:10;" d="
					M309.581,325.093l1.391,12.743c2.752-3.806,4.906-8.625,6.073-14.705c-0.025-0.268-0.049-0.534-0.073-0.793L309.581,325.093z"/>
				
					<path style="fill:#0B1011;stroke:#0B1011;stroke-width:2;stroke-linecap:round;stroke-linejoin:round;stroke-miterlimit:10;" d="
					M259.56,325.214c3.579,3.281,6.067,6.352,7.814,9.764l-1.371-11.602l-13.739-3.864
					C255.12,321.514,257.614,323.431,259.56,325.214z"/>
				<path style="fill:#D8DAD9;" d="M314.266,298.158c-2.254,1.414-7.496,4.27-19.631,10.775c-0.147,0.079-0.31,0.119-0.473,0.119
					c-0.121,0-0.242-0.022-0.357-0.066l-70.29-26.89l-3.425,17.543c2.985,1.816,6.095,3.668,9.182,5.505
					c6.063,3.609,12.227,7.28,17.653,10.789l46.452,13.065l14.464-5.391c0.15-0.133,0.329-0.237,0.543-0.26
					c0.044-0.005,0.082,0.01,0.125,0.011l8.122-3.027c0.05-0.019,0.101-0.014,0.151-0.024c-0.385-4.12-0.639-6.727-0.65-6.844
					L314.266,298.158z"/>
				<path style="fill:#D8DAD9;" d="M293.777,301.764l-26.899-11.261l-0.033,1.719c0.024,0.129,0.023,0.262-0.008,0.398l-0.073,3.88
					l27.328,10.455c3.334-1.789,7.509-4.045,11.199-6.062l-0.101-3.858l-10.622,4.721c-0.129,0.057-0.268,0.086-0.406,0.086
					C294.032,301.841,293.9,301.815,293.777,301.764z"/>
				<polygon style="fill:#E0D6D4;" points="264.828,293.156 241.581,286.865 264.779,295.74 				"/>
				
					<path style="fill:#0B1011;stroke:#0B1011;stroke-width:2;stroke-linecap:round;stroke-linejoin:round;stroke-miterlimit:10;" d="
					M213.041,247.925c-4.965,9.121-15.152,29.885-13.203,36.169c0.981,3.162,8.868,8.551,18.431,14.431l3.51-17.98
					c0.002-0.012,0.011-0.021,0.014-0.033c0.003-0.013-0.001-0.025,0.003-0.037c0.022-0.081,0.068-0.145,0.107-0.215
					c0.023-0.041,0.034-0.087,0.062-0.124c0.083-0.111,0.186-0.203,0.305-0.27c0.002-0.001,0.003-0.004,0.006-0.005
					c0.022-0.012,0.049-0.011,0.071-0.021c0.099-0.046,0.202-0.082,0.313-0.093c0.055-0.006,0.107,0.007,0.162,0.01
					c0.067,0.004,0.133-0.005,0.2,0.013l41.844,11.324l0.027-1.423l-39.249-16.432c-0.434-0.182-0.683-0.643-0.598-1.105
					l2.288-12.277c-4.064-2.946-7.547-5.68-10.314-7.955C215.458,250.617,214.144,249.281,213.041,247.925z"/>
				<path style="fill:#E6E4CB;" d="M320.78,400.978c-0.074-11.419-0.127-19.669,0.031-22.689c0.255-4.831-0.622-17.97-1.682-31.168
					c-2.239,3.233-5.004,6.104-8.153,8.459c-3.753,2.834-7.994,4.965-12.401,6.535c-4.415,1.568-9.006,2.569-13.629,3.199
					c-2.312,0.317-4.636,0.541-6.963,0.673c-2.052,0.158-4.131,0.336-6.206,0.389c0.02,0.908,0.039,1.83,0.059,2.785
					c0.133,6.297,0.283,13.434,0.631,22.019c1.611,39.724-14.375,100.792-16.955,110.349l62.521-0.012
					C321.295,481.344,320.974,431.148,320.78,400.978z"/>
				<path style="fill:#D8DAD9;" d="M292.93,296.665c-7.404-1.72-23.68-11.056-38.248-20.058
					c-9.749-4.894-18.453-10.427-25.551-15.464l-1.969,10.564l38.75,16.223c0.006,0,0.01-0.003,0.016-0.003
					c0.271,0.005,0.513,0.12,0.689,0.298l27.535,11.528l5.711-2.538C297.488,297.327,295.149,297.18,292.93,296.665z"/>
			</g>
			<g>
				<g>
					<g>
						<path style="fill:none;stroke:#0B1011;stroke-width:2;stroke-linecap:round;stroke-linejoin:round;stroke-miterlimit:10;" d="
							M410.177,462.877"/>
						<path style="fill:none;stroke:#0B1011;stroke-width:2;stroke-linecap:round;stroke-linejoin:round;stroke-miterlimit:10;" d="
							M318.141,322.915c-6.293,34.39-43.745,29.817-43.745,29.817c-1.417-0.023-2.823-0.078-4.218-0.164"/>
						<path style="fill:none;stroke:#0B1011;stroke-width:2;stroke-linecap:round;stroke-linejoin:round;stroke-miterlimit:10;" d="
							M411.69,400.293c8.303,27.714,18.79,83.698,26.854,102.512l-31.78-0.305l-323.781,0.062l4.097,0.024
							c-21.483-0.56-39.267-0.146-40.145-0.439c-0.878-0.293,36.633-103.317,53.316-136.39
							c13.242-26.251,37.645-36.046,47.336-39.065"/>
						<g>
							<path style="fill:#0B1011;" d="M320.409,345.196c-2.42,4.027-5.645,7.57-9.407,10.384c-3.753,2.834-7.994,4.965-12.401,6.535
								c-4.415,1.568-9.006,2.569-13.629,3.199c-2.312,0.317-4.636,0.541-6.963,0.673c-2.317,0.179-4.669,0.392-7.011,0.411h-0.007
								c-0.553,0.004-1.004-0.44-1.009-0.993c-0.004-0.553,0.44-1.004,0.993-1.009c0.027,0,0.056,0.001,0.082,0.003
								c2.286,0.171,4.568,0.305,6.873,0.191c2.297-0.113,4.587-0.316,6.865-0.611c4.553-0.585,9.066-1.535,13.395-3.035
								c4.32-1.502,8.466-3.548,12.131-6.273c3.674-2.705,6.825-6.114,9.206-10.008c0.148-0.243,0.465-0.319,0.708-0.171
								C320.477,344.639,320.554,344.954,320.409,345.196z"/>
						</g>
						<path style="fill:none;stroke:#0B1011;stroke-width:2;stroke-linecap:round;stroke-linejoin:round;stroke-miterlimit:10;" d="
							M177.794,469.988"/>
						<g>
							<path style="fill:#0B1011;" d="M178.144,357.026l-1.613-2.239l-0.012-0.022l-0.027-0.062
								c-0.979-2.26-2.169-4.518-3.432-6.685c-1.275-2.17-2.652-4.281-4.149-6.299c-2.988-4.034-6.439-7.741-10.429-10.722
								l-0.004-0.003c-0.442-0.331-0.533-0.957-0.203-1.4c0.331-0.442,0.957-0.533,1.4-0.203l0.003,0.002
								c4.182,3.146,7.739,7.004,10.804,11.167c1.535,2.084,2.942,4.255,4.243,6.487c1.296,2.244,2.486,4.509,3.527,6.933
								l-0.039-0.083l0.861,2.686c0.088,0.273-0.063,0.565-0.336,0.653c-0.22,0.07-0.452-0.013-0.58-0.19L178.144,357.026z"/>
						</g>
						<g>
							<path style="fill:#0B1011;" d="M184.733,503.204l1.063-51.286c0.011-0.552,0.468-0.99,1.02-0.979
								c0.552,0.011,0.991,0.468,0.979,1.021c0,0.005-0.001,0.014-0.001,0.019l-2.032,51.256c-0.011,0.284-0.251,0.505-0.535,0.494
								C184.947,503.718,184.728,503.483,184.733,503.204z"/>
						</g>
						<g>
							<path style="fill:none;" d="M401.521,491.013"/>
						</g>
					</g>
					<g>
						<path style="fill:none;stroke:#0B1011;stroke-width:2;stroke-miterlimit:10;" d="M282.58,154.312
							c0,0-11.378,14.89-26.453,11.844c-6.872-1.389-10.769-3.904-12.977-6.373c7.89,0.19,15.808-0.9,23.335-3.234
							c3.034-0.94,6.211-2.234,7.953-4.879c1.615-2.466,1.672-5.597,1.648-8.542c-0.072-7.824-0.399-15.636-0.981-23.436
							c-0.018-0.274-0.037-0.549-0.064-0.824c0.803,0.223,7.713,2.629,8.517,5.56C284.372,127.418,282.58,154.312,282.58,154.312z"
							/>
						<path style="fill:#0B1011;stroke:#0B1011;stroke-width:2;stroke-miterlimit:10;" d="M274.437,151.67
							c-1.742,2.645-4.919,3.94-7.953,4.879c-7.527,2.334-15.444,3.424-23.335,3.234c-2.63-2.939-2.869-5.821-2.905-6.65
							c-0.071-1.518-1.782-21.907-1.782-21.907s1.867-20.447,36.532-12.373c0.009,0.001,0.028,0.004,0.045,0.016
							c0.027,0.275,0.046,0.55,0.064,0.824c0.582,7.8,0.908,15.612,0.981,23.436C276.109,146.073,276.052,149.204,274.437,151.67z"
							/>
						<path style="fill:none;stroke:#0B1011;stroke-width:2;stroke-linecap:round;stroke-linejoin:round;stroke-miterlimit:10;" d="
							M320.086,194.164c0,0-2.53,3.84-9.77,4.06l-5.72-3.68c0.64-1.4,1.73-2.61,3.17-3.1c0.35-0.12,0.73-0.2,1.02-0.42
							c0.59-0.45,0.66-1.29,0.66-2.02c0.01-2.29-0.18-4.58-0.57-6.83c-0.37-2.17-0.93-4.34-2.08-6.21
							c-0.47-0.77-1.05-1.49-1.64-2.18c-2.17-2.53-4.68-4.78-7.42-6.68c1.85-0.83,10.25-3.95,15.1,5
							C318.326,182.204,320.086,194.164,320.086,194.164z"/>
						
							<path style="fill:#0B1011;stroke:#0B1011;stroke-width:2;stroke-linecap:round;stroke-linejoin:round;stroke-miterlimit:10;" d="
							M309.446,189.004c0,0.73-0.07,1.57-0.66,2.02c-0.29,0.22-0.67,0.3-1.02,0.42c-1.44,0.49-2.53,1.7-3.17,3.1l-0.43-0.27
							l-3.55,3.66c-2.03,2.1-5.24,2.53-7.76,1.04c-2.66-1.58-5.88-3.49-7.56-4.48c-3.19-1.86-7.36-4.39-4.07-8.01
							c3.3-3.62,16.14-19.21,16.14-19.21s0.13-0.07,0.37-0.17c2.74,1.9,5.25,4.15,7.42,6.68c0.59,0.69,1.17,1.41,1.64,2.18
							c1.15,1.87,1.71,4.04,2.08,6.21C309.266,184.424,309.456,186.714,309.446,189.004z"/>
						<path style="fill:none;stroke:#0B1011;stroke-width:2;stroke-linecap:round;stroke-linejoin:round;stroke-miterlimit:10;" d="
							M334.096,162.102l-6.434,22.738c0,0,20.19,20.19,20.85,28.97l0.22,1.76"/>
						<path style="fill:none;stroke:#0B1011;stroke-width:2;stroke-linecap:round;stroke-linejoin:round;stroke-miterlimit:10;" d="
							M183.322,115.75c3.15-16.76,20.59-45.99,65.53-54.5c49.83-9.44,82.1,38.86,82.1,38.86s2.29,7.694,4.624,16.634"/>
						<path style="fill:none;stroke:#0B1011;stroke-width:2;stroke-linecap:round;stroke-linejoin:round;stroke-miterlimit:10;" d="
							M200.032,177.11c3.18,2.43,6.9,4.66,11.28,6.63c0,0,5.27,17.34,1.54,30.95c-3.4,12.41-3.7,12.96-3.73,12.96"/>
						<path style="fill:none;stroke:#0B1011;stroke-width:2;stroke-linecap:round;stroke-linejoin:round;stroke-miterlimit:10;" d="
							M209.122,227.64c0,0,0,0,0,0.01c-0.09,0.31-3.58,13.5,8.56,23.48c12.29,10.1,59.49,46.32,104.49,36.66
							c0,0,10.75,0.88,12.29-9.88s3.07-19.98,3.07-19.98"/>
						<path style="fill:none;stroke:#0B1011;stroke-width:2;stroke-linecap:round;stroke-linejoin:round;stroke-miterlimit:10;" d="
							M252.364,231.081c-8.488-1.756-11.561-11.854-11.561-11.854s4.683-18,4.829-18.439c0.146-0.439-9.951-8.195-9.951-8.195
							l-2.488,27.659c0,0,2.598,17.158,14.451,22.427"/>
						<g>
							<path style="fill:#0B1011;" d="M307.226,202.036c0.59,1.296,1.38,2.498,2.329,3.552c0.943,1.06,2.079,1.927,3.244,2.787
								c1.161,0.86,2.365,1.725,3.407,2.813c1.034,1.075,1.935,2.389,2.288,3.935c0.062,0.269-0.105,0.538-0.374,0.6
								c-0.269,0.062-0.538-0.105-0.6-0.374c-0.001-0.004-0.003-0.012-0.004-0.016c-0.258-1.311-1.013-2.514-1.952-3.545
								c-0.94-1.04-2.08-1.914-3.224-2.81c-1.142-0.893-2.304-1.83-3.264-2.97c-0.962-1.13-1.748-2.404-2.322-3.765
								c-0.055-0.131,0.006-0.282,0.137-0.337C307.02,201.851,307.168,201.91,307.226,202.036z"/>
						</g>
						<path style="fill:none;stroke:#0B1011;stroke-width:2;stroke-linecap:round;stroke-linejoin:round;stroke-miterlimit:10;" d="
							M270.474,229.617c0,0-4.171-7.683-7.024-8.341c-2.854-0.659-10.976,9.329-10.976,9.329s5.817,13.829,8.451,13.61
							C263.56,243.995,270.474,229.617,270.474,229.617z"/>
						<path style="fill:none;stroke:#0B1011;stroke-width:2;stroke-linecap:round;stroke-linejoin:round;stroke-miterlimit:10;" d="
							M270.474,229.617c0,0,6.366-9.549,8.341-8.232c1.976,1.317,8.561,7.463,8.561,7.463l-8.341,29.415
							C279.035,258.264,270.804,236.313,270.474,229.617z"/>
						<path style="fill:none;stroke:#0B1011;stroke-width:2;stroke-linecap:round;stroke-linejoin:round;stroke-miterlimit:10;" d="
							M287.377,228.849c0,0,5.817-9.768,10.207-6.585c4.39,3.183,7.463,5.817,7.463,5.817s-3.402,12.732-7.573,13.719
							C293.304,242.788,287.377,228.849,287.377,228.849z"/>
						<path style="fill:none;stroke:#0B1011;stroke-width:2;stroke-linecap:round;stroke-linejoin:round;stroke-miterlimit:10;" d="
							M305.377,227.203c0,0,5.159-7.244,7.024-6.805c1.866,0.439,8.671,2.415,9,3.512c0.329,1.098-0.22,19.976-0.22,19.976
							s-4.061,4.939-6.805,3.402c-2.744-1.537-11.415-13.171-11.415-13.171L305.377,227.203z"/>
						<path style="fill:none;stroke:#0B1011;stroke-width:2;stroke-linecap:round;stroke-linejoin:round;stroke-miterlimit:10;" d="
							M321.072,223.471c0,0,5.927-5.927,6.256-5.927c0.329,0,3.402-1.098,5.817,2.854c2.415,3.951,6.366,17.451,2.085,22.829
							l-6.695,1.976l-7.024-9.768L321.072,223.471z"/>
						<path style="fill:none;stroke:#0B1011;stroke-width:2;stroke-linecap:round;stroke-linejoin:round;stroke-miterlimit:10;" d="
							M331.389,218.313c0,0,5.268-4.171,6.915-1.536c1.646,2.634,6.476,14.817,6.476,14.817l-7.354,6.146
							C337.425,237.739,337.425,223.361,331.389,218.313z"/>
						<path style="fill:none;stroke:#0B1011;stroke-width:2;stroke-linecap:round;stroke-linejoin:round;stroke-miterlimit:10;" d="
							M338.304,216.776c0,0,7.244-3.842,9.768-1.207c2.524,2.634,4.72,7.683,4.72,7.683s2.963,26.561,1.317,29.195
							c-1.646,2.634-11.415-19.098-11.415-19.098l1.976-2.305L338.304,216.776z"/>
						
							<polygon style="fill:none;stroke:#0B1011;stroke-width:2;stroke-linecap:round;stroke-linejoin:round;stroke-miterlimit:10;" points="
							298.198,263.466 293.001,251.266 296.503,242.341 303.507,234.66 308.703,242.567 308.929,252.282 						"/>
						
							<polygon style="fill:none;stroke:#0B1011;stroke-width:2;stroke-linecap:round;stroke-linejoin:round;stroke-miterlimit:10;" points="
							306.753,255.945 316.169,265.606 321.673,253.376 320.083,245.182 315.436,247.384 312.011,245.06 308.709,250.197 
							308.929,252.282 						"/>
						
							<polygon style="fill:none;stroke:#0B1011;stroke-width:2;stroke-linecap:round;stroke-linejoin:round;stroke-miterlimit:10;" points="
							328.096,260.569 322.169,251.13 326.779,242.239 328.535,245.203 333.035,243.447 334.352,252.337 						"/>
						<path style="fill:none;stroke:#0B1011;stroke-width:2;stroke-linecap:round;stroke-linejoin:round;stroke-miterlimit:10;" d="
							M335.872,259.344c-0.134-0.267-1.671-6.75-1.671-6.75l-1.136-8.688l2.165-0.679c0,0,1.845-3.798,2.045-5.937l1.27-0.936
							l3.943,5.012l-3.341,14.301L335.872,259.344z"/>
						<path style="fill:none;stroke:#0B1011;stroke-width:2;stroke-linecap:round;stroke-linejoin:round;stroke-miterlimit:10;" d="
							M286.419,268.9c-0.201-0.134-7.618-10.425-7.618-10.425l9.757-19.714l4.878,12.43c0,0,1.604,6.282,1.403,6.482
							S286.419,268.9,286.419,268.9z"/>
						
							<polygon style="fill:none;stroke:#0B1011;stroke-width:2;stroke-linecap:round;stroke-linejoin:round;stroke-miterlimit:10;" points="
							276.596,251.191 268.443,257.673 264.032,249.921 263.431,246.312 269.846,237.357 271.985,238.092 						"/>
						<path style="fill:none;stroke:#0B1011;stroke-width:2;stroke-linecap:round;stroke-linejoin:round;stroke-miterlimit:10;" d="
							M257.817,241.367l-6.148,8.287l-3.676-7.284c0,0,5.48-10.358,5.48-10.158S257.817,241.367,257.817,241.367z"/>
						<g>
							<path style="fill:#0B1011;" d="M209.938,182.128c4.249,1.799,8.614,3.286,13.014,4.699c4.4,1.412,8.798,2.911,13.074,4.722
								c0.255,0.107,0.375,0.4,0.268,0.654c-0.107,0.255-0.4,0.375-0.654,0.268c-0.002-0.001-0.008-0.003-0.01-0.004
								c-4.208-1.869-8.543-3.432-12.918-4.922c-4.375-1.489-8.744-3.064-12.978-4.945c-0.13-0.057-0.189-0.209-0.132-0.339
								C209.658,182.133,209.809,182.074,209.938,182.128z"/>
						</g>
						<g>
							<path style="fill:#0B1011;" d="M288.639,108.518c-0.706-4.487-1.634-8.943-2.995-13.268
								c-1.371-4.312-3.148-8.521-5.557-12.334c-2.372-3.842-5.766-6.926-9.649-9.207c-3.87-2.318-8.103-3.983-12.338-5.633
								c-0.258-0.1-0.385-0.389-0.286-0.647c0.1-0.257,0.389-0.385,0.647-0.286l0.005,0.002c4.224,1.69,8.492,3.408,12.427,5.811
								c3.941,2.355,7.447,5.602,9.834,9.554c2.423,3.914,4.177,8.183,5.524,12.55c1.335,4.377,2.227,8.868,2.896,13.379
								c0.021,0.141-0.076,0.272-0.217,0.292C288.792,108.754,288.661,108.657,288.639,108.518z"/>
						</g>
						<path style="fill:none;stroke:#0B1011;stroke-width:2;stroke-linecap:round;stroke-linejoin:round;stroke-miterlimit:10;" d="
							M253.909,247.702c1.384,0.136,2.768,0.272,4.152,0.408c0.498,0.049,1.002,0.099,1.469,0.279
							c0.482,0.186,0.901,0.502,1.308,0.819c1.711,1.335,3.34,2.776,4.873,4.312"/>
						<g>
							<path style="fill:#0B1011;" d="M321.577,171.66c0.225,6.203,3.436,12.194,8.396,15.795c0.224,0.162,0.273,0.475,0.111,0.698
								c-0.162,0.223-0.475,0.273-0.698,0.111c-0.003-0.002-0.008-0.006-0.011-0.008c-5.117-3.927-8.242-10.213-8.312-16.584
								c-0.002-0.142,0.112-0.259,0.255-0.26C321.457,171.41,321.572,171.521,321.577,171.66z"/>
						</g>
						<g>
							<path style="fill:#0B1011;" d="M244.989,202.665c4.52-9.027,3.142-20.751-3.449-28.535c-0.092-0.108-0.079-0.271,0.029-0.363
								c0.107-0.091,0.268-0.079,0.361,0.027c6.851,7.85,8.507,19.823,3.956,29.312c-0.119,0.249-0.418,0.354-0.667,0.235
								c-0.249-0.119-0.354-0.418-0.235-0.667C244.986,202.671,244.988,202.667,244.989,202.665z"/>
						</g>
						<g>
							<path style="fill:#0B1011;" d="M271.902,182.888c-0.734,2.016-1.109,4.16-1.093,6.299c0.007,1.077,0.058,2.135,0.695,2.905
								c0.623,0.779,1.517,1.474,2.309,2.2c3.26,2.862,6.694,5.52,10.277,7.957c0.228,0.155,0.288,0.466,0.132,0.695
								c-0.155,0.228-0.466,0.288-0.695,0.132c-0.002-0.001-0.006-0.004-0.008-0.005c-3.57-2.527-6.983-5.271-10.212-8.214
								c-0.793-0.76-1.634-1.415-2.363-2.349c-0.355-0.469-0.597-1.064-0.682-1.637c-0.094-0.578-0.092-1.134-0.09-1.686
								c0.025-2.215,0.454-4.419,1.248-6.478c0.051-0.133,0.2-0.199,0.333-0.148C271.884,182.609,271.95,182.756,271.902,182.888z"
								/>
						</g>
						<g>
							<path style="fill:#0B1011;" d="M326.186,196.729l-2.947,4.721c-0.146,0.234-0.455,0.306-0.69,0.16
								c-0.234-0.146-0.306-0.455-0.159-0.69c0.008-0.012,0.016-0.025,0.025-0.036l3.347-4.447c0.086-0.114,0.247-0.136,0.361-0.051
								C326.23,196.467,326.256,196.617,326.186,196.729z"/>
						</g>
						<g>
							<path style="fill:#0B1011;" d="M350.321,234.871c0.062-1.252-0.272-2.497-0.701-3.702c-0.438-1.212-0.927-2.413-1.457-3.59
								c-1.061-2.355-2.296-4.63-3.69-6.797c-0.15-0.232-0.083-0.542,0.15-0.691c0.232-0.15,0.542-0.083,0.691,0.15
								c0.002,0.004,0.006,0.01,0.008,0.014c1.352,2.253,2.535,4.603,3.537,7.025c0.501,1.212,0.956,2.438,1.364,3.687
								c0.401,1.248,0.721,2.581,0.612,3.941c-0.011,0.142-0.135,0.247-0.277,0.236C350.418,235.13,350.314,235.009,350.321,234.871
								z"/>
						</g>
						<g>
							<path style="fill:#0B1011;" d="M330.441,232.007c-0.616-2.378-1.486-4.681-2.588-6.857c-0.125-0.246-0.026-0.548,0.22-0.672
								c0.247-0.125,0.548-0.026,0.672,0.22c0.005,0.009,0.01,0.021,0.014,0.03c0.986,2.31,1.718,4.717,2.184,7.167
								c0.026,0.14-0.065,0.275-0.205,0.301C330.605,232.221,330.475,232.137,330.441,232.007z"/>
						</g>
						<g>
							<path style="fill:#0B1011;" d="M314.855,233.43l-0.548-5.833c-0.026-0.275,0.176-0.519,0.451-0.545
								c0.275-0.026,0.519,0.176,0.545,0.451c0.001,0.014,0.002,0.028,0.002,0.041l0.063,5.858c0.001,0.142-0.113,0.259-0.255,0.261
								C314.98,233.665,314.868,233.561,314.855,233.43z"/>
						</g>
						<g>
							<path style="fill:#0B1011;" d="M296.374,231.815l-0.497-4.04l-0.006-0.048c-0.034-0.275,0.162-0.525,0.437-0.559
								c0.275-0.034,0.525,0.162,0.559,0.437c0.002,0.019,0.003,0.04,0.004,0.059l0.018,4.144c0.001,0.142-0.114,0.257-0.256,0.258
								c-0.132,0.001-0.241-0.098-0.256-0.225L296.374,231.815z"/>
						</g>
						<g>
							<path style="fill:#0B1011;" d="M278.009,233.13l-0.242-3.366c-0.02-0.276,0.188-0.516,0.464-0.536
								c0.276-0.02,0.516,0.188,0.536,0.464c0.002,0.023,0.001,0.049,0,0.072l-0.243,3.366c-0.01,0.142-0.134,0.249-0.276,0.239
								C278.119,233.359,278.018,233.256,278.009,233.13z"/>
						</g>
						<g>
							<path style="fill:#0B1011;" d="M260.196,231.333c0.143-1.208,0.455-2.407,0.928-3.552c0.105-0.256,0.397-0.38,0.653-0.275
								c0.256,0.105,0.379,0.397,0.275,0.653c-0.008,0.02-0.021,0.045-0.031,0.063c-0.578,0.991-1.026,2.072-1.319,3.204
								c-0.035,0.138-0.176,0.221-0.314,0.186C260.262,231.581,260.181,231.459,260.196,231.333z"/>
						</g>
						<g>
							<path style="fill:#0B1011;" d="M286.563,257.154c-0.074,1.6-0.036,3.2,0.111,4.784c0.025,0.275-0.177,0.519-0.452,0.545
								s-0.519-0.177-0.545-0.452c-0.001-0.017-0.002-0.034-0.002-0.051c0.013-1.637,0.139-3.267,0.376-4.876
								c0.021-0.141,0.152-0.238,0.293-0.217C286.475,256.906,286.569,257.023,286.563,257.154z"/>
						</g>
						<g>
							<path style="fill:#0B1011;" d="M300.536,250.764c-0.359,1.921-0.551,3.866-0.572,5.806c-0.003,0.276-0.23,0.498-0.506,0.495
								c-0.276-0.003-0.498-0.23-0.495-0.506c0-0.013,0.001-0.029,0.002-0.042c0.186-1.989,0.545-3.955,1.069-5.868
								c0.038-0.137,0.179-0.218,0.316-0.18C300.48,250.503,300.56,250.633,300.536,250.764z"/>
						</g>
						<g>
							<path style="fill:#0B1011;" d="M315.695,254.495l0.243,3.951c0.017,0.276-0.193,0.514-0.469,0.531
								c-0.276,0.017-0.514-0.193-0.531-0.469c-0.001-0.02-0.001-0.042,0-0.061l0.243-3.951c0.009-0.142,0.131-0.25,0.273-0.242
								C315.585,254.262,315.687,254.367,315.695,254.495z"/>
						</g>
						<g>
							<path style="fill:#0B1011;" d="M327.741,251.238c0.215,1.075,0.326,2.179,0.327,3.292c0.002,0.277-0.221,0.503-0.499,0.505
								c-0.277,0.002-0.503-0.222-0.504-0.499c0-0.024,0.002-0.054,0.005-0.077c0.155-1.036,0.209-2.095,0.159-3.157
								c-0.007-0.142,0.103-0.264,0.245-0.271C327.605,251.025,327.717,251.115,327.741,251.238z"/>
						</g>
						<g>
							<path style="fill:#0B1011;" d="M339.415,247.711c0.315,1.188,0.341,2.47,0.056,3.706c-0.06,0.27-0.327,0.441-0.598,0.381
								c-0.27-0.06-0.441-0.327-0.381-0.598c0.005-0.022,0.014-0.05,0.021-0.071c0.394-1.032,0.538-2.185,0.397-3.321
								c-0.018-0.141,0.082-0.271,0.223-0.289C339.262,247.504,339.382,247.588,339.415,247.711z"/>
						</g>
						<g>
							<path style="fill:#0B1011;" d="M269.727,248.447c-0.266,0.871-0.324,1.787-0.183,2.649c0.045,0.274-0.141,0.532-0.415,0.576
								c-0.274,0.045-0.532-0.141-0.576-0.415c-0.005-0.028-0.007-0.056-0.007-0.083l0-0.01c0.011-1.026,0.259-2.027,0.704-2.911
								c0.064-0.127,0.219-0.179,0.347-0.114C269.711,248.196,269.763,248.329,269.727,248.447z"/>
						</g>
						<g>
							<path style="fill:#0B1011;" d="M252.474,240.328c-0.05,1.236-0.274,2.476-0.671,3.672c-0.086,0.263-0.368,0.407-0.632,0.322
								c-0.263-0.086-0.407-0.369-0.322-0.632c0.007-0.021,0.017-0.045,0.026-0.064c0.511-1.049,0.88-2.181,1.086-3.352
								c0.024-0.14,0.158-0.234,0.298-0.21C252.389,240.085,252.479,240.2,252.474,240.328z"/>
						</g>
					</g>
					<path style="fill:none;stroke:#0B1011;stroke-width:2;stroke-linecap:round;stroke-linejoin:round;stroke-miterlimit:10;" d="
						M209.739,240.488l-87.219,63.805c0,0-6.146,4.976,5.854,8.781c12,3.805,80.78,31.902,80.78,31.902l-62.049,24.878
						c0,0-8.78,8.195-7.902,11.707c0.878,3.512,72.585,101.951,80.195,120.975h34.829c0,0,19.024-68,17.268-111.317
						s1.463-52.39-12.585-65.268c-14.049-12.878-57.366-33.073-60-41.561c-2.634-8.488,14.049-38.341,14.049-38.341L209.739,240.488
						z"/>
					<ellipse style="fill:#F7BE27;" cx="170.08" cy="377.463" rx="7.756" ry="6.732"/>
					<path style="fill:none;stroke:#0B1011;stroke-width:2;stroke-linecap:round;stroke-linejoin:round;stroke-miterlimit:10;" d="
						M411.048,364.797c0,3.718-3.472,6.732-7.756,6.732c-4.284,0-7.756-3.014-7.756-6.732c0-3.718,3.473-6.732,7.756-6.732
						C407.576,358.065,411.048,361.079,411.048,364.797z"/>
					
						<ellipse style="fill:none;stroke:#0B1011;stroke-width:2;stroke-linecap:round;stroke-linejoin:round;stroke-miterlimit:10;" cx="148.421" cy="302.244" rx="7.756" ry="6.732"/>
					
						<ellipse style="fill:none;stroke:#0B1011;stroke-width:2;stroke-linecap:round;stroke-linejoin:round;stroke-miterlimit:10;" cx="170" cy="377.309" rx="7.756" ry="6.732"/>
					
						<ellipse style="fill:none;stroke:#0B1011;stroke-width:2;stroke-linecap:round;stroke-linejoin:round;stroke-miterlimit:10;" cx="403.421" cy="319.688" rx="7.756" ry="6.732"/>
					<g>
						<path style="fill:#0B1011;" d="M145.394,374.466c0.023-0.064,0.062-0.129,0.106-0.181c0.06-0.054,0.189-0.101,0.251-0.093
							c0.056,0.006,0.115,0.019,0.168,0.038l0.095,0.053c0.119,0.074,0.197,0.147,0.275,0.222c0.157,0.149,0.287,0.303,0.419,0.458
							c0.259,0.311,0.498,0.629,0.734,0.95c0.468,0.643,0.915,1.297,1.355,1.955c0.879,1.316,1.729,2.649,2.571,3.986
							c1.681,2.675,3.326,5.372,4.96,8.075c3.265,5.407,6.483,10.84,9.693,16.278l19.201,32.659
							c6.41,10.88,12.841,21.747,19.392,32.538c3.279,5.394,6.586,10.77,9.976,16.091c1.697,2.659,3.412,5.305,5.179,7.914
							c1.774,2.597,3.563,5.208,5.57,7.583l0.007,0.008c0.178,0.211,0.152,0.526-0.059,0.705c-0.211,0.178-0.526,0.152-0.705-0.059
							l-0.001-0.001c-2.062-2.457-3.838-5.073-5.616-7.693c-1.765-2.626-3.476-5.284-5.168-7.953
							c-3.379-5.341-6.671-10.732-9.935-16.139c-6.521-10.819-12.918-21.709-19.294-32.61l-19.096-32.72
							c-3.192-5.447-6.392-10.89-9.638-16.304c-1.624-2.706-3.259-5.406-4.928-8.082c-0.836-1.337-1.68-2.669-2.55-3.981
							c-0.436-0.655-0.877-1.306-1.336-1.941c-0.231-0.316-0.465-0.629-0.71-0.926c-0.123-0.146-0.248-0.294-0.378-0.417
							c-0.062-0.063-0.133-0.122-0.182-0.152l-0.033-0.022c0.005,0.007,0.016,0.009,0.024,0.003c0.015,0.006,0.097-0.01,0.114-0.048
							c0.02-0.008,0.035-0.031,0.034-0.051c-0.039,0.137-0.182,0.216-0.318,0.176C145.433,374.745,145.354,374.602,145.394,374.466z
							"/>
					</g>
					<path style="fill:none;stroke:#0B1011;stroke-width:2;stroke-linecap:round;stroke-linejoin:round;stroke-miterlimit:10;" d="
						M318.909,502.53l24,0.293l89.268-133.555c0,0-3.805-9.073-8.195-10.537l-60-23.707l75.22-8.488c0,0-99.805-60-102.146-63.805
						l-2.634,16.976c0,0-2.049,7.902-8.78,7.61l-11.415,2.049l2.927,24c0,0,5.268,53.854,4.683,64.976
						C321.251,389.463,323.592,475.604,318.909,502.53z"/>
					<g>
						<path style="fill:#0B1011;" d="M425.425,360.012l-88.009,140.51c-0.147,0.234-0.455,0.305-0.689,0.158
							c-0.234-0.147-0.305-0.455-0.158-0.689l0.001-0.001l88.42-140.251c0.076-0.12,0.235-0.156,0.355-0.081
							C425.465,359.733,425.501,359.892,425.425,360.012z"/>
					</g>
					<path style="fill:none;stroke:#0B1011;stroke-width:2;stroke-linecap:round;stroke-linejoin:round;stroke-miterlimit:10;" d="
						M374.649,455.497c0,0-1.008,12.406-2.179,19.43c-1.171,7.024-0.585,27.22-0.585,27.22"/>
					
						<polyline style="fill:none;stroke:#0B1011;stroke-width:2;stroke-linecap:round;stroke-linejoin:round;stroke-miterlimit:10;" points="
						317.007,321.268 293.446,330.049 246.617,316.878 					"/>
					<path style="fill:none;stroke:#0B1011;stroke-width:2;stroke-linecap:round;stroke-linejoin:round;stroke-miterlimit:10;" d="
						M314.958,296.537c0.439,0.146-20.769,11.515-20.769,11.515l-71.401-27.315l-3.756,19.239"/>
					
						<polyline style="fill:none;stroke:#0B1011;stroke-width:2;stroke-linecap:round;stroke-linejoin:round;stroke-miterlimit:10;" points="
						314.466,291.829 294.189,300.842 226.056,272.317 228.47,259.366 					"/>
					
						<line style="fill:none;stroke:#0B1011;stroke-width:2;stroke-linecap:round;stroke-linejoin:round;stroke-miterlimit:10;" x1="310.275" y1="340.439" x2="308.519" y2="324.341"/>
					
						<line style="fill:none;stroke:#0B1011;stroke-width:2;stroke-linecap:round;stroke-linejoin:round;stroke-miterlimit:10;" x1="270.47" y1="352.439" x2="266.958" y2="322.732"/>
					
						<line style="fill:none;stroke:#0B1011;stroke-width:2;stroke-linecap:round;stroke-linejoin:round;stroke-miterlimit:10;" x1="306.324" y1="301.073" x2="306.178" y2="295.512"/>
					
						<line style="fill:none;stroke:#0B1011;stroke-width:2;stroke-linecap:round;stroke-linejoin:round;stroke-miterlimit:10;" x1="265.787" y1="296.683" x2="265.934" y2="288.927"/>
					<path style="fill:none;stroke:#0B1011;stroke-width:2;stroke-linecap:round;stroke-linejoin:round;stroke-miterlimit:10;" d="
						M219.102,141.41c0,18.66-8.37,33.98-19.07,35.7c-0.66,0.11-1.32,0.16-2,0.16c-11.64,0-21.07-16.05-21.07-35.86
						c0-10.06,2.43-19.15,6.36-25.66c3.79-6.31,8.98-10.19,14.71-10.19C209.672,105.56,219.102,121.61,219.102,141.41z"/>
					<ellipse style="fill:none;stroke:#0B1011;stroke-miterlimit:10;" cx="196.641" cy="141.049" rx="14.854" ry="30.951"/>
					<path style="fill:none;stroke:#0B1011;stroke-miterlimit:10;" d="M199.824,140.5c0,5.092-1.72,9.219-3.842,9.219
						s-3.841-4.128-3.841-9.219s1.72-9.219,3.841-9.219S199.824,135.408,199.824,140.5z"/>
					<line style="fill:none;stroke:#0B1011;stroke-miterlimit:10;" x1="197.245" y1="109.988" x2="207.562" y2="109.933"/>
					<line style="fill:none;stroke:#0B1011;stroke-miterlimit:10;" x1="197.354" y1="171.945" x2="208.879" y2="171.945"/>
					<path style="fill:none;stroke:#0B1011;stroke-width:2;stroke-linecap:round;stroke-linejoin:round;stroke-miterlimit:10;" d="
						M338.172,139.84c0,9.24-6.31,17.02-14.86,19.23c-8.55-2.21-14.87-9.99-14.87-19.23c0-9.24,6.32-17.01,14.87-19.23
						C331.862,122.83,338.172,130.6,338.172,139.84z"/>
					<path style="fill:none;stroke:#0B1011;stroke-width:2;stroke-linecap:round;stroke-linejoin:round;stroke-miterlimit:10;" d="
						M348.182,139.84c0,10.97-8.9,19.87-19.87,19.87c-1.73,0-3.4-0.22-5-0.64c-8.55-2.21-14.87-9.99-14.87-19.23
						c0-9.24,6.32-17.01,14.87-19.23c1.6-0.41,3.27-0.63,5-0.63C339.282,119.98,348.182,128.87,348.182,139.84z"/>
					
						<circle style="fill:none;stroke:#0B1011;stroke-width:2;stroke-linecap:round;stroke-linejoin:round;stroke-miterlimit:10;" cx="320.812" cy="138.781" r="26.341"/>
					<g>
						<path style="fill:#0B1011;" d="M297.413,162.642l-3.21-4.605c-0.524-0.773-1.097-1.508-1.574-2.388
							c-0.485-0.888-0.702-1.888-0.832-2.826c-0.477-3.732-0.848-7.453-1.154-11.191c-0.6-7.471-0.864-14.968-0.801-22.459
							c0.001-0.142,0.117-0.257,0.26-0.255c0.141,0.001,0.255,0.116,0.255,0.257c0.018,7.476,0.363,14.95,1.041,22.393
							c0.344,3.717,0.758,7.442,1.269,11.128c0.137,0.908,0.338,1.766,0.763,2.523c0.422,0.765,1.006,1.51,1.541,2.277l3.259,4.57
							c0.16,0.225,0.108,0.537-0.117,0.697c-0.225,0.16-0.537,0.108-0.698-0.117L297.413,162.642z"/>
					</g>
					<path style="fill:none;stroke:#0B1011;stroke-width:2;stroke-linecap:round;stroke-linejoin:round;stroke-miterlimit:10;" d="
						M304.568,74.098c0,0,16.098,15.951,6.878,27.512c-9.22,11.561-22.976,20.195-44.634,10.829
						c-21.659-9.366-12.146-24.732-50.927-39.073"/>
					<path style="fill:none;stroke:#0B1011;stroke-width:2;stroke-linecap:round;stroke-linejoin:round;stroke-miterlimit:10;" d="
						M210.909,112.878c0,0,8.049-15.073,13.61-17.268c0,0-8.049-11.707-20.781-13.61"/>
					
						<polyline style="fill:none;stroke:#0B1011;stroke-width:2;stroke-linecap:round;stroke-linejoin:round;stroke-miterlimit:10;" points="
						213.543,191.317 229.641,194.829 225.251,227.171 210.031,224.829 					"/>
					<path style="fill:none;stroke:#0B1011;stroke-width:2;stroke-linecap:round;stroke-linejoin:round;stroke-miterlimit:10;" d="
						M289.348,287.317c0,0,7.317-9.22,6.878-16.39c0,0,24.293-6.146,29.707,1.463c0,0,0.439,9.512-2.634,15.512"/>
					
						<polyline style="fill:none;stroke:#0B1011;stroke-width:2;stroke-linecap:round;stroke-linejoin:round;stroke-miterlimit:10;" points="
						439.202,326.537 438.324,334.146 365.446,335.61 					"/>
					
						<polyline style="fill:none;stroke:#0B1011;stroke-width:2;stroke-linecap:round;stroke-linejoin:round;stroke-miterlimit:10;" points="
						121.269,307.117 120.626,318.376 207.801,345.075 					"/>
					<polygon style="fill:#0B1011;" points="205.67,478.26 186.713,449.66 185.405,483.816 218.254,499.995 					"/>
					<polygon style="fill:#0B1011;" points="185.678,354.026 196.637,341.427 209.323,345.31 					"/>
					<path style="fill:#0B1011;" d="M245.795,179.849c0,0-6.729,13.512-10.113,12.744l9.951,8.195
						C245.633,200.788,250.869,193.042,245.795,179.849z"/>
					<path style="fill:#0B1011;" d="M328.352,287.14c-0.26,0.16-4.68,2.94-10.83,5.54c-3.29,1.4-7.06,2.74-10.96,3.61
						c-4.58,1.01-9.32,1.37-13.61,0.37c-13.8-3.21-58.47-32.9-65.36-37.52c6.12,4.01,42.08,26.98,65.82,29.05
						c5.79,0.51,10.74,0.73,14.93,0.78c0.53,0.01,1.04,0.01,1.54,0.01C322.932,289,328.042,287.24,328.352,287.14z"/>
					
						<line style="fill:none;stroke:#0B1011;stroke-width:2;stroke-linecap:round;stroke-linejoin:round;stroke-miterlimit:10;" x1="222.788" y1="280.736" x2="265.897" y2="292.402"/>
					<ellipse style="fill:#D94328;" cx="260.519" cy="140.244" rx="8.634" ry="9.219"/>
				</g>
				<path style="fill:#FFFFFF;" d="M267.333,139.327c0,2.987-2.142,5.408-4.784,5.408c-2.642,0-4.784-2.421-4.784-5.408
					c0-2.987,2.142-5.408,4.784-5.408C265.191,133.919,267.333,136.34,267.333,139.327z"/>
				<path style="fill:#FFFFFF;" d="M258.487,134.662c0,0.753-0.54,1.364-1.206,1.364c-0.666,0-1.206-0.611-1.206-1.364
					s0.54-1.364,1.206-1.364C257.947,133.298,258.487,133.909,258.487,134.662z"/>
				<ellipse style="fill:#FFFFFF;" cx="323.574" cy="140.006" rx="9.188" ry="9.661"/>
				<path style="fill:#FFFFFF;" d="M317.299,130.943c0,1.076-0.83,1.949-1.853,1.949c-1.023,0-1.853-0.873-1.853-1.949
					c0-1.076,0.83-1.949,1.853-1.949C316.47,128.995,317.299,129.867,317.299,130.943z"/>
				<g>
					<path style="fill:#0B1011;" d="M282.435,154.356l-8.614-2.447c-0.266-0.076-0.42-0.352-0.344-0.618s0.352-0.42,0.618-0.344
						c0.008,0.002,0.018,0.005,0.026,0.008l8.469,2.91c0.135,0.046,0.206,0.193,0.16,0.327
						C282.704,154.322,282.565,154.393,282.435,154.356z"/>
				</g>
				<g>
					<path style="fill:#0B1011;" d="M316.472,309.108l-23.138,8.397c-0.074,0.027-0.153,0.023-0.221-0.002l-71.627-27.267
						c-0.258-0.098-0.388-0.387-0.289-0.645c0.098-0.258,0.387-0.388,0.645-0.289l0.002,0.001l71.495,27.61l-0.22-0.002
						l23.178-8.286c0.134-0.048,0.281,0.022,0.329,0.156C316.675,308.913,316.606,309.06,316.472,309.108z"/>
				</g>
				<g>
					<path style="fill:#0B1011;" d="M385.291,377.86l-48.949,111.903c-0.111,0.253-0.405,0.368-0.659,0.258
						c-0.253-0.111-0.368-0.405-0.258-0.658l0.001-0.002l49.393-111.707c0.057-0.13,0.209-0.189,0.34-0.131
						C385.29,377.579,385.349,377.73,385.291,377.86z"/>
				</g>
				<g>
					<path style="fill:#0B1011;" d="M320.92,295.473c2.477,16.436,4.453,32.938,6.125,49.471
						c1.653,16.535,2.951,33.108,3.746,49.709c0.786,16.6,1.103,33.234,0.537,49.854c-0.258,8.31-0.798,16.614-1.654,24.89
						c-0.863,8.273-2.04,16.525-3.839,24.664c-0.06,0.27-0.326,0.44-0.596,0.38c-0.27-0.06-0.44-0.326-0.38-0.596l0.001-0.003
						c1.807-8.083,3-16.3,3.88-24.544c0.872-8.246,1.432-16.529,1.71-24.823c0.605-16.587,0.329-33.202-0.416-49.788
						c-0.754-16.588-2.011-33.153-3.623-49.682c-1.63-16.526-3.566-33.03-6.001-49.454c-0.023-0.14,0.073-0.273,0.213-0.295
						C320.765,295.234,320.897,295.332,320.92,295.473z"/>
				</g>
				<g>
					<path style="fill:#0B1011;" d="M247.097,499.894c2.921-13.164,5.438-26.424,7.685-39.722
						c2.233-13.302,4.158-26.657,5.618-40.063c1.447-13.404,2.468-26.867,2.554-40.344c0.043-6.736-0.179-13.476-0.809-20.175
						c-0.66-6.688-1.721-13.37-3.781-19.751l-0.019-0.088c-0.056-0.258-0.234-0.668-0.394-1.006
						c-0.176-0.35-0.384-0.695-0.573-1.043c-0.445-0.67-0.856-1.361-1.362-1.998c-0.949-1.312-2.014-2.547-3.075-3.779
						c-1.102-1.201-2.178-2.426-3.342-3.573c-1.138-1.171-2.285-2.332-3.481-3.447c-2.337-2.284-4.795-4.444-7.222-6.634
						c-2.493-2.118-4.93-4.3-7.479-6.354c-2.524-2.083-5.045-4.168-7.628-6.18c-2.564-2.035-5.126-4.07-7.742-6.04
						c-5.176-4.008-10.462-7.874-15.724-11.771l-0.006-0.004c-0.222-0.164-0.269-0.478-0.104-0.699
						c0.164-0.222,0.477-0.269,0.699-0.104l0.001,0.001c5.26,3.913,10.543,7.793,15.719,11.819c2.614,1.978,5.178,4.022,7.741,6.066
						c2.582,2.02,5.106,4.115,7.63,6.208c2.549,2.063,4.991,4.257,7.486,6.386c2.432,2.203,4.893,4.375,7.238,6.676
						c1.199,1.122,2.351,2.293,3.494,3.474c1.168,1.156,2.253,2.396,3.363,3.61c1.072,1.251,2.147,2.501,3.116,3.846
						c0.512,0.648,0.942,1.369,1.4,2.064c0.406,0.764,0.851,1.389,1.078,2.398l-0.018-0.087c2.075,6.478,3.128,13.209,3.778,19.936
						c0.619,6.737,0.828,13.501,0.772,20.256c-0.113,13.514-1.163,26.995-2.638,40.413c-1.489,13.419-3.443,26.782-5.703,40.089
						c-2.275,13.305-4.819,26.562-7.77,39.738c-0.031,0.139-0.169,0.226-0.308,0.195
						C247.153,500.173,247.066,500.032,247.097,499.894z"/>
				</g>
				<g>
					<path style="fill:#0B1011;" d="M267.275,440.757c2.65-0.676,5.092-2.074,7.457-3.565l7.114-4.54
						c0.12-0.077,0.279-0.042,0.356,0.078c0.075,0.118,0.042,0.274-0.072,0.352l-6.985,4.746c-2.337,1.566-4.803,3.089-7.609,3.895
						c-0.266,0.076-0.543-0.077-0.619-0.343c-0.076-0.266,0.077-0.542,0.343-0.619C267.264,440.76,267.271,440.758,267.275,440.757z
						"/>
				</g>
				<g>
					<path style="fill:#0B1011;" d="M318.199,426.319c1.226,0.563,2.395,1.271,3.475,2.11c0.219,0.169,0.26,0.483,0.091,0.703
						c-0.169,0.219-0.483,0.26-0.703,0.091c-0.016-0.012-0.033-0.028-0.047-0.041c-0.916-0.91-1.944-1.721-3.059-2.408
						c-0.121-0.074-0.159-0.233-0.085-0.355C317.941,426.306,318.083,426.265,318.199,426.319z"/>
				</g>
				<g>
					<path style="fill:#D8DAD9;" d="M190.938,284.856c0,3.453-4.625,6.252-10.33,6.252c-5.705,0-10.33-2.799-10.33-6.252
						c0-3.453,9.325-22.277,10.33-22.277C181.88,262.58,190.938,281.403,190.938,284.856z"/>
					<path style="fill:none;stroke:#0B1011;stroke-width:2;stroke-linecap:round;stroke-linejoin:round;stroke-miterlimit:10;" d="
						M190.938,284.856c0,3.453-4.625,6.252-10.33,6.252c-5.705,0-10.33-2.799-10.33-6.252c0-3.453,9.325-22.277,10.33-22.277
						C181.88,262.58,190.938,281.403,190.938,284.856z"/>
					<g>
						<path style="fill:#0B1011;" d="M181.347,262.58l-1.048,28.617c-0.005,0.142-0.125,0.253-0.267,0.248
							c-0.141-0.005-0.251-0.122-0.248-0.263l0.562-28.602l0.001-0.028c0.005-0.276,0.234-0.496,0.51-0.49
							c0.276,0.005,0.496,0.234,0.49,0.51C181.347,262.573,181.347,262.578,181.347,262.58z"/>
					</g>
				</g>
				<g>
					<path style="fill:#D8DAD9;" d="M196.927,319.393c0,3.453-4.625,6.252-10.33,6.252c-5.705,0-10.33-2.799-10.33-6.252
						s9.325-22.277,10.33-22.277C187.869,297.116,196.927,315.94,196.927,319.393z"/>
					<path style="fill:none;stroke:#0B1011;stroke-width:2;stroke-linecap:round;stroke-linejoin:round;stroke-miterlimit:10;" d="
						M196.927,319.393c0,3.453-4.625,6.252-10.33,6.252c-5.705,0-10.33-2.799-10.33-6.252s9.325-22.277,10.33-22.277
						C187.869,297.116,196.927,315.94,196.927,319.393z"/>
					<g>
						<path style="fill:#0B1011;" d="M187.336,297.116l-1.048,28.617c-0.005,0.142-0.125,0.253-0.267,0.248
							c-0.141-0.005-0.251-0.122-0.248-0.263l0.562-28.602l0.001-0.028c0.005-0.276,0.234-0.495,0.51-0.49
							c0.276,0.005,0.495,0.234,0.49,0.51C187.336,297.11,187.336,297.114,187.336,297.116z"/>
					</g>
				</g>
				<g>
					<path style="fill:#D8DAD9;" d="M231.964,327.808c0,3.453-4.625,6.252-10.33,6.252c-5.705,0-10.33-2.799-10.33-6.252
						c0-3.453,9.325-22.277,10.33-22.277C222.906,305.531,231.964,324.355,231.964,327.808z"/>
					<path style="fill:none;stroke:#0B1011;stroke-width:2;stroke-linecap:round;stroke-linejoin:round;stroke-miterlimit:10;" d="
						M231.964,327.808c0,3.453-4.625,6.252-10.33,6.252c-5.705,0-10.33-2.799-10.33-6.252c0-3.453,9.325-22.277,10.33-22.277
						C222.906,305.531,231.964,324.355,231.964,327.808z"/>
					<g>
						<path style="fill:#0B1011;" d="M222.374,305.531l-1.048,28.617c-0.005,0.142-0.125,0.253-0.267,0.248
							c-0.141-0.005-0.251-0.122-0.248-0.262l0.562-28.603l0.001-0.028c0.005-0.276,0.234-0.496,0.51-0.49
							c0.276,0.005,0.495,0.234,0.49,0.51C222.374,305.525,222.374,305.529,222.374,305.531z"/>
					</g>
				</g>
				<g>
					<path style="fill:#D8DAD9;" d="M216.373,375.639c0,3.453-4.625,6.252-10.33,6.252c-5.705,0-10.33-2.799-10.33-6.252
						c0-3.453,9.325-22.277,10.33-22.277C207.316,353.362,216.373,372.186,216.373,375.639z"/>
					<path style="fill:none;stroke:#0B1011;stroke-width:2;stroke-linecap:round;stroke-linejoin:round;stroke-miterlimit:10;" d="
						M216.373,375.639c0,3.453-4.625,6.252-10.33,6.252c-5.705,0-10.33-2.799-10.33-6.252c0-3.453,9.325-22.277,10.33-22.277
						C207.316,353.362,216.373,372.186,216.373,375.639z"/>
					<g>
						<path style="fill:#0B1011;" d="M206.783,353.362l-1.048,28.617c-0.005,0.142-0.125,0.253-0.267,0.248
							c-0.141-0.005-0.251-0.122-0.248-0.263l0.562-28.603l0.001-0.028c0.005-0.276,0.234-0.495,0.51-0.49
							c0.276,0.005,0.495,0.234,0.49,0.51C206.783,353.356,206.783,353.36,206.783,353.362z"/>
					</g>
				</g>
				<g>
					<path style="fill:#D8DAD9;" d="M252.114,359.451c0,3.453-4.625,6.252-10.33,6.252s-10.33-2.799-10.33-6.252
						s9.325-22.277,10.33-22.277C243.057,337.174,252.114,355.998,252.114,359.451z"/>
					<path style="fill:none;stroke:#0B1011;stroke-width:2;stroke-linecap:round;stroke-linejoin:round;stroke-miterlimit:10;" d="
						M252.114,359.451c0,3.453-4.625,6.252-10.33,6.252s-10.33-2.799-10.33-6.252s9.325-22.277,10.33-22.277
						C243.057,337.174,252.114,355.998,252.114,359.451z"/>
					<g>
						<path style="fill:#0B1011;" d="M242.524,337.174l-1.048,28.617c-0.005,0.142-0.125,0.253-0.267,0.248
							c-0.14-0.005-0.251-0.122-0.248-0.263l0.562-28.602l0.001-0.028c0.005-0.276,0.234-0.495,0.51-0.49
							c0.276,0.005,0.495,0.234,0.49,0.51C242.524,337.168,242.524,337.172,242.524,337.174z"/>
					</g>
				</g>
				<g>
					<path style="fill:#D8DAD9;" d="M245.597,406.247c0,3.453-4.625,6.252-10.33,6.252c-5.705,0-10.33-2.799-10.33-6.252
						s9.325-22.277,10.33-22.277C236.539,383.97,245.597,402.794,245.597,406.247z"/>
					<path style="fill:none;stroke:#0B1011;stroke-width:2;stroke-linecap:round;stroke-linejoin:round;stroke-miterlimit:10;" d="
						M245.597,406.247c0,3.453-4.625,6.252-10.33,6.252c-5.705,0-10.33-2.799-10.33-6.252s9.325-22.277,10.33-22.277
						C236.539,383.97,245.597,402.794,245.597,406.247z"/>
					<g>
						<path style="fill:#0B1011;" d="M236.006,383.97l-1.048,28.617c-0.005,0.142-0.125,0.253-0.267,0.248
							c-0.141-0.005-0.251-0.122-0.248-0.262l0.562-28.603l0-0.028c0.006-0.276,0.234-0.495,0.51-0.49
							c0.276,0.005,0.495,0.234,0.49,0.51C236.006,383.964,236.006,383.968,236.006,383.97z"/>
					</g>
				</g>
				<g>
					<path style="fill:#D8DAD9;" d="M211.06,424.269c0,3.453-4.625,6.252-10.33,6.252c-5.705,0-10.33-2.799-10.33-6.252
						c0-3.453,9.325-22.277,10.33-22.277C202.002,401.993,211.06,420.816,211.06,424.269z"/>
					<path style="fill:none;stroke:#0B1011;stroke-width:2;stroke-linecap:round;stroke-linejoin:round;stroke-miterlimit:10;" d="
						M211.06,424.269c0,3.453-4.625,6.252-10.33,6.252c-5.705,0-10.33-2.799-10.33-6.252c0-3.453,9.325-22.277,10.33-22.277
						C202.002,401.993,211.06,420.816,211.06,424.269z"/>
					<g>
						<path style="fill:#0B1011;" d="M201.469,401.993l-1.048,28.617c-0.005,0.142-0.125,0.253-0.267,0.248
							c-0.141-0.005-0.251-0.123-0.248-0.263l0.562-28.602l0-0.028c0.006-0.276,0.234-0.495,0.51-0.49
							c0.276,0.005,0.495,0.234,0.49,0.51C201.47,401.986,201.469,401.991,201.469,401.993z"/>
					</g>
				</g>
				<g>
					<path style="fill:#D8DAD9;" d="M354.9,296.952c0,3.453-4.625,6.252-10.33,6.252c-5.705,0-10.33-2.799-10.33-6.252
						c0-3.453,9.325-22.277,10.33-22.277C345.842,274.676,354.9,293.499,354.9,296.952z"/>
					<path style="fill:none;stroke:#0B1011;stroke-width:2;stroke-linecap:round;stroke-linejoin:round;stroke-miterlimit:10;" d="
						M354.9,296.952c0,3.453-4.625,6.252-10.33,6.252c-5.705,0-10.33-2.799-10.33-6.252c0-3.453,9.325-22.277,10.33-22.277
						C345.842,274.676,354.9,293.499,354.9,296.952z"/>
					<g>
						<path style="fill:#0B1011;" d="M345.31,274.676l-1.048,28.617c-0.005,0.142-0.125,0.253-0.267,0.248
							c-0.141-0.005-0.251-0.122-0.248-0.263l0.562-28.602l0.001-0.028c0.005-0.276,0.234-0.496,0.51-0.49
							c0.276,0.005,0.495,0.234,0.49,0.51C345.31,274.669,345.31,274.673,345.31,274.676z"/>
					</g>
				</g>
				<g>
					<path style="fill:#D8DAD9;" d="M386.645,314.513c0,3.453-4.625,6.252-10.33,6.252s-10.33-2.799-10.33-6.252
						c0-3.453,9.325-22.277,10.33-22.277C377.587,292.237,386.645,311.06,386.645,314.513z"/>
					<path style="fill:none;stroke:#0B1011;stroke-width:2;stroke-linecap:round;stroke-linejoin:round;stroke-miterlimit:10;" d="
						M386.645,314.513c0,3.453-4.625,6.252-10.33,6.252s-10.33-2.799-10.33-6.252c0-3.453,9.325-22.277,10.33-22.277
						C377.587,292.237,386.645,311.06,386.645,314.513z"/>
					<g>
						<path style="fill:#0B1011;" d="M377.054,292.237l-1.047,28.617c-0.005,0.142-0.125,0.253-0.267,0.248
							c-0.141-0.005-0.251-0.122-0.248-0.263l0.562-28.602l0.001-0.028c0.005-0.276,0.234-0.495,0.51-0.49
							c0.276,0.005,0.496,0.234,0.49,0.51C377.055,292.23,377.055,292.234,377.054,292.237z"/>
					</g>
				</g>
				<g>
					<path style="fill:#D8DAD9;" d="M355.829,339.026c0,3.453-4.625,6.252-10.33,6.252c-5.705,0-10.33-2.799-10.33-6.252
						c0-3.453,9.325-22.277,10.33-22.277C346.771,316.749,355.829,335.572,355.829,339.026z"/>
					<path style="fill:none;stroke:#0B1011;stroke-width:2;stroke-linecap:round;stroke-linejoin:round;stroke-miterlimit:10;" d="
						M355.829,339.026c0,3.453-4.625,6.252-10.33,6.252c-5.705,0-10.33-2.799-10.33-6.252c0-3.453,9.325-22.277,10.33-22.277
						C346.771,316.749,355.829,335.572,355.829,339.026z"/>
					<g>
						<path style="fill:#0B1011;" d="M346.238,316.749l-1.048,28.617c-0.005,0.142-0.125,0.253-0.267,0.248
							c-0.141-0.005-0.251-0.122-0.248-0.263l0.562-28.602l0.001-0.028c0.005-0.276,0.234-0.495,0.51-0.49
							c0.276,0.006,0.495,0.234,0.49,0.51C346.239,316.742,346.238,316.747,346.238,316.749z"/>
					</g>
				</g>
				<g>
					<path style="fill:#D8DAD9;" d="M361.311,391.247c0,3.453-4.625,6.252-10.33,6.252s-10.33-2.799-10.33-6.252
						c0-3.453,9.325-22.277,10.33-22.277C352.253,368.97,361.311,387.794,361.311,391.247z"/>
					<path style="fill:none;stroke:#0B1011;stroke-width:2;stroke-linecap:round;stroke-linejoin:round;stroke-miterlimit:10;" d="
						M361.311,391.247c0,3.453-4.625,6.252-10.33,6.252s-10.33-2.799-10.33-6.252c0-3.453,9.325-22.277,10.33-22.277
						C352.253,368.97,361.311,387.794,361.311,391.247z"/>
					<g>
						<path style="fill:#0B1011;" d="M351.721,368.97l-1.047,28.617c-0.005,0.142-0.125,0.253-0.267,0.248
							c-0.141-0.005-0.251-0.123-0.248-0.263l0.562-28.603l0-0.028c0.006-0.276,0.234-0.495,0.51-0.49s0.496,0.234,0.49,0.51
							C351.721,368.964,351.721,368.968,351.721,368.97z"/>
					</g>
				</g>
				<g>
					<path style="fill:#D8DAD9;" d="M384.174,365.108c0,3.453-4.625,6.252-10.33,6.252c-5.705,0-10.33-2.799-10.33-6.252
						s9.325-22.277,10.33-22.277C375.116,342.831,384.174,361.655,384.174,365.108z"/>
					<path style="fill:none;stroke:#0B1011;stroke-width:2;stroke-linecap:round;stroke-linejoin:round;stroke-miterlimit:10;" d="
						M384.174,365.108c0,3.453-4.625,6.252-10.33,6.252c-5.705,0-10.33-2.799-10.33-6.252s9.325-22.277,10.33-22.277
						C375.116,342.831,384.174,361.655,384.174,365.108z"/>
					<g>
						<path style="fill:#0B1011;" d="M374.584,342.831l-1.048,28.617c-0.005,0.142-0.125,0.253-0.267,0.248
							c-0.141-0.005-0.251-0.122-0.248-0.263l0.562-28.602l0-0.028c0.005-0.276,0.234-0.495,0.51-0.49
							c0.276,0.005,0.495,0.234,0.49,0.51C374.584,342.825,374.584,342.829,374.584,342.831z"/>
					</g>
				</g>
				<g>
					<path style="fill:#D8DAD9;" d="M384.974,416.001c0,3.453-4.625,6.252-10.33,6.252s-10.33-2.799-10.33-6.252
						s9.325-22.277,10.33-22.277C375.916,393.724,384.974,412.548,384.974,416.001z"/>
					<path style="fill:none;stroke:#0B1011;stroke-width:2;stroke-linecap:round;stroke-linejoin:round;stroke-miterlimit:10;" d="
						M384.974,416.001c0,3.453-4.625,6.252-10.33,6.252s-10.33-2.799-10.33-6.252s9.325-22.277,10.33-22.277
						C375.916,393.724,384.974,412.548,384.974,416.001z"/>
					<g>
						<path style="fill:#0B1011;" d="M375.383,393.724l-1.048,28.617c-0.005,0.142-0.125,0.253-0.267,0.248
							c-0.141-0.005-0.251-0.122-0.248-0.262l0.562-28.602l0.001-0.028c0.005-0.276,0.234-0.495,0.51-0.49
							c0.276,0.005,0.495,0.234,0.49,0.51C375.383,393.718,375.383,393.722,375.383,393.724z"/>
					</g>
				</g>
				<g>
					<path style="fill:#D8DAD9;" d="M354.535,455.975c0,3.453-4.625,6.252-10.33,6.252c-5.705,0-10.33-2.799-10.33-6.252
						c0-3.453,9.325-22.277,10.33-22.277C345.477,433.698,354.535,452.522,354.535,455.975z"/>
					<path style="fill:none;stroke:#0B1011;stroke-width:2;stroke-linecap:round;stroke-linejoin:round;stroke-miterlimit:10;" d="
						M354.535,455.975c0,3.453-4.625,6.252-10.33,6.252c-5.705,0-10.33-2.799-10.33-6.252c0-3.453,9.325-22.277,10.33-22.277
						C345.477,433.698,354.535,452.522,354.535,455.975z"/>
					<g>
						<path style="fill:#0B1011;" d="M344.944,433.698l-1.048,28.617c-0.005,0.142-0.125,0.253-0.267,0.248
							c-0.141-0.005-0.251-0.122-0.248-0.262l0.562-28.603l0.001-0.028c0.005-0.276,0.234-0.495,0.51-0.49
							c0.276,0.005,0.495,0.234,0.49,0.51C344.944,433.692,344.944,433.696,344.944,433.698z"/>
					</g>
				</g>
				<g>
					<path style="fill:#D8DAD9;" d="M243.756,460.984c0,3.453-4.625,6.252-10.33,6.252c-5.705,0-10.33-2.799-10.33-6.252
						s9.325-22.277,10.33-22.277C234.698,438.707,243.756,457.531,243.756,460.984z"/>
					<path style="fill:none;stroke:#0B1011;stroke-width:2;stroke-linecap:round;stroke-linejoin:round;stroke-miterlimit:10;" d="
						M243.756,460.984c0,3.453-4.625,6.252-10.33,6.252c-5.705,0-10.33-2.799-10.33-6.252s9.325-22.277,10.33-22.277
						C234.698,438.707,243.756,457.531,243.756,460.984z"/>
					<g>
						<path style="fill:#0B1011;" d="M234.165,438.707l-1.048,28.617c-0.005,0.142-0.125,0.253-0.267,0.248
							c-0.141-0.005-0.251-0.122-0.248-0.262l0.562-28.603l0.001-0.028c0.005-0.276,0.234-0.495,0.51-0.49
							c0.276,0.005,0.495,0.234,0.49,0.51C234.166,438.701,234.165,438.706,234.165,438.707z"/>
					</g>
				</g>
				
					<ellipse transform="matrix(0.262 -0.9651 0.9651 0.262 -332.6296 432.2396)" style="fill:#898989;" cx="116.303" cy="433.608" rx="37.639" ry="25.093"/>
				
					<ellipse transform="matrix(0.262 -0.9651 0.9651 0.262 -332.6296 432.2396)" style="fill:none;stroke:#0B1011;stroke-width:2.4321;stroke-linecap:round;stroke-linejoin:round;stroke-miterlimit:10;" cx="116.303" cy="433.608" rx="37.639" ry="25.093"/>
				<path style="fill:#0B1011;" d="M122.193,411.567c-10.557-3.874-22.108,3.541-25.8,16.563c-1.248,4.404,6.72,11.874,8.505,16.422
					l-1.034,3.647l-0.825,2.91l-0.191,0.674c-0.119,0.42,0.06,0.862,0.401,0.987l2.087,0.766c0.341,0.125,0.713-0.114,0.832-0.534
					l0.191-0.674l0.391,0.143l-0.191,0.674c-0.119,0.42,0.061,0.862,0.401,0.987l2.087,0.766c0.341,0.125,0.713-0.114,0.832-0.534
					l0.191-0.674l0.309,0.113l-0.191,0.674c-0.119,0.42,0.06,0.862,0.401,0.987l2.087,0.766c0.341,0.125,0.713-0.114,0.832-0.534
					l0.191-0.674l0.408,0.15l-0.191,0.674c-0.119,0.42,0.06,0.862,0.401,0.987l2.087,0.766c0.341,0.125,0.713-0.114,0.832-0.534
					l0.191-0.674l0.825-2.909l1-3.528c3.667-2.576,14.107-3.339,15.369-7.792C138.316,429.138,132.75,415.441,122.193,411.567z"/>
				<path style="fill:none;stroke:#0B1011;stroke-width:2;stroke-linecap:round;stroke-linejoin:round;stroke-miterlimit:10;" d="
					M392.226,345.854c0,0-6.732-7.756-19.171-11.854"/>
				<g>
					<path style="fill:#D8DAD9;" d="M317.742,292.79l-9.45,38.86l-2.94,12.08c-3.7,2.98-7.82,4.9-11.82,6.13l5.03-20.66l8-32.91
						c3.9-0.87,7.67-2.21,10.96-3.61L317.742,292.79z"/>
					
						<line style="fill:none;stroke:#0B1011;stroke-width:2;stroke-linecap:round;stroke-linejoin:round;stroke-miterlimit:10;" x1="307.112" y1="294.062" x2="293.339" y2="350.696"/>
					
						<line style="fill:none;stroke:#0B1011;stroke-width:2;stroke-linecap:round;stroke-linejoin:round;stroke-miterlimit:10;" x1="304.915" y1="345.195" x2="318.208" y2="290.729"/>
					<g>
						<path style="fill:#0B1011;" d="M317.628,293.017l-9.34-4.253c-0.251-0.114-0.362-0.411-0.248-0.662s0.411-0.362,0.662-0.248
							c0.007,0.003,0.015,0.007,0.021,0.01l9.129,4.69c0.126,0.065,0.176,0.22,0.111,0.347
							C317.9,293.023,317.752,293.074,317.628,293.017z"/>
					</g>
					<path style="fill:#0B1011;" d="M309.14,295.728c0.566,1.633,2.349,2.498,3.982,1.931c1.633-0.566,2.497-2.349,1.931-3.982
						c-0.566-1.633-2.349-2.498-3.982-1.931C309.439,292.312,308.574,294.095,309.14,295.728z"/>
				</g>
				<g>
					<path style="fill:#F7BE27;" d="M217.421,252.342c2.81,2.31,2.984,2.671,7.134,5.671c0.17,0.07,4.766,3.053,4.866,3.183
						c1.41,1.01,3.545,2.115,5.085,3.165l20.025,30.59l-7.26,7.25l-34.03-53.9"/>
					<path style="fill:#D8DAD9;" d="M290.022,350.79c-4.11,0.91-7.89,1.15-10.7,1.17l-9.71-15.09l-22.34-34.67l7.26-7.25
						l19.83,30.78l14.94,23.19C289.682,349.5,289.922,350.14,290.022,350.79z"/>
					
						<line style="fill:none;stroke:#0B1011;stroke-width:2;stroke-linecap:round;stroke-linejoin:round;stroke-miterlimit:10;" x1="234.822" y1="263.831" x2="290.482" y2="350.793"/>
					<path style="fill:none;stroke:#0B1011;stroke-width:2;stroke-linecap:round;stroke-linejoin:round;stroke-miterlimit:10;" d="
						M279.839,352.747l-66.607-104.449c-0.451-0.696-0.707-1.463-0.783-2.235"/>
					<g>
						<path style="fill:#0B1011;" d="M247.095,302.023l7.089-7.422c0.191-0.2,0.507-0.207,0.707-0.016
							c0.2,0.191,0.207,0.507,0.016,0.707c-0.005,0.005-0.012,0.012-0.017,0.017l-7.431,7.078c-0.103,0.098-0.266,0.094-0.364-0.009
							C247,302.278,247.001,302.121,247.095,302.023z"/>
					</g>
					<circle style="fill:#0B1011;" cx="253.236" cy="302.167" r="3.129"/>
				</g>
			</g>
		</g>
	</g>
</g>
</svg>
