<?xml version="1.0" encoding="utf-8"?>
<!-- Generator: Adobe Illustrator 27.5.0, SVG Export Plug-In . SVG Version: 6.00 Build 0)  -->
<svg version="1.1" xmlns="http://www.w3.org/2000/svg" xmlns:xlink="http://www.w3.org/1999/xlink" x="0px" y="0px"
	 viewBox="0 0 500 500" style="enable-background:new 0 0 500 500;" xml:space="preserve">
<g id="BACKGROUND">
	<rect style="fill:#E6E4CB;" width="500" height="500"/>
</g>
<g id="OBJECTS">
	<g>
		<defs>
			<rect id="SVGID_1_" width="500" height="500"/>
		</defs>
		<clipPath id="SVGID_00000127018601846198613750000013800072331027309189_">
			<use xlink:href="#SVGID_1_"  style="overflow:visible;"/>
		</clipPath>
		<g style="clip-path:url(#SVGID_00000127018601846198613750000013800072331027309189_);">
			<g>
				<g>
					<path style="fill:#5C6A6D;" d="M214.368,362.282l-0.097,0.199l0.186,0.12c6.589,4.244,40.284,26.708,56.682,52.309l0.306,0.477
						l0.146-0.546c2.419-9.019,4.24-16.645,5.413-22.665l0.019-0.093L276.974,392c-0.058-0.098-0.092-0.191-0.104-0.286
						c-5.671-46.58-11.535-94.745-20.417-110.271l-0.089-0.156l-0.176,0.035c-1.25,0.245-2.42,0.521-3.575,0.843l-0.388,0.108
						l0.27,0.299c0.204,0.228,0.251,0.553,0.118,0.827L214.368,362.282z"/>
					<path style="fill:#898989;" d="M311.498,328.039l0.199,0.109c3.643,1.989,6.809,4.826,9.153,8.205l0.408,0.588l0.046-0.715
						c0.515-7.897,1.029-15.019,1.53-21.168l0.022-0.274l-9.544,0.124l0.051,0.289c0.948,5.45-0.927,10.65-1.776,12.632
						L311.498,328.039z"/>
					<polygon style="fill:#D94328;" points="302.736,346.08 298.368,336.883 292.937,351.026 					"/>
					<polygon style="fill:#D94328;" points="302.603,362.886 310.557,348.569 303.087,346.347 					"/>
					<path style="fill:#D94328;" d="M310.043,347.919l-0.582-0.636c-3.927-4.287-7.683-8.07-9.802-9.874l-0.853-0.726l4.246,9.338
						L310.043,347.919z"/>
					<polygon style="fill:#D94328;" points="292.921,351.068 292.68,351.698 302.575,362.921 302.782,346.387 					"/>
					<path style="fill:#5C6A6D;" d="M330.222,280.233l-0.667,0.104l0.573,0.356c16.985,10.548,38.642,70.344,44.876,88.42
						l0.322,0.935l0.161-0.976c4.868-29.544,10.2-90.707,11.22-102.669l0.044-0.519l-0.433,0.29
						C376.668,272.655,340.941,278.574,330.222,280.233z"/>
					<path style="fill:#D94328;" d="M256.385,279.033c0.233,0.017,0.44,0.139,0.57,0.334c0.066,0.1,0.131,0.21,0.196,0.32
						l0.165,0.266c0.053,0.06,0.095,0.129,0.146,0.246c6.828,11.337,11.552,40.323,14.904,64.309l0.173,1.237l0.317-1.208
						c3.037-11.591,13.68-19.686,25.881-19.686c3.89,0,7.651,0.811,11.18,2.412l0.235,0.107l0.099-0.239
						c0.45-1.083,1.263-3.306,1.65-6.028l0.013-0.083l-2.854-5.171l2.651-2.032l0.07-0.101c0.141-0.184,0.354-0.291,0.586-0.294
						l10.613-0.138l0.019-0.226c1.398-16.7,2.775-27.157,4.321-32.877l0.02-0.061c0.05-0.186,0.102-0.372,0.151-0.546
						c0.082-0.281,0.321-0.491,0.61-0.534c21.468-3.202,54.834-9.914,58.767-15.281l0.053-0.072l-0.004-0.089
						c-0.105-1.958-1.678-11.988-22.542-17.175c-0.718-0.085-7.546-0.867-25.942-1.965l-130.838,3.369
						c-37.511,4.071-48.095,11.095-51.065,14.92c-0.678,0.873-0.939,1.562-1.038,1.986l-0.042,0.176l0.155,0.094
						C165.241,270.877,225.74,276.749,256.385,279.033z"/>
					<path style="fill:#F7BE27;" d="M349.834,460.383l0.023-0.115c9.299-45.969-19.314-92.624-25.145-101.509l-0.299-0.409
						l-0.159,0.5c-0.033,0.103-0.071,0.204-0.109,0.304c-0.031,0.083-0.063,0.166-0.092,0.25c-0.166,0.486-0.346,1.002-0.549,1.493
						c-0.069,0.165-0.146,0.327-0.222,0.487l-0.204,0.441c-0.158,0.348-0.316,0.697-0.492,1.036
						c-0.097,0.188-0.202,0.371-0.308,0.554l-0.234,0.411c-0.172,0.306-0.344,0.61-0.53,0.906c-0.128,0.205-0.265,0.402-0.401,0.601
						l-0.163,0.237c-0.214,0.315-0.428,0.628-0.656,0.933c-0.169,0.225-0.346,0.442-0.523,0.66l-0.084,0.103
						c-0.246,0.304-0.493,0.607-0.753,0.9c-0.205,0.232-0.419,0.456-0.667,0.717c-0.27,0.282-0.541,0.561-0.822,0.832
						c-0.236,0.227-0.478,0.446-0.721,0.664c-0.293,0.26-0.588,0.515-0.891,0.762c-0.252,0.206-0.508,0.407-0.769,0.604
						c-0.313,0.238-0.632,0.468-0.955,0.692c-0.267,0.185-0.536,0.366-0.809,0.541c-0.334,0.214-0.675,0.418-1.018,0.617
						c-0.28,0.162-0.56,0.323-0.845,0.476c-0.355,0.189-0.717,0.365-1.08,0.539l-0.106,0.051c-0.253,0.121-0.506,0.242-0.763,0.355
						c-0.377,0.164-0.76,0.311-1.144,0.458l-0.227,0.087c-0.219,0.085-0.438,0.169-0.66,0.245c-0.387,0.132-0.78,0.246-1.213,0.372
						l-0.273,0.081c-0.203,0.061-0.405,0.121-0.612,0.174c-0.389,0.099-0.784,0.178-1.18,0.258l-0.43,0.089
						c-0.183,0.039-0.365,0.079-0.55,0.11c-0.462,0.078-0.931,0.13-1.398,0.183l-0.077,0.009c-0.103,0.012-0.204,0.025-0.305,0.039
						c-0.144,0.02-0.287,0.039-0.432,0.051c-1.252,0.104-2.439,0.119-3.613,0.061c-0.093-0.005-0.187-0.012-0.279-0.02l-0.165-0.012
						c-0.303-0.02-0.606-0.042-0.907-0.071c-0.115-0.012-0.23-0.026-0.345-0.04l-0.176-0.021c-0.274-0.033-0.549-0.068-0.822-0.109
						c-0.158-0.024-0.315-0.051-0.473-0.078l-0.068-0.012c-0.265-0.045-0.529-0.094-0.792-0.147
						c-0.181-0.036-0.359-0.074-0.537-0.114c-0.265-0.059-0.527-0.123-0.819-0.197c-0.163-0.041-0.325-0.082-0.487-0.127
						c-0.271-0.075-0.539-0.157-0.807-0.239l-0.166-0.051c-0.103-0.032-0.206-0.063-0.309-0.097
						c-0.299-0.098-0.594-0.205-0.888-0.314l-0.369-0.134c-0.418-0.162-0.832-0.331-1.249-0.517c-0.402-0.179-0.8-0.369-1.193-0.567
						c-0.074-0.038-0.147-0.077-0.22-0.116l-0.148-0.078c-0.27-0.142-0.54-0.285-0.806-0.437c-0.108-0.061-0.216-0.125-0.323-0.189
						l-0.11-0.066c-0.238-0.141-0.476-0.284-0.71-0.433c-0.133-0.085-0.264-0.171-0.395-0.258l-0.053-0.035
						c-0.223-0.148-0.444-0.299-0.663-0.455c-0.15-0.105-0.297-0.212-0.444-0.321c-0.214-0.158-0.425-0.321-0.634-0.485
						l-0.056-0.044c-0.125-0.099-0.25-0.197-0.373-0.298c-0.21-0.173-0.417-0.351-0.621-0.529l-0.13-0.113
						c-0.09-0.078-0.18-0.156-0.268-0.235l-0.546-0.504l0.013,0.593c0.059,2.783,0.088,5.861,0.088,9.146
						c0,16.901-17.63,72.016-21.164,82.893l-0.133,0.407l21.909-4.425l0.067,0.001l0.349-0.012l-0.016-0.044l6.813,0.964
						l0.086-0.138c3.125-5.01,5.531-11.138,7.357-18.734c1.439-5.944,2.449-12.092,3.427-18.039l0.357-2.164
						c1.02-6.38,1.595-13.27,1.708-20.479c0.093-6.85-0.283-13.756-1.103-20.528c0.876,6.775,1.293,13.682,1.239,20.529
						c-0.069,7.212-0.604,14.112-1.588,20.506l-0.352,2.214c-0.94,5.939-1.912,12.082-3.319,18.049
						c-1.851,7.896-4.218,13.985-7.449,19.161c-0.013,0.021-0.038,0.052-0.108,0.085l-0.108,0.051l-2.416,9.909l0.36,0.944h31.119
						l13.255-10.655c0.008-0.007,0.038-0.02,0.06-0.029l0.305-0.214l-0.044-0.06c3.228-2.969,7.986-4.655,9.906-5.249l0.214-0.066
						l-4.102,12.957L349.834,460.383z M314.561,464.192c-0.036,0.134-0.18,0.212-0.308,0.175c-0.065-0.018-0.118-0.059-0.151-0.117
						c-0.032-0.058-0.041-0.125-0.023-0.19l0.008-0.032c1.74-6.181,2.596-13.211,2.616-21.489
						c-0.006-6.57-0.416-13.682-1.254-21.742c-0.762-7.135-1.879-14.38-3.322-21.535c-1.429-7.048-3.219-14.16-5.305-21.141
						c2.14,6.968,3.969,14.072,5.438,21.113c1.485,7.157,2.643,14.402,3.445,21.534c0.884,8.067,1.334,15.189,1.376,21.771
						C317.106,450.869,316.282,457.952,314.561,464.192z M276.434,453.424c-0.052,0.129-0.204,0.191-0.324,0.14
						c-0.129-0.051-0.191-0.197-0.141-0.327c9.086-22.396,13.372-47.003,12.41-71.164
						C289.518,406.25,285.387,430.923,276.434,453.424z M340.745,454.037c-0.033-0.033-0.074-0.088-0.077-0.17
						c-0.229-6.375-1.103-13.105-2.672-20.577c-1.528-7.184-3.504-14.205-5.235-20.127c-0.349-1.175-0.695-2.351-1.043-3.527
						c-1.589-5.388-3.233-10.959-5.061-16.365c-2.519-7.453-5.203-13.697-8.194-19.097c3.039,5.381,5.761,11.613,8.322,19.053
						c1.856,5.386,3.526,10.925,5.142,16.282c0.36,1.195,0.721,2.39,1.083,3.582c1.766,5.912,3.783,12.926,5.357,20.12
						c1.618,7.485,2.535,14.236,2.801,20.639c0.005,0.113-0.066,0.192-0.136,0.229l-0.09,0.048l-0.025,0.078L340.745,454.037z"/>
					<path style="fill:#5C6A6D;" d="M222.025,445.478c1.808,0.445,3.331,0.804,4.89,1.109c1.819,0.389,3.625,0.696,5.366,0.915
						c1.576,0.194,3.022,0.289,4.391,0.289c0.347,0,0.688-0.006,1.026-0.018c1.651-0.056,3.417-0.248,5.397-0.586
						c7.086-1.258,14.069-3.404,20.755-6.38c0.03-0.013,0.051-0.019,0.103-0.019l0.19,0.004l0.055-0.182
						c2.528-8.372,4.777-16.16,6.684-23.15l0.028-0.104l-0.056-0.092c-17.231-28.308-57.541-53.62-57.946-53.872
						c-0.327-0.203-0.446-0.617-0.278-0.963l38.486-79.379l0.254-0.523l-0.554,0.176c-29.289,9.293-65.841,47.869-85.022,70.037
						l-0.187,0.216l0.239,0.157c5.12,3.346,12.858,8.401,16.11,14.324c2.708,4.936,3.255,10.681,3.583,16.142
						c0.264,4.379,0.44,9.074-0.04,13.728c-0.53,5.125-1.858,10.175-3.143,15.058c-0.914,3.48-1.95,7.424-2.609,11.348l-0.024,0.136
						l0.104,0.092c0.698,0.621,1.865,1.625,3.466,2.888c5.607,4.252,11.625,7.962,17.886,11.027
						c5.398,2.618,11.024,4.801,16.73,6.49c1.316,0.335,2.561,0.618,3.788,0.863l-0.191,0.141L222.025,445.478z"/>
					<path style="fill:#5C6A6D;" d="M366.286,452.328l-10.223-12.991l-1.075,0.26l1.716-0.502c0.197-0.069,0.396-0.135,0.593-0.201
						c0.365-0.123,0.729-0.245,1.09-0.381c0.99-0.379,2.152-0.845,3.262-1.425c1.165-0.599,2.159-1.197,3.04-1.829
						c0.948-0.687,1.727-1.369,2.315-2.027l0.052-0.091c0.025-0.08,0.06-0.15,0.103-0.209c14.626-20.567,12.452-53.686,10.839-66.97
						l-0.219-1.8l-0.276,1.792c-0.42,2.717-0.825,5.158-1.207,7.254c-0.061,0.337-0.342,0.59-0.737,0.616
						c-0.323,0-0.609-0.207-0.712-0.514c-0.257-0.774-25.867-77.571-44.667-90.799l-0.717-0.505l34.296,80.59
						c0.069,0.163,0.026,0.351-0.106,0.469c-0.11,0.098-11.147,9.927-22.21,24.129l-0.09,0.115l0.057,0.134
						c7.638,18.382,15.543,46.071,9.824,73.59c-0.045,0.219-0.185,0.404-0.382,0.509l-13.751,7.321
						c-0.324,0.174-0.721,0.086-0.945-0.205l-5.393-7.003l-10.797,8.68l0.006,0.127c0.776,15.378,1.691,28.511,1.953,31.557
						l0.02,0.228l39.957,0.099l0.06-0.167c2.126-5.967,3.621-34.483,4.323-49.758L366.286,452.328z"/>
					<path style="fill:#898989;" d="M318.546,471.982l-0.025-0.488l-0.622,0.5h-0.001c-0.132,0.107-0.299,0.166-0.47,0.166h-31.9
						c-0.313,0-0.589-0.189-0.701-0.483l-4.462-11.696l-2.041,0.413l-0.019,0.183c-2.043,19.982-5.04,37.091-5.91,41.245l-0.063,0.3
						l47.831,0.119l0.273,0l-0.023-0.272C320.167,499.101,319.305,486.603,318.546,471.982z"/>
					<path style="fill:#5C6A6D;" d="M276.784,460.706l-18.918,3.829l-0.002,0c-0.263,0.057-0.528-0.038-0.708-0.237
						c-0.177-0.199-0.234-0.48-0.151-0.732c0.026-0.08,3.061-9.326,6.834-21.768l0.156-0.515l-0.494,0.213
						c-6.587,2.836-13.432,4.876-20.345,6.064c-1.996,0.33-3.778,0.513-5.448,0.561c-1.689,0.052-3.474-0.047-5.466-0.303
						c-1.746-0.23-3.557-0.548-5.385-0.949c-1.687-0.34-3.347-0.743-5.316-1.243l-0.299-0.081l-39.508,29.056l0.006,0.134
						c0.427,9.256,0.529,19.404,0.313,26.91l-0.007,0.257l88.752,0.219l0.042-0.198c0.61-2.866,3.762-20.208,5.908-40.877
						L276.784,460.706z"/>
					<path style="fill:#5C6A6D;" d="M177.959,441.019l-0.249,0.019v0l0.248-0.041c-0.283-3.747-0.605-7.994-0.344-12.108
						c0.365-5.773,1.854-11.432,3.298-16.92c1.268-4.825,2.578-9.815,3.096-14.815c0.471-4.549,0.295-9.169,0.036-13.484
						c-0.318-5.291-0.843-10.846-3.403-15.51c-3.07-5.594-10.709-10.585-15.746-13.876l-0.25-0.21l-0.156,0.182
						c-9.693,11.285-15.723,19.196-15.781,19.272c-0.159,0.209-0.395,0.333-0.693,0.29c-0.266-0.034-0.494-0.208-0.598-0.456
						c-2.82-6.79-4.337-16.218-4.508-28.023l-0.003-0.17l-0.158-0.06c-3.977-1.518-8.313-1.803-11.227-1.885
						c-1.923-0.056-3.855-0.038-5.828-0.013c-0.8,0.016-1.851,0.051-2.901,0.181c-0.246,0.027-0.496,0.066-0.75,0.107
						c-0.698,0.11-1.42,0.224-2.15,0.067c0.704,0.128,1.408,0.003,2.153-0.128c0.241-0.042,0.485-0.086,0.733-0.12
						c1.05-0.153,2.107-0.211,2.909-0.243c1.965-0.066,3.891-0.125,5.839-0.109c4.561,0.035,7.966,0.517,11.041,1.56l0.333,0.113
						l-0.003-0.352c-0.026-3.411,0.058-7.064,0.249-10.857l0.017-0.335l-0.326,0.08c-8.147,1.985-35.053,9.624-39.224,24.587
						c-0.676,2.427-1.445,5.031-2.189,7.55c-5.021,16.989-11.897,40.255-8.617,66.497c0.011,0.087,0.007,0.175-0.014,0.26
						c-4.615,20.116-23.748,62.063-25.275,69.272l-0.064,0.301l112.852,0.254l0.244,0l0.007-0.243
						c0.52-17.996-0.872-38.144-2.219-55.695L177.959,441.019z M129.871,457.887c-0.023-0.063-0.021-0.131,0.007-0.191
						c0.027-0.061,0.077-0.107,0.142-0.132c17.417-6.358,32.619-18.403,42.816-33.918c0.004,0.002,0.005,0.007,0.003,0.01
						c-10.073,15.633-25.219,27.841-42.646,34.377C130.06,458.084,129.919,458.015,129.871,457.887z"/>
					<path style="fill:#5C6A6D;" d="M411.742,425.153c-1.23-4.364-2.292-8.133-2.292-12.08c0-7.54-3.823-20.289-12.122-44.131
						c-2.31-6.635-5.536-14.165-5.805-16.59c-0.659-5.941-7.563-9.299-10.5-10.467l-0.303-0.12l-0.038,0.323
						c-0.797,6.694-1.57,12.71-2.299,17.882l-0.021,0.142l0.112,0.089c0.104,0.082,0.235,0.226,0.274,0.444
						c0.347,1.89,8.281,46.579-10.196,72.909l-0.042,0.061l-0.003,0.075c-0.176,5.625-1.813,57.281-4.939,68.342l-0.09,0.317
						l53.431,0.095l-0.001-0.251c-0.012-3.973-4.843-20.635-2.165-42.506C416.782,443.038,413.988,433.122,411.742,425.153z"/>
					<path style="fill:#5C6A6D;" d="M362.753,362.766l0.132-0.12l-34.417-80.877l-0.169,0.763
						c-2.608,11.799-4.487,37.93-5.675,56.544l-0.038,0.167l0.038,0.075c1.887,3.676,2.844,7.627,2.844,11.743
						c0,1.72-0.183,3.464-0.543,5.187l-0.021,0.104l0.061,0.088c1.434,2.087,8.933,13.324,15.857,29.614l0.166,0.389l0.261-0.332
						C351.131,373.529,360.896,364.457,362.753,362.766z"/>
					<path style="fill:#F7BE27;" d="M310.326,329.12c-3.47-1.77-7.41-2.77-11.59-2.77c-13.9,0-25.22,11.09-25.22,24.71
						c0,0.56,0.02,1.11,0.06,1.66c0.37,5.42,2.54,10.56,6.21,14.64c1.18,1.32,2.52,2.52,3.96,3.57c0.11,0.07,0.21,0.14,0.32,0.21
						l0.34,0.24c0.14,0.1,0.29,0.2,0.44,0.3c2.61,1.69,5.49,2.88,8.55,3.53c1.75,0.37,3.55,0.56,5.34,0.56
						c11.78,0,22.14-8.16,24.64-19.41c0.39-1.73,0.59-3.51,0.59-5.3C323.966,341.53,318.426,333.24,310.326,329.12z M312.155,348.78
						l-8.78,15.8c-0.12,0.22-0.33,0.36-0.58,0.39c-0.24,0.02-0.48-0.07-0.64-0.25l-10.9-12.37c-0.19-0.21-0.24-0.5-0.14-0.77
						l0.8-2.08l5.49-14.31c0.12-0.29,0.4-0.48,0.7-0.48c0.08,0,0.15,0.01,0.22,0.04c1.04,0.31,3.45,2.45,6.27,5.26
						c2.4,2.39,5.1,5.27,7.46,7.9C312.276,348.15,312.306,348.5,312.155,348.78z"/>
					<path style="fill:#D94328;" d="M278.425,368.062c-1.124-1.287-2.136-2.717-3.007-4.249l-0.625-1.099l0.159,1.254
						c0.941,7.39,1.882,15.059,2.678,21.586l0.233,1.913l0.263-1.909c0.333-2.425,0.502-4.46,0.502-6.049
						c0-4.103-0.048-7.901-0.142-11.29l-0.003-0.09L278.425,368.062z"/>
					<path style="fill:#5C6A6D;" d="M253.645,280.33l-1.37,0.37c-0.45,0.13-0.91,0.26-1.37,0.4c-5.53,1.68-11.27,4.34-17.08,7.71
						c-0.84,0.49-1.69,0.99-2.53,1.51c-36.05,22.09-74.21,69.93-82.7,80.89l-0.28,0.36l-0.15-0.43c-3.2-8.84-4.34-21.81-3.4-38.55
						l0.03-0.11c0.07-0.12,0.14-0.31,0.1-0.54c-0.04-0.07-0.05-0.09-0.06-0.12l-0.02-0.05v-0.06c1.71-28.45,8.87-59.08,10.28-64.93
						l0.08-0.3l0.28,0.14c6.33,3.2,25.04,6.15,44.74,8.51c8.21,0.99,16.58,1.87,24.31,2.63c9.77,0.95,18.51,1.7,24.58,2.2
						c1.15,0.09,2.2,0.18,3.14,0.25L253.645,280.33z"/>
				</g>
				<g>
					<path style="fill:#E2C597;" d="M336.794,192.293l-0.051-0.094l-0.103-0.028c-0.942-0.256-1.948-0.387-2.989-0.387
						c-1.921,0-3.581,0.433-4.657,0.795l-0.061,0.036c-0.74,0.447-1.498,0.879-2.232,1.296l-0.353,0.201
						c-2.348,1.333-4.897,2.677-7.627,3.477c-0.02,0.006-0.038,0.009-0.056,0.009c-0.08,0-0.15-0.053-0.174-0.132
						c-0.03-0.098,0.024-0.198,0.123-0.228c2.704-0.842,5.19-2.211,7.475-3.564l0.798-0.477c2.089-1.247,4.249-2.536,6.061-4.151
						c0.415-0.364,0.806-0.756,1.162-1.162l0.08-0.092l-0.023-0.12c-0.031-0.165-0.014-0.324,0.052-0.471
						c2.379-5.174,2.78-9.617,1.191-13.204c-1.059-2.387-2.806-3.941-4.087-4.824c0,0-0.064-0.044-0.081-0.044
						c-0.257-0.136-0.539-0.274-0.839-0.408c-1.652-0.743-3.535-1.119-5.597-1.119c-0.743,0-1.51,0.05-2.278,0.15
						c-2.492,0.33-5.095,1.145-7.737,2.423c-2.691,1.307-4.804,2.946-6.28,4.873c-0.143,0.186-0.359,0.293-0.59,0.293
						c-0.166,0-0.324-0.055-0.458-0.158c-0.163-0.122-0.266-0.298-0.293-0.497c-0.027-0.198,0.026-0.394,0.148-0.553
						c1.658-2.08,3.972-3.819,6.888-5.176c2.787-1.297,5.537-2.107,8.173-2.408c0.715-0.08,1.431-0.12,2.128-0.12
						c0.917,0,1.82,0.07,2.684,0.209l0.416,0.067l-0.141-0.397c-1.229-3.463-2.831-12.461-1.897-21.862l0.087-0.872l-0.107,0.14
						c0.003-0.139,0.022-0.273,0.022-0.413c0-0.129-0.017-0.254-0.02-0.382l0.146,0.222l0.101-0.638
						c0.538-3.968,1.524-7.606,2.932-10.821c4.714-10.781,0.623-21.389-1.354-25.45l-0.026-0.055l-0.056-0.052l-0.054-0.04
						c-5.335-6.791-11.512-10.401-18.358-10.73c-0.34-0.016-0.678-0.024-1.016-0.024c-12.572,0-23.166,10.955-23.272,11.066
						c-0.047,0.049-0.112,0.077-0.181,0.077c-0.049,0-0.097-0.014-0.138-0.041c-0.157-0.104-16.02-10.445-33.541-10.447
						c-12.903,0-23.263,5.56-30.797,16.527c-7.037,10.245-9.482,20.571-7.265,30.693c4.263,19.469,24.543,31.756,24.748,31.878
						c0.085,0.051,0.132,0.147,0.12,0.245l-1.73,14.418l-0.013,0.108l0.07,0.083l9.097,10.751l0.189,0.223l0.191-0.221
						c3.78-4.376,10.432-8.542,13.116-10.131l0.222-0.131l-0.139-0.218c-0.693-1.09-1.258-2.225-1.681-3.372
						c-1.118-3.005-1.344-6.261-0.637-9.17c0.763-3.179,2.543-5.929,5.012-7.745c3.001-2.24,6.433-2.813,8.784-2.899
						c0.256-0.011,0.51-0.016,0.764-0.016c2.62,0,5.414,0.579,8.304,1.721c2.495,0.987,4.978,2.327,8.051,4.342
						c0.346,0.227,0.443,0.693,0.216,1.039c-0.139,0.212-0.374,0.339-0.628,0.339c-0.146,0-0.288-0.043-0.41-0.123
						c-2.931-1.97-5.392-3.333-7.75-4.296c-2.791-1.136-5.473-1.711-7.971-1.711c-0.178,0-0.356,0.003-0.533,0.009
						c-3.073,0.077-5.954,0.989-8.111,2.566c-2.233,1.6-3.929,4.167-4.653,7.041c-0.688,2.694-0.507,5.734,0.51,8.56
						c0.41,1.153,0.974,2.297,1.678,3.398l0.047,0.073l0.082,0.029c0.043,0.015,0.102,0.046,0.137,0.11
						c0.013,0.022,0.028,0.061,0.022,0.14l-0.007,0.088l0.05,0.073c0.825,1.196,1.798,2.289,2.892,3.249
						c2.137,1.904,4.744,3.1,7.684,4.358c2.741,1.152,5.591,2.132,8.472,2.914c0.19,0.051,0.302,0.247,0.251,0.436
						c-0.042,0.155-0.183,0.263-0.344,0.263c-0.03,0-0.06-0.004-0.089-0.011c-2.921-0.759-5.814-1.719-8.598-2.853
						c-2.314-0.962-4.558-1.942-6.561-3.337l-0.032-0.022l-0.037-0.012c-2.065-0.634-5.083-1.39-7.729-1.39
						c-0.68,0-1.31,0.05-1.874,0.15l-0.054,0.01l-0.045,0.031c-3.699,2.569-6.483,4.962-8.275,7.113l-0.037,0.045l-0.014,0.057
						c-0.015,0.061-0.039,0.105-0.073,0.134c-0.012,0.01-0.038,0.022-0.062,0.033l-0.056,0.025l-0.038,0.048
						c-0.682,0.86-1.197,1.68-1.532,2.439c-2.708,6.128-4.166,13.954-4.227,14.284c-0.006,0.031-0.023,0.065-0.053,0.104
						l-0.039,0.051l-0.01,0.064c-0.314,2.084,0.047,4.45,1.015,6.664c0.888,2.036,2.284,3.951,4.149,5.694
						c3.024,2.801,7.067,5.06,12.358,6.907c4.073,1.405,8.622,2.471,13.908,3.259c4.407,0.657,9.069,1.089,14.251,1.321
						c1.341,0.063,2.682,0.109,4.024,0.141c1.123,0.027,2.816-0.29,3.873,0.033c0.306,0.093,0.6,0.262,0.892,0.457
						c-3.131-0.003-6.018-0.069-8.808-0.203c-5.197-0.239-9.872-0.679-14.293-1.344c-5.309-0.799-9.88-1.876-13.975-3.294
						c-5.277-1.852-9.173-4.017-12.261-6.811l-0.355,0.351c0.567,0.642,1.082,1.188,1.574,1.669
						c1.508,1.488,3.261,2.936,5.208,4.302c1.796,1.274,3.729,2.476,5.747,3.572c6.884,3.762,14.926,6.796,25.31,9.548
						c1.948,0.5,4.255,1.079,6.607,1.588l1.655,0.374l1.631,0.439l3.28,0.89l6.561,1.78c0.376,0.094,0.745,0.198,1.112,0.301
						c0.711,0.201,1.447,0.408,2.164,0.518c0.991,0.166,2.079,0.251,3.232,0.251l0.107,0c2.324-0.025,4.526-0.449,6.545-1.259
						c0.987-0.419,1.929-0.918,2.968-1.572l2.913-1.75c3.985-2.353,7.734-4.443,11.459-6.389l0.054-0.028l0.021-0.03
						c0.056-0.043,0.111-0.074,0.18-0.101l0.1-0.04l0.047-0.019l0.013-0.004l0.014-0.011c0.014-0.005,0.033-0.01,0.054-0.015
						l2.62-1.009c0.941-0.465,1.755-1.175,2.453-2.092c0.243-0.207,0.475-0.427,0.691-0.668c1.243-1.384,1.876-3.217,2.217-5.047
						c0.176-0.948,0.285-1.917,0.629-2.818c0.368-0.965,0.988-1.808,1.519-2.694c1.933-3.223,2.163-6.847,2.717-10.398
						c0.522-3.342-0.579-7.471-1.402-10.687C342.506,204.056,339.88,198.007,336.794,192.293z M250.8,227.641
						c0.025,0.062,0.024,0.13-0.002,0.191c-0.026,0.061-0.075,0.109-0.137,0.134c-0.03,0.012-0.061,0.018-0.093,0.018
						c-0.103,0-0.194-0.062-0.232-0.157c-0.476-1.396-0.627-2.987-0.454-4.745c0.165-1.68,0.577-3.276,0.958-4.615
						c-0.278,1.276-0.624,2.952-0.701,4.634C250.058,224.816,250.28,226.344,250.8,227.641z M267.831,231.036
						c0.007,0.066-0.012,0.132-0.054,0.184c-0.042,0.052-0.101,0.085-0.168,0.092l-0.027,0.001c-0.128,0-0.234-0.096-0.248-0.223
						c-0.267-3.983,0.206-7.916,1.405-11.702C267.731,223.15,267.412,227.176,267.831,231.036z M328.067,220.337
						c0.333,0.889,0.589,1.884,0.805,3.132c0.233,1.405,0.408,2.83,0.576,4.208c0.089,0.729,0.178,1.459,0.276,2.189
						c0.009,0.066-0.009,0.132-0.049,0.185c-0.041,0.053-0.099,0.087-0.166,0.096l-0.034,0.002c-0.124,0-0.231-0.093-0.247-0.217
						c-0.072-0.752-0.134-1.482-0.195-2.212c-0.117-1.386-0.238-2.82-0.415-4.21c-0.247-1.833-0.718-4.162-2.178-5.942
						C327.127,218.329,327.671,219.264,328.067,220.337z M318.612,225.245c0.343,3.621-0.112,7.341-1.316,10.758
						c-0.035,0.1-0.13,0.167-0.236,0.167c-0.028,0-0.056-0.005-0.083-0.014c-0.13-0.046-0.199-0.189-0.153-0.319
						c1.221-3.346,1.708-6.995,1.411-10.559c-0.294-3.6-1.393-7.122-3.177-10.185c-1.78-3.103-4.27-5.84-7.2-7.913
						c-0.709-0.52-1.484-0.977-2.233-1.419c-0.778-0.459-1.582-0.934-2.331-1.488c-1.212-0.891-2.693-2.379-2.872-4.418
						c0.22,2.133,1.923,3.646,2.919,4.359c0.73,0.53,1.535,0.993,2.314,1.441c0.761,0.438,1.548,0.89,2.278,1.411
						c2.977,2.057,5.517,4.788,7.348,7.898C317.122,218.046,318.274,221.6,318.612,225.245z M308.783,186.433
						c2.274-1.659,4.07-3.964,5.807-6.194c3.052-3.918,5.935-7.619,11.068-7.623c0.147-0.007,0.281-0.011,0.416-0.011
						c2.082,0,4.469,0.879,4.925,3.347c0.316,2.971-0.56,5.669-2.606,7.998c-4.578,5.212-14.387,7.762-21.563,7.927l-0.061,0
						c-1.29,0-3.189-0.228-4.297-0.871c-0.366-0.212-0.539-0.591-0.464-1.012c0.063-0.347,0.333-0.787,0.89-0.882
						C304.812,188.787,306.792,187.885,308.783,186.433z M312.627,163.598c-1.131,0.311-2.461,0.692-3.762,1.163
						c-1.45,0.532-2.579,1.063-3.553,1.672c-1.161,0.71-2.151,1.58-2.953,2.591c0.76-1.046,1.729-1.953,2.879-2.705
						c0.967-0.646,2.09-1.217,3.536-1.799c1.296-0.515,2.699-1.098,4.07-1.33c0.091-0.015,0.183-0.041,0.275-0.031
						c0.092,0.01,0.188,0.066,0.21,0.177C313.33,163.521,312.757,163.562,312.627,163.598z M300.988,124.189
						c2.572-1.281,5.556-1.957,8.632-1.957c0.549,0,1.105,0.022,1.655,0.064c3.76,0.3,7.16,1.553,9.832,3.623
						c1.422,1.104,2.629,2.487,3.491,4.001c0.86,1.501,1.437,3.249,1.671,5.056c0.018,0.138-0.078,0.264-0.215,0.282
						c-0.002,0-0.004,0-0.006,0c-0.155,0-0.259-0.092-0.275-0.215c-0.372-3.469-2.159-6.684-4.904-8.829
						c-2.592-2.058-5.917-3.325-9.616-3.662c-0.622-0.056-1.253-0.084-1.875-0.084c-2.959,0-5.839,0.637-8.328,1.841
						c-3.057,1.457-5.52,3.941-6.862,6.863c-0.011,0.011-0.021,0.022-0.032,0.033C295.462,128.232,297.916,125.695,300.988,124.189z
						 M285.648,123.854c0.226,0.815,0.496,1.602,0.803,2.342l0.161,0.385c0.262,0.623,0.533,1.267,0.689,1.955
						c0.191,0.86,0.19,1.762,0.189,2.487c-0.006,0.743-0.039,1.533-0.104,2.484c-0.047,0.687-0.105,1.371-0.164,2.054
						c-0.081,0.949-0.164,1.931-0.215,2.894c-0.347,6.595,0.913,13.247,3.645,19.238c0.057,0.125,0.002,0.274-0.124,0.331
						c-0.033,0.015-0.068,0.023-0.104,0.023c-0.098,0-0.187-0.057-0.228-0.146c-2.686-6.088-3.878-12.817-3.447-19.461
						c0.063-0.973,0.159-1.956,0.251-2.906c0.066-0.682,0.133-1.362,0.188-2.041l0.034-0.504c0.101-1.476,0.205-3.001-0.054-4.418
						c-0.143-0.677-0.4-1.31-0.672-1.979l-0.144-0.357c-0.3-0.747-0.561-1.542-0.778-2.362c-0.418-1.605-0.635-3.259-0.645-4.915
						C284.976,120.611,285.212,122.258,285.648,123.854z M275.42,137.087c-0.002,0-0.004,0-0.006,0
						c-0.155,0-0.259-0.093-0.275-0.215c-0.372-3.469-2.159-6.684-4.904-8.829c-2.591-2.058-5.917-3.325-9.616-3.661
						c-0.622-0.056-1.253-0.084-1.875-0.084c-2.959,0-5.839,0.637-8.328,1.841c-3.248,1.548-5.841,4.248-7.115,7.407l-0.007,0.005
						c-0.001,0-0.001,0-0.003-0.001c1.236-3.199,3.811-5.94,7.062-7.533c2.572-1.281,5.556-1.957,8.632-1.957
						c0.548,0,1.105,0.022,1.655,0.064c3.76,0.3,7.16,1.553,9.832,3.623c1.422,1.104,2.629,2.487,3.491,4.001
						c0.86,1.501,1.437,3.249,1.671,5.056C275.653,136.943,275.557,137.069,275.42,137.087z M277.026,164.138
						c-0.221,0-0.44,0.003-0.661,0.009l-0.004,0.125c-0.001,0-0.002,0-0.004,0v-0.125c-0.136,0-0.246-0.107-0.25-0.243
						c-0.004-0.138,0.106-0.253,0.243-0.257c5.462,0.018,10.871,1.812,15.238,5.052C287.35,165.762,282.18,164.138,277.026,164.138z
						 M292.587,235.901c-0.005,0.135-0.115,0.24-0.249,0.24v0.122c-0.002,0-0.004,0.001-0.005,0.001l-0.005-0.123
						c-0.067-0.003-0.128-0.031-0.174-0.08c-0.045-0.049-0.069-0.113-0.066-0.18c0.373-5.22,0.163-10.485-0.622-15.658
						C292.426,225.379,292.799,230.654,292.587,235.901z M292.63,193.113c-1.559,0.207-3.317,0.317-5.081,0.317
						c-9.983,0-20.809-3.241-21.253-12.339c0.075-2.671,2.605-3.881,4.748-4.1c0.527-0.082,1.04-0.122,1.538-0.122
						c4.259,0,7.332,2.887,10.587,5.943c2.06,1.935,4.19,3.935,6.694,5.223c2.191,1.127,4.287,1.713,6.228,1.74
						c0.565,0.008,0.9,0.4,1.016,0.734c0.14,0.404,0.027,0.805-0.302,1.071C295.717,192.46,293.668,192.958,292.63,193.113z
						 M313.652,252.681c-0.028,0.061-0.077,0.107-0.14,0.131c-1.941,0.63-3.955,0.947-6,0.947c-1.451,0-2.895-0.162-4.291-0.482
						c1.11,0.185,2.247,0.286,3.382,0.286c2.324,0,4.589-0.41,6.733-1.219c0.029-0.011,0.058-0.016,0.088-0.016
						c0.103,0,0.197,0.065,0.234,0.162C313.681,252.552,313.679,252.62,313.652,252.681z"/>
					<path style="fill:#BA9F88;" d="M360.315,99.265c-0.298-0.841-1.334-1.102-1.63-1.141l0-0.001
						c-0.07-0.009-0.162-0.047-0.252-0.104c-1.713-1.246-4.036-1.886-6.88-1.886c-8.788,0-20.143,5.955-23.413,7.78l-0.436,0.243
						l0.243,0.436c0.891,1.602,3.827,7.402,4.197,14.774l0.038,0.762l0.683-0.339l0.332-0.165c0.684-0.339,1.367-0.678,2.053-1.022
						c1.761-0.996,4.151-2.232,6.755-3.493c3.094-1.668,5.843-3.285,8.338-4.909c-0.268,0.174-0.531,0.35-0.802,0.522l-0.031,0.02
						l-0.028,0.024c-0.665,0.572-1.767,1.741-3.044,3.094c-2.382,2.525-5.644,5.983-7.894,7.466
						c-1.021,0.673-3.285,3.095-3.277,4.627c-0.238,0.967-4.888,14.389-8.603,23.349l-0.152,0.152l0.089,0.227
						c-0.079,8.007,1.347,14.678,2.133,16.48l0.112,0.256l0.276,0.04c1.172,0.168,2.305,0.253,3.367,0.253
						c3.882,0,7.031-1.122,9.358-3.335c5.88-5.591,5.178-16.49,4.822-19.697c-0.684-6.337,2.273-11.762,6.21-18.194
						c3.271-5.358,3.361-5.625,3.204-9.517l-0.041-1.112c-0.12-3.382,0.467-6.597,0.828-8.213l0.305-1.365l-1.1,0.856
						c-1.22,0.955-2.519,1.899-3.871,2.826c1.777-1.223,3.424-2.458,4.981-3.73l0.086-0.07l0.048-0.1
						c0.023-0.049,0.032-0.072,0.046-0.093C360.328,101.759,360.604,100.096,360.315,99.265z M336.073,164.614
						c-1.574,0-2.854-1.28-2.854-2.854c0-1.573,1.28-2.854,2.854-2.854c1.061,0,2.028,0.596,2.525,1.556l0.227,0.439l-0.012,0.01
						l0.058,0.29c0.038,0.189,0.057,0.377,0.057,0.559C338.927,163.333,337.647,164.614,336.073,164.614z M350.372,110.182
						c0.622-0.405,1.228-0.811,1.82-1.218C351.595,109.373,350.99,109.78,350.372,110.182z"/>
					<path style="fill:#BA9F88;" d="M311.556,323.27l-0.01-0.04l-0.03-0.04c-1.67-2.53-2.98-5.22-3.89-7.99l-0.29-0.89l-0.57,0.74
						c-1.74,2.21-5.69,5.92-12.62,5.92c-4.44,0-9.4-1.54-14.75-4.6c-4.41-2.51-9.03-4.93-13.5-7.28l-0.36-0.18
						c0,0,6.53,35.12,6.97,38.4c0.37,1.79,0.73,3.6,1.07,5.41c-0.04-0.55-0.06-1.1-0.06-1.66c0-13.62,11.32-24.71,25.22-24.71
						c4.18,0,8.12,1,11.59,2.77c0.07-0.21,0.13-0.43,0.2-0.65l0.43-1.42l-0.05,0.03c0.3-1.1,0.56-2.22,0.77-3.34l0.03-0.15
						l-0.07-0.14L311.556,323.27z"/>
					<path style="fill:#BA9F88;" d="M321.336,252.33l-0.14,0.08l-0.07,0.16c-3.33,7.91-11.06,10.07-11.77,10.25
						c-11.08-0.12-28.15-10.76-31.47-12.9l-0.06-0.04l-0.07-0.02c-8.45-2.47-15.18-5.15-21.18-8.43c-2.02-1.1-3.96-2.31-5.75-3.59
						c-1.96-1.37-3.71-2.83-5.22-4.32c-1.73-1.69-3.16-3.46-4.25-5.26c-0.96-1.59-2.09-3.75-2.31-6.27l0.2-0.16l-0.03-0.28
						c-0.09-0.74-0.12-1.47-0.07-2.17l0.08-1.09l-0.03,0.02l0.04-0.18c0.26-1.37,1.71-8.5,4.2-14.15c0.33-0.74,0.82-1.53,1.47-2.36
						l0.25-0.32l-0.26-0.31l-9.36-11.06l1.72-14.32l0.04-0.31l-0.27-0.17c-2.09-1.32-20.56-13.44-24.6-31.87
						c-2.23-10.19,0.23-20.59,7.31-30.89c7.58-11.05,18-16.65,30.95-16.65c16.06,0,30.64,8.57,33.39,10.29l0.34,0.21l0.28-0.28
						c1.85-1.81,11.68-10.86,23.16-10.86c0.34,0,0.69,0.01,1.03,0.02c7.142,0.223,13.344,4.621,17.969,9.69
						c0.068,0.074,0.145,0.153,0.244,0.164c0.204,0.022,0.312-0.231,0.353-0.432c0.683-3.346,1.369-6.779,0.837-10.152
						c-0.227-1.439-0.671-2.834-1.138-4.213c-2.085-6.158-4.828-12.397-9.829-16.551c-1.382-1.148-2.907-2.11-4.426-3.068
						c-8.86-5.585-18.011-11.477-28.232-14.226c-10.576-2.844-22.002-3.726-32.891-2.677c-2.088,0.201-3.961,0.967-6.076,1.18
						c-2.769,0.278-5.53,0.646-8.272,1.125c-5.358,0.937-10.649,2.302-15.736,4.236c-7.876,2.993-15.277,7.458-21.307,13.373
						c-2.949,2.893-5.562,6.137-7.679,9.688c-0.937,1.572-1.544,3.366-2.489,4.906c-1.116,1.818-2.128,2.891-2.428,5.145
						c-0.257,1.931-0.145,3.891-0.3,5.833c-0.05,0.63-0.13,1.265-0.346,1.858c-1.021,2.802-4.18,2.88-6.682,3.018
						c-2.828,0.157-5.651,0.53-8.38,1.31c-4.459,1.275-8.572,3.672-11.381,7.424c-1.49,1.99-2.62,4.34-3.35,6.99l-0.38,1.36
						l1.15-0.82c0.22-0.16,0.46-0.3,0.7-0.45c-0.57,0.38-1.14,0.76-1.68,1.18l-0.19,0.15v0.2c-2.4,11.13,1.9,23.78,2.79,26.2
						c0.55,1.7,1.15,3.37,1.81,5.02c4,10.01,10.34,19.45,19.59,25.27c2.53,1.59,5.25,2.9,8.1,3.78c0.81,0.25,1.69,0.35,2.48,0.64
						c0.91,0.33,1.04,0.55,1.34,1.67c0.49,1.88,0.42,3.87,0.32,5.79c-0.53,11.11-3.15,21.42-8,31.42l-0.6,1.23l1.25-0.55
						c2.81-1.24,6.08-1.58,7.01-1.65h0.05c0.19,0,0.36,0.1,0.44,0.25c0.1,0.17,0.1,0.36-0.01,0.53c-2.46,3.75-1.91,8.79-1.37,11.46
						l0.19,0.97l0.67-0.73c3.32-3.66,9.7-3.7,9.97-3.7c0.18,0,0.35,0.1,0.44,0.26c1.71,3.13,3.62,6.17,5.66,9.04l0.09,0.12
						l0.14,0.06c0.18,0.07,0.3,0.23,0.31,0.43l0.01,0.14l0.05,0.08l-0.3,2.88c-1.1,10.23-4.86,22.17-9.18,33.18
						c8.21,0.99,16.58,1.87,24.31,2.63c-0.23-0.38-0.46-0.76-0.68-1.15c-8.61-15.13-12.29-29.32-13.47-34.71l-0.59-2.71
						c8.75,11.91,17.45,17.18,19.92,18.51l1.08,0.58l0.05,0.07c0.04,0.04,0.05,0.07,0.06,0.09c0.1,0.28,2.39,5.88,13.51,17.63
						c1.171,1.237,2.476,2.337,3.864,3.322c1.336,0.948,3.47,0.572,5.074,0.612c0.871,0.021,1.785,0.054,2.537,0.494
						c1.358,0.794,1.706,2.48,2.615,3.657c1.109,1.436,3.644,1.752,5.31,2.285c7.28,2.33,14.8,3.93,22.35,5.09
						c11.88,1.82,23.98,1.05,33.13-7.85c5.72-5.56,8.76-12.8,10.05-20.55c0.52-3.08,1.54-5.92,1.94-9.07
						c0.28-2.27,0.57-4.55,0.86-6.82l0.12-0.95l-0.85,0.44C328.056,248.49,324.676,250.37,321.336,252.33z M159.654,119.257
						c0.444-0.276,0.899-0.537,1.359-0.791C160.553,118.72,160.098,118.981,159.654,119.257z M161.903,117.987
						c0.466-0.238,0.944-0.457,1.424-0.673C162.847,117.529,162.369,117.749,161.903,117.987z M165.548,151.3L165.548,151.3
						L165.548,151.3z M164.27,116.9c0.497-0.203,1.004-0.386,1.513-0.566C165.274,116.514,164.766,116.697,164.27,116.9z
						 M166.724,116.006c0.562-0.179,1.134-0.334,1.708-0.484C167.858,115.672,167.286,115.826,166.724,116.006z M169.249,115.304
						c0.713-0.168,1.437-0.308,2.166-0.431C170.686,114.997,169.962,115.136,169.249,115.304z M177.336,114.37
						c-1.4,0-2.78,0.08-4.14,0.24c1.36-0.17,2.74-0.25,4.14-0.25c0.58,0,1.16,0.02,1.75,0.05
						C178.496,114.38,177.916,114.37,177.336,114.37z M208.03,129.793c-0.121,0.128-0.239,0.238-0.356,0.338
						C207.791,130.031,207.909,129.922,208.03,129.793z M207.518,130.256c-0.057,0.043-0.113,0.083-0.169,0.119
						C207.404,130.339,207.461,130.299,207.518,130.256z M207.148,130.496c-0.017,0.009-0.034,0.014-0.051,0.022
						C207.114,130.51,207.131,130.505,207.148,130.496z M200.619,107.211c-0.176-0.078-0.347-0.16-0.526-0.235
						C200.271,107.051,200.442,107.133,200.619,107.211z M199.311,106.665c-0.268-0.106-0.53-0.216-0.804-0.318
						C198.781,106.449,199.043,106.559,199.311,106.665z M197.806,106.102c-0.318-0.112-0.631-0.227-0.957-0.334
						C197.175,105.875,197.488,105.99,197.806,106.102z M196.182,105.564c-0.356-0.111-0.709-0.224-1.076-0.329
						C195.474,105.34,195.826,105.453,196.182,105.564z M194.507,105.074c-0.407-0.112-0.812-0.224-1.234-0.329
						C193.694,104.85,194.099,104.963,194.507,105.074z M192.792,104.633c-0.479-0.115-0.959-0.23-1.458-0.338
						C191.833,104.403,192.313,104.518,192.792,104.633z M205.696,141.61c-0.72,0.57-1.63,1.02-2.76,1.36
						c-0.47,0.15-0.95,0.25-1.41,0.35c-0.57,0.12-1.12,0.24-1.62,0.43c-1,0.37-1.67,1.26-2.28,2.15c-0.58,0.88-1.05,1.82-1.41,2.82
						c-0.57,1.54-1.08,3.88-0.34,6.21c0.1,0.32,0.22,0.59,0.36,0.89c0.08,0.18,0.17,0.37,0.25,0.58c0.05,0.13,0.12,0.4,0.06,0.66
						c-0.05,0.2-0.17,0.41-0.35,0.57c-0.32,0.29-0.72,0.5-1.31,0.66c-0.49,0.14-1,0.24-1.51,0.29c-0.26,0.02-0.53,0.04-0.8,0.04
						c-0.27,0-0.55-0.02-0.82-0.04l-0.87-0.71c-0.63-0.5-1.08-1.5-1.42-2.23l-0.02-0.06c-1.15-2.52-1.43-5.54-0.78-8.51
						c0.74-3.43,2.59-6.82,5.66-10.36c0.33-0.37,0.77-0.88,0.8-1.55c0.02-0.4-0.13-0.77-0.23-1.04
						c-2.92-7.34-7.56-14.06-13.42-19.42l-0.12-0.11c0.21,0.02,0.43,0.04,0.64,0.06c5.72,0.73,10.57,2.73,14.02,5.8
						c1.47,1.3,2.76,2.85,4,4.35c1.59,1.92,3.24,3.91,5.29,5.38c0.31,0.23,0.67,0.47,1.08,0.5h0.09c0.1,0,0.21-0.02,0.31-0.04
						l-0.65,0.19l0.48,0.58c1.1,1.32,1.72,3.07,1.71,4.8C208.316,138.29,207.336,140.31,205.696,141.61z M226.399,235.367
						c-0.005-0.232-0.001-0.445,0.001-0.665C226.398,234.922,226.394,235.135,226.399,235.367z M226.449,233.344
						c-0.021,0.264-0.04,0.531-0.048,0.823C226.41,233.874,226.429,233.607,226.449,233.344z M226.426,236.076
						c0.009,0.201,0.014,0.396,0.026,0.604C226.44,236.472,226.435,236.277,226.426,236.076z M226.515,237.556
						c0.014,0.177,0.025,0.348,0.041,0.53C226.54,237.905,226.529,237.733,226.515,237.556z M226.465,233.091
						c0.027-0.275,0.083-0.556,0.153-0.84C226.549,232.535,226.492,232.816,226.465,233.091z M226.663,239.156
						c0.014,0.135,0.027,0.266,0.042,0.402C226.689,239.421,226.677,239.29,226.663,239.156z M226.867,240.869
						c0.009,0.068,0.017,0.135,0.026,0.203C226.884,241.004,226.876,240.937,226.867,240.869z M226.662,232.075
						c0.073-0.262,0.163-0.527,0.269-0.794C226.825,231.548,226.734,231.813,226.662,232.075z M227.045,231.005
						c0.105-0.243,0.217-0.487,0.345-0.732C227.262,230.518,227.15,230.762,227.045,231.005z M227.606,229.883
						c0.081-0.144,0.165-0.287,0.253-0.431C227.771,229.596,227.687,229.74,227.606,229.883z M228.366,228.669
						c0.054-0.079,0.107-0.158,0.163-0.236C228.473,228.512,228.42,228.59,228.366,228.669z M231.941,224.474
						c0.004-0.004,0.007-0.008,0.011-0.011C231.948,224.467,231.945,224.471,231.941,224.474z M232.536,223.889
						c0.172-0.167,0.345-0.331,0.517-0.493C232.881,223.558,232.708,223.723,232.536,223.889z M233.427,223.049
						c0.243-0.225,0.486-0.445,0.725-0.659C233.913,222.603,233.67,222.824,233.427,223.049z M238.346,218.95
						c-0.12,0.09-0.24,0.18-0.37,0.28c0.22-0.17,0.42-0.33,0.59-0.45L238.346,218.95z M308.874,283.634
						C308.874,283.634,308.874,283.633,308.874,283.634c-0.002-0.005-0.004-0.009-0.005-0.013
						C308.871,283.625,308.872,283.629,308.874,283.634L308.874,283.634z"/>
					<path style="fill:#754D2B;" d="M308.874,283.633C308.874,283.633,308.874,283.634,308.874,283.633L308.874,283.633
						c-0.001-0.004-0.003-0.009-0.005-0.013C308.87,283.625,308.872,283.629,308.874,283.633z"/>
					<path style="fill:none;stroke:#754D2B;stroke-width:0;stroke-linecap:round;stroke-linejoin:round;" d="M226.449,233.344
						c-0.021,0.264-0.04,0.531-0.048,0.823"/>
					<path style="fill:none;stroke:#754D2B;stroke-width:0;stroke-linecap:round;stroke-linejoin:round;" d="M226.399,234.703
						c-0.001,0.219-0.005,0.432-0.001,0.665"/>
					<path style="fill:none;stroke:#754D2B;stroke-width:0;stroke-linecap:round;stroke-linejoin:round;" d="M228.529,228.433
						c-0.056,0.079-0.109,0.158-0.163,0.236"/>
					<path style="fill:none;stroke:#754D2B;stroke-width:0;stroke-linecap:round;stroke-linejoin:round;" d="M226.931,231.281
						c-0.105,0.267-0.196,0.532-0.269,0.794"/>
					<path style="fill:none;stroke:#754D2B;stroke-width:0;stroke-linecap:round;stroke-linejoin:round;" d="M227.39,230.273
						c-0.128,0.246-0.241,0.489-0.345,0.732"/>
					<path style="fill:none;stroke:#754D2B;stroke-width:0;stroke-linecap:round;stroke-linejoin:round;" d="M227.859,229.452
						c-0.088,0.144-0.172,0.288-0.253,0.431"/>
					
						<line style="fill:none;stroke:#754D2B;stroke-width:0;stroke-linecap:round;stroke-linejoin:round;" x1="231.952" y1="224.463" x2="231.941" y2="224.474"/>
					<path style="fill:none;stroke:#754D2B;stroke-width:0;stroke-linecap:round;stroke-linejoin:round;" d="M226.619,232.251
						c-0.07,0.284-0.126,0.565-0.153,0.84"/>
					
						<line style="fill:none;stroke:#754D2B;stroke-width:0;stroke-linecap:round;stroke-linejoin:round;" x1="165.548" y1="151.299" x2="165.548" y2="151.3"/>
					<path style="fill:none;stroke:#754D2B;stroke-width:0;stroke-linecap:round;stroke-linejoin:round;" d="M207.674,130.131
						c0.117-0.1,0.235-0.209,0.356-0.338"/>
					<path style="fill:none;stroke:#754D2B;stroke-width:0;stroke-linecap:round;stroke-linejoin:round;" d="M207.097,130.518
						c0.017-0.008,0.034-0.013,0.051-0.022"/>
					<path style="fill:none;stroke:#754D2B;stroke-width:0;stroke-linecap:round;stroke-linejoin:round;" d="M207.348,130.375
						c0.056-0.036,0.113-0.076,0.169-0.119"/>
					<path style="fill:none;stroke:#754D2B;stroke-width:0;stroke-linecap:round;stroke-linejoin:round;" d="M226.452,236.68
						c-0.012-0.209-0.017-0.403-0.026-0.604"/>
					<path style="fill:none;stroke:#754D2B;stroke-width:0;stroke-linecap:round;stroke-linejoin:round;" d="M226.556,238.086
						c-0.016-0.181-0.027-0.353-0.041-0.53"/>
					<path style="fill:none;stroke:#754D2B;stroke-width:0;stroke-linecap:round;stroke-linejoin:round;" d="M233.053,223.396
						c-0.172,0.162-0.345,0.327-0.517,0.493"/>
					<path style="fill:none;stroke:#754D2B;stroke-width:0;stroke-linecap:round;stroke-linejoin:round;" d="M234.152,222.389
						c-0.239,0.214-0.482,0.435-0.725,0.659"/>
					<path style="fill:none;stroke:#754D2B;stroke-width:0;stroke-linecap:round;stroke-linejoin:round;" d="M191.335,104.296
						c0.499,0.108,0.978,0.222,1.458,0.338"/>
					<path style="fill:none;stroke:#754D2B;stroke-width:0;stroke-linecap:round;stroke-linejoin:round;" d="M200.093,106.975
						c0.179,0.075,0.35,0.158,0.526,0.235"/>
					<path style="fill:none;stroke:#754D2B;stroke-width:0;stroke-linecap:round;stroke-linejoin:round;" d="M198.507,106.347
						c0.274,0.102,0.536,0.212,0.804,0.318"/>
					<path style="fill:none;stroke:#754D2B;stroke-width:0;stroke-linecap:round;stroke-linejoin:round;" d="M196.849,105.768
						c0.326,0.107,0.639,0.222,0.957,0.334"/>
					<path style="fill:none;stroke:#754D2B;stroke-width:0;stroke-linecap:round;stroke-linejoin:round;" d="M195.106,105.235
						c0.367,0.105,0.72,0.218,1.076,0.329"/>
					<path style="fill:none;stroke:#754D2B;stroke-width:0;stroke-linecap:round;stroke-linejoin:round;" d="M193.273,104.745
						c0.422,0.105,0.827,0.217,1.234,0.329"/>
					<path style="fill:none;stroke:#754D2B;stroke-width:0;stroke-linecap:round;stroke-linejoin:round;" d="M161.013,118.466
						c-0.46,0.254-0.915,0.515-1.359,0.791"/>
					<path style="fill:none;stroke:#754D2B;stroke-width:0;stroke-linecap:round;stroke-linejoin:round;" d="M171.415,114.874
						c-0.729,0.123-1.453,0.263-2.166,0.431"/>
					<path style="fill:none;stroke:#754D2B;stroke-width:0;stroke-linecap:round;stroke-linejoin:round;" d="M168.433,115.521
						c-0.574,0.15-1.147,0.305-1.708,0.484"/>
					<path style="fill:none;stroke:#754D2B;stroke-width:0;stroke-linecap:round;stroke-linejoin:round;" d="M165.783,116.335
						c-0.509,0.179-1.016,0.362-1.513,0.566"/>
					<path style="fill:none;stroke:#754D2B;stroke-width:0;stroke-linecap:round;stroke-linejoin:round;" d="M163.327,117.314
						c-0.48,0.215-0.958,0.435-1.424,0.673"/>
					<path style="fill:none;stroke:#754D2B;stroke-width:0;stroke-linecap:round;stroke-linejoin:round;" d="M226.893,241.072
						c-0.009-0.068-0.017-0.135-0.026-0.203"/>
					<path style="fill:none;stroke:#754D2B;stroke-width:0;stroke-linecap:round;stroke-linejoin:round;" d="M226.705,239.558
						c-0.015-0.136-0.028-0.268-0.042-0.402"/>
				</g>
				<path style="fill:#BA9F88;" d="M327,161.463c0.124-0.275-1.605-17.484-1.605-17.484l-31.761,0.508c0,0,4.464,14.781,24,19.537
					C317.634,164.024,324.293,167.463,327,161.463z"/>
				<path style="fill:#BA9F88;" d="M276.402,145.11c0,0-5.707,29.744-29.524,25.573c0,0-18.549-3.512-2.524-24.805L276.402,145.11z"
					/>
				<path style="fill:#B47742;" d="M278.341,144.676c-0.765-1.656-1.447-3.351-2.042-5.076c-0.283-0.819-0.69-1.722-0.812-2.582
					c-0.079-0.554,0.022-1.086-0.096-1.652c-0.403-1.932-1.354-3.693-2.692-5.137c-2.503-2.698-6.064-4.241-9.556-5.194
					c-1.323-0.361-2.669-0.641-4.026-0.84c-0.495-0.073-1.127-0.25-1.632-0.191c-5.018,0.587-9.964,2.628-12.829,6.973
					c-0.509,0.772-0.905,1.601-1.235,2.46l-0.033-0.095c-0.855,1.997-1.299,4.164-1.443,6.337c-0.015,0.094-0.031,0.188-0.046,0.281
					c-0.174,1.08-0.306,2.17-0.596,3.225c-0.142,0.516-1.3,2.647-0.454,2.956c0.352,0.129,0.736-0.035,1.091-0.154
					c0.607-0.204,1.249-0.28,1.885-0.349c10.115-1.091,20.325-0.459,30.499-0.465c0.86-0.001,1.695-0.075,2.55-0.139
					c0.467-0.035,0.551-0.675,0.788-0.188C277.504,144.518,278.494,145.008,278.341,144.676z"/>
				<path style="fill:#B47742;" d="M292.35,140.285c-0.472,1.506-0.794,2.919-1.054,4.49c3.459-0.09,6.913-0.35,10.346-0.779
					c1.097-0.137,2.194-0.292,3.297-0.368c1.452-0.101,2.91-0.066,4.366-0.032c5.363,0.128,10.726,0.256,16.09,0.384
					c0.383-1.188,0.285-2.595,0.362-3.834c0.084-1.354,0.156-2.708,0.217-4.062c0.047-1.058,0.078-1.952-0.245-2.974
					c-0.287-0.905-0.714-1.763-1.211-2.57c-2.719-4.407-7.617-7.316-12.762-7.902c-5.145-0.586-10.45,1.07-14.55,4.234
					c-1.508,1.164-2.764,3.079-3.31,4.905c-0.302,1.008-0.124,2.243-0.274,3.295c-0.162,1.133-0.416,2.25-0.719,3.353
					C292.73,139.048,292.544,139.668,292.35,140.285z"/>
				<path style="fill:#E2C597;" d="M206.546,146.931c-0.694-3.851,1.467-7.753,0.964-11.633c-0.281-2.171-2.806-4.062-4.064-5.853
					c-4.765-6.785-10.731-11.702-18.798-13.617c-8.067-1.915-16.732-0.458-24.311,2.901c-1.262,0.559-2.365,1.278-3.156,2.409
					c-0.782,1.117-1.162,1.981-1.27,3.34c-1.109,14.071,3.429,28.663,10.834,40.426c0.961,1.526,1.927,3.059,3.1,4.429
					c2.274,2.655,5.244,4.604,8.197,6.475c1.615,1.023,3.238,2.033,4.868,3.031c2.466,1.51,4.999,3.01,7.809,3.692
					c3.658,0.887,7.656,0.275,10.881-1.665c5.558-3.345,7.061-9.632,8.367-15.548c0.416-1.886,1.176-3.954,1.178-5.901
					C211.149,154.754,207.338,151.324,206.546,146.931z"/>
				<path style="fill:#E2C597;" d="M332.411,120.857l24.951-15.073c0,0-1.244,9.219-1.024,12.585
					c0.22,3.366-4.829,9.585-4.829,9.585s-5.488,9.878-4.902,17.195c0.585,7.317,0.073,15-3.585,17.268
					c-3.659,2.268-4.39,5.195-9.659,4.61c-5.268-0.585-5.488-1.244-5.488-1.244l-1.683-19.39L332.411,120.857z"/>
				<path style="fill:#FFFFFF;" d="M246.801,145.439c0,0.001,0,0.003,0,0.004c0,6.87,5.929,12.439,13.244,12.439
					c7.314,0,13.244-5.569,13.244-12.439c0-0.001,0-0.002,0-0.004H246.801z"/>
				<path style="fill:#FFFFFF;" d="M297.878,143.756c0.04,6.837,5.951,12.37,13.24,12.37c7.289,0,13.2-5.532,13.24-12.37H297.878z"
					/>
				<path style="fill:#E2C597;" d="M241.377,228.203c-1.85,6.714-3.432,13.547-3.816,20.501c-0.384,6.954,0.475,14.073,3.333,20.424
					c1.086,2.414,2.468,4.698,4.124,6.765c1.65,2.059,3.456,4.147,6.302,4.204c1.148,0.023,2.333-0.281,3.425,0.074
					c1.129,0.368,1.926,1.371,2.532,2.393c0.437,0.738,0.795,1.558,1.327,2.235c0.484,0.616,0.88,0.619,1.614,0.808
					c1.939,0.5,3.873,1.005,5.822,1.47c9.396,2.243,18.858,4.22,28.355,5.99c9.434,1.758,19.12-3.054,25.254-10.078
					c4.703-5.385,7.747-11.977,10.042-18.691c1.412-4.13,1.842-8.306,2.426-12.614l0.585-5.122l-11.509,5.848
					c0,0-7.661,6.883-18.052,4.981c-10.39-1.903-23.707-6.878-23.707-6.878l-12.439-4.098l-13.317-6.293
					c0,0-7.024-4.976-8.049-6.146C244.044,232.167,242.55,230.307,241.377,228.203z"/>
			</g>
			<g>
				<g>
					<g>
						<path style="fill:#0B1011;" d="M188.169,146.962c0.86-3.969,3.117-7.511,5.78-10.578c0.316-0.364,0.656-0.764,0.676-1.245
							c0.012-0.287-0.093-0.565-0.2-0.833c-2.973-7.49-7.709-14.273-13.718-19.642c6.549,0.052,13.016,3.073,17.26,8.061
							c1.356,1.593,2.5,3.38,4.046,4.789c1.638,1.493,3.709,2.546,5.002,4.346c1.353,1.883,1.65,4.458,0.831,6.627
							c-0.819,2.169-2.708,3.887-4.924,4.571c-1.244,0.384-2.581,0.463-3.769,0.993c-2.093,0.934-2.858,4.299-3.202,6.565
							c-0.344,2.266,0.051,3.647,0.675,5.853c0.141,0.499-0.094,1.023-0.45,1.401c-0.16,0.169-0.48,0.13-0.701,0.204
							c-1.284,0.431-3.185,1.084-4.51,0.449c-0.967-0.464-1.561-1.814-1.982-2.736C187.735,153.052,187.536,149.882,188.169,146.962
							z"/>
						<path style="fill:#0B1011;" d="M209.212,171.441c0,0-2.738,25.884-16.302,23.022l-0.404-11.799
							C192.506,182.664,204.359,185.378,209.212,171.441z"/>
						<path style="fill:#0B1011;" d="M295.522,242.902c0.359,0,14.73,9.557,29.101-1.796L295.522,242.902z"/>
						<path style="fill:#0B1011;" d="M276.774,249.79c0.265,0.177,20.075,13.442,32.633,13.531c0,0,9.02-2.034,12.469-11.232
							c0,0-6.016,5.349-13,5.041c-7.572-0.334-17.599-3.537-17.599-3.537L276.774,249.79z"/>
						<path style="fill:#0B1011;" d="M245.798,278.573c-7.786-7.927-15.11-20.612-15.11-20.612
							c-13.756-6.146-21.204-17.836-21.204-17.836s2.976,17.119,13.369,35.777L245.798,278.573z"/>
						<path style="fill:#0B1011;" d="M307.299,291.811l-9.571,1.876l-12.439-1.463c-9.829-1.039-19.677-4.167-26.611-6.796
							c0.036,0.043,0.072,0.087,0.097,0.147c0.375,0.909,0.7,1.835,1.01,2.767h0.995v2.83c0.014,0.037,0.03,0.073,0.043,0.111
							c0.047,0.132,0.014,0.244-0.043,0.345v0.668c0.368,1.169,0.688,2.344,0.978,3.527c0.493,1.444,0.986,2.889,1.525,4.319
							c1.206,3.201,2.477,6.454,3.181,9.816c4.272,2.241,8.541,4.491,12.678,6.851c20.781,11.854,28.829-2.634,28.829-2.634
							C305.63,308.76,307.299,291.811,307.299,291.811z"/>
						<path style="fill:#0B1011;" d="M266.516,196.719c0,0-9.489-3.882-14.018-1.941l6.398-4.313L266.516,196.719z"/>
						<path style="fill:#0B1011;" d="M328.123,193.196c0,0,4.96-2.372,9.705-0.359l-3.235-4.888L328.123,193.196z"/>
						<path style="fill:#0B1011;" d="M349.825,111.126c-2.81,0.871-15.51,6.939-17.699,8.904c0.876,2.05,0.14,2.844-0.627,4.938
							c-7.332,20.022-4.926,25.834-4.774,25.475c3.86-9.136,9.055-24.124,9.04-24.453c-0.057-1.236,2.018-3.566,3.051-4.247
							C342.32,119.434,347.957,112.72,349.825,111.126z"/>
						<path style="fill:none;stroke:#0B1011;stroke-width:2;stroke-linecap:round;stroke-linejoin:round;stroke-miterlimit:10;" d="
							M246.802,278.906c-0.99-0.758-1.925-1.582-2.782-2.487c-11.634-12.293-13.61-17.78-13.61-17.78s-15.146-6.805-27.439-29.195
							c0,0-8.341,0-10.756,5.268c0,0-2.854-8.342,0.878-14.049c0,0-7.463,0.439-10.097,3.951c0,0,12.951-22.61,9.658-41.707
							c0,0-22.61-1.976-33.366-35.122c-0.421-1.126-0.787-2.272-1.126-3.425c-3.155-10.739-4.775-25.177,3.823-33.902
							c2.696-2.736,6.162-4.531,9.824-5.599c2.338-0.682,4.756-1.065,7.18-1.266c2.137-0.177,6.955,0.619,7.991-0.835
							c1.177-1.65,0.703-5.49,1.123-7.504c0.602-2.884,1.548-5.692,2.772-8.371c2.466-5.395,6.051-10.267,10.355-14.34
							c7.824-7.405,17.806-12.233,28.147-15.25c20.467-5.972,43.485-5.831,63.497,1.831c2.913,1.116,5.752,2.429,8.465,3.971
							c2.998,1.704,5.834,3.682,8.578,5.772c4.473,3.407,8.745,7.155,12.126,11.648c4.559,6.057,7.43,13.664,6.246,21.295
							c-0.698,4.501,1.656,7.877,2.617,12.296c1.297,5.964,0.966,12.243-1.497,17.873c-6.146,14.049-2.195,32.927-0.878,34.902
							c0,0,13.829,4.39,6.366,20.634c0,0,20.854,32.268,6.146,47.415c0,0-0.22,7.902-5.488,10.537c0,0-2.854,1.098-2.854,1.098
							c-1.446,11.39-2.567,22.477-9.176,32.303c-0.654,0.973-1.345,1.92-2.073,2.84c-1.776,2.245-3.768,4.332-6.044,6.068
							c-9.398,7.172-20.666,5.709-31.517,3.901c-8.328-1.388-16.882-3.203-24.838-6.304"/>
						<path style="fill:none;stroke:#0B1011;stroke-width:2;stroke-linecap:round;stroke-linejoin:round;stroke-miterlimit:10;" d="
							M327.406,103.762c0,0,21.976-12.947,31.345-6.133c0,0,5.451,0.681-1.022,7.666c0,0-1.363,4.599-1.192,9.54
							c0.17,4.94,0.511,4.77-3.237,10.903c-3.748,6.133-6.814,11.584-6.133,17.887c0.681,6.303,1.061,26.412-18.635,23.257"/>
						<path style="fill:none;stroke:#0B1011;stroke-linecap:round;stroke-linejoin:round;stroke-miterlimit:10;" d="
							M245.191,201.345l-9.659-11.415l1.756-14.634c0,0-43.133-25.702-17.561-62.927c23.122-33.659,64.683-6.146,64.683-6.146
							s23.707-24.878,43.024-0.293"/>
						<path style="fill:none;stroke:#0B1011;stroke-linecap:round;stroke-linejoin:round;stroke-miterlimit:10;" d="
							M259.533,190.223c0,0-13.317,7.463-16.098,13.756c-2.781,6.293-4.244,14.341-4.244,14.341"/>
						<g>
							<path style="fill:#0B1011;" d="M278.62,201.853c-2.935-0.762-5.82-1.719-8.63-2.864c-2.774-1.154-5.652-2.391-8.039-4.461
								c-2.368-2.033-4.24-4.658-5.326-7.607c-1.092-2.934-1.4-6.214-0.645-9.315c0.74-3.078,2.502-5.971,5.107-7.887
								c2.587-1.931,5.787-2.832,8.923-2.948c3.163-0.137,6.295,0.586,9.169,1.722c2.888,1.143,5.554,2.699,8.096,4.366
								c0.462,0.303,0.591,0.923,0.288,1.385c-0.303,0.462-0.923,0.591-1.385,0.288c-0.002-0.001-0.009-0.006-0.011-0.007
								c-2.461-1.653-5.001-3.166-7.697-4.266c-2.691-1.095-5.541-1.778-8.401-1.684c-2.846,0.072-5.707,0.862-7.971,2.518
								c-2.272,1.629-3.867,4.157-4.558,6.901c-0.701,2.746-0.469,5.716,0.503,8.414c0.961,2.707,2.662,5.153,4.831,7.056
								c2.156,1.921,4.878,3.144,7.618,4.316c2.744,1.153,5.565,2.123,8.439,2.903c0.323,0.087,0.514,0.42,0.427,0.743
								C279.27,201.746,278.941,201.936,278.62,201.853z"/>
						</g>
						<g>
							<path style="fill:#0B1011;" d="M307.13,173.966c1.872-2.348,4.369-4.027,6.968-5.241c2.602-1.206,5.365-2.098,8.255-2.428
								c2.874-0.322,5.901-0.053,8.603,1.214c2.665,1.244,4.979,3.368,6.178,6.131c0.593,1.374,0.834,2.92,0.812,4.347
								c-0.021,1.425-0.03,2.799-0.2,4.252c-0.16,1.439-0.614,2.913-1.378,4.176c-0.741,1.283-1.754,2.354-2.829,3.301
								c-2.184,1.877-4.667,3.226-7.074,4.613c-2.426,1.378-4.947,2.695-7.678,3.498c-0.23,0.068-0.471-0.064-0.538-0.294
								c-0.067-0.227,0.063-0.466,0.288-0.537c2.608-0.815,5.04-2.133,7.423-3.541c2.384-1.425,4.801-2.804,6.819-4.603
								c2.025-1.782,3.492-4.099,3.684-6.764c0.135-1.315,0.125-2.731,0.121-4.087c-0.008-1.354-0.238-2.607-0.763-3.789
								c-1.063-2.352-3.138-4.215-5.519-5.272c-2.377-1.07-5.115-1.285-7.743-0.943c-2.643,0.344-5.234,1.225-7.656,2.399
								c-2.41,1.173-4.618,2.744-6.194,4.794c-0.335,0.439-0.962,0.524-1.402,0.189c-0.439-0.335-0.524-0.962-0.189-1.402
								C307.119,173.98,307.127,173.969,307.13,173.966z"/>
						</g>
						<path style="fill:none;stroke:#0B1011;stroke-linecap:round;stroke-linejoin:round;stroke-miterlimit:10;" d="
							M156.486,121.493c6.983-5.758,16.525-7.978,25.504-6.841c5.094,0.645,10.182,2.386,14.023,5.794
							c3.362,2.983,5.639,7.11,9.285,9.738c0.326,0.235,0.682,0.464,1.083,0.495c0.644,0.049,1.204-0.418,1.648-0.888
							c2.24-2.375,3.531-5.62,3.536-8.884c0.005-3.264-1.277-6.513-3.51-8.894c-1.415-1.509-3.171-2.659-4.998-3.629
							c-4.685-2.489-9.888-3.862-15.119-4.746"/>
						<path style="fill:none;stroke:#0B1011;stroke-linecap:round;stroke-linejoin:round;stroke-miterlimit:10;" d="
							M331.747,120.344c9.416-4.668,18.945-9.412,26.882-16.3"/>
						<path style="fill:none;stroke:#0B1011;stroke-linecap:round;stroke-linejoin:round;stroke-miterlimit:10;" d="
							M191.779,182.426c2.784,0.135,5.656,0.257,8.272-0.706c3.697-1.36,6.33-4.702,8.069-8.237
							c1.914-3.89,2.982-8.193,3.109-12.526"/>
						<g>
							<path style="fill:#0B1011;" d="M184.412,151.993c0.43,1.974,1.617,3.769,3.245,4.954c1.628,1.186,3.708,1.707,5.703,1.497
								c0.499-0.054,0.992-0.153,1.471-0.296c0.479-0.133,0.926-0.333,1.242-0.63c0.318-0.303,0.395-0.652,0.231-1.073
								c-0.163-0.408-0.453-0.927-0.614-1.444c-0.687-2.099-0.431-4.358,0.273-6.368c0.355-1.012,0.828-1.981,1.415-2.883
								c0.3-0.448,0.604-0.885,0.987-1.296c0.373-0.41,0.87-0.782,1.406-0.993c1.08-0.413,2.089-0.497,3.05-0.824
								c0.961-0.298,1.878-0.711,2.63-1.324c1.517-1.219,2.445-3.164,2.429-5.105c0-1.949-0.845-3.907-2.311-5.167
								c-0.209-0.18-0.234-0.495-0.054-0.705c0.18-0.209,0.495-0.234,0.705-0.054c0.001,0.001,0.004,0.003,0.005,0.004
								c1.69,1.487,2.613,3.713,2.595,5.925c-0.01,2.233-1.076,4.41-2.821,5.79c-0.875,0.699-1.903,1.141-2.929,1.448
								c-1.02,0.331-2.117,0.436-2.989,0.771c-0.862,0.315-1.476,1.131-2.046,1.966c-0.558,0.839-1.014,1.751-1.358,2.702
								c-0.686,1.89-0.929,4.001-0.326,5.896c0.145,0.482,0.374,0.876,0.595,1.435c0.099,0.275,0.159,0.619,0.081,0.954
								c-0.077,0.335-0.271,0.619-0.495,0.828c-0.453,0.415-0.998,0.63-1.518,0.772c-0.52,0.15-1.054,0.252-1.591,0.305
								c-2.15,0.205-4.37-0.375-6.107-1.666c-1.731-1.287-2.969-3.203-3.408-5.312c-0.029-0.139,0.06-0.275,0.2-0.304
								C184.247,151.766,184.382,151.855,184.412,151.993z"/>
						</g>
						<g>
							<path style="fill:#0B1011;" d="M239.608,218.421c-0.382,2.2,0.051,4.624,0.972,6.727c0.929,2.131,2.382,4.015,4.091,5.611
								c3.453,3.197,7.812,5.297,12.27,6.854c4.485,1.547,9.157,2.546,13.862,3.248c4.709,0.702,9.463,1.106,14.226,1.319
								c4.763,0.222,9.536,0.236,14.306,0.132c2.387-0.047,4.766-0.138,7.159-0.254c2.406-0.109,4.762-0.151,7.144-0.344
								c4.748-0.35,9.487-0.927,14.13-1.923c2.32-0.498,4.61-1.127,6.827-1.932c2.199-0.829,4.349-1.85,6.13-3.311l0.009-0.008
								c0.214-0.175,0.529-0.144,0.704,0.069c0.175,0.214,0.144,0.529-0.069,0.704l-0.001,0.001
								c-1.93,1.577-4.166,2.623-6.429,3.475c-2.278,0.825-4.61,1.46-6.963,1.963c-4.709,1.004-9.485,1.578-14.269,1.925
								c-2.384,0.191-4.81,0.232-7.179,0.337c-2.381,0.113-4.78,0.202-7.173,0.246c-4.788,0.098-9.581,0.078-14.368-0.151
								c-4.787-0.22-9.571-0.632-14.319-1.346c-4.744-0.714-9.463-1.727-14.019-3.305c-4.528-1.59-8.986-3.73-12.575-7.059
								c-1.776-1.663-3.304-3.643-4.287-5.904c-0.967-2.264-1.451-4.747-1.011-7.273c0.041-0.233,0.262-0.388,0.495-0.348
								c0.233,0.041,0.388,0.262,0.348,0.495L239.608,218.421z"/>
						</g>
						<g>
							<path style="fill:#0B1011;" d="M239.4,221.979c0.171,2.088,1.114,4.225,2.261,6.091c1.16,1.895,2.604,3.617,4.202,5.18
								c1.592,1.571,3.34,2.987,5.177,4.276c1.83,1.299,3.746,2.483,5.723,3.557c7.909,4.323,16.537,7.216,25.254,9.526
								c2.186,0.561,4.379,1.106,6.596,1.585l1.657,0.374l1.641,0.442l3.281,0.89l6.561,1.78c1.099,0.274,2.186,0.651,3.249,0.813
								c1.086,0.182,2.196,0.252,3.3,0.247c2.21-0.024,4.414-0.423,6.453-1.241c1.022-0.434,1.953-0.938,2.928-1.551l2.917-1.753
								c3.908-2.308,7.859-4.528,11.895-6.624c0.245-0.127,0.547-0.032,0.674,0.213c0.127,0.245,0.032,0.547-0.213,0.674l-0.001,0
								l-0.006,0.003c-4.005,2.073-7.956,4.286-11.849,6.578l-2.908,1.742c-0.941,0.593-2.004,1.173-3.07,1.618
								c-2.168,0.867-4.495,1.282-6.811,1.304c-1.159,0.004-2.317-0.071-3.465-0.265c-1.178-0.186-2.24-0.564-3.336-0.837
								l-6.548-1.786l-3.274-0.893l-1.638-0.444l-1.655-0.376c-2.21-0.481-4.411-1.03-6.611-1.598
								c-8.763-2.336-17.445-5.255-25.449-9.642c-2.001-1.09-3.943-2.294-5.803-3.618c-1.867-1.314-3.649-2.76-5.279-4.373
								c-1.635-1.604-3.122-3.379-4.326-5.351c-1.19-1.98-2.181-4.096-2.379-6.543c-0.019-0.235,0.156-0.441,0.391-0.46
								c0.235-0.019,0.441,0.156,0.46,0.391L239.4,221.979z"/>
						</g>
						<g>
							<path style="fill:#0B1011;" d="M307.801,265.081c-1.306,6.119-0.755,12.598,1.534,18.368c0.102,0.257-0.024,0.547-0.28,0.649
								c-0.257,0.102-0.547-0.024-0.649-0.28c-0.001-0.003-0.003-0.009-0.005-0.012c-2.209-6.016-2.588-12.654-1.102-18.839
								c0.033-0.138,0.172-0.223,0.311-0.19C307.745,264.81,307.83,264.945,307.801,265.081z"/>
						</g>
						<g>
							<path style="fill:#0B1011;" d="M300.681,199.834c0.165,1.717,1.391,3.169,2.8,4.176c1.427,1.036,3.096,1.785,4.592,2.852
								c3.007,2.078,5.56,4.818,7.419,7.975c1.88,3.146,3.026,6.73,3.365,10.385c0.346,3.656-0.105,7.388-1.33,10.864
								c-0.092,0.26-0.377,0.397-0.638,0.305c-0.26-0.092-0.397-0.377-0.305-0.638c0-0.001,0.002-0.007,0.003-0.008
								c1.212-3.32,1.69-6.913,1.395-10.447c-0.289-3.534-1.354-7.007-3.144-10.08c-1.769-3.083-4.222-5.778-7.129-7.835
								c-1.433-1.051-3.08-1.809-4.569-2.91c-1.466-1.077-2.801-2.647-2.973-4.597c-0.012-0.142,0.092-0.267,0.234-0.279
								C300.543,199.586,300.667,199.694,300.681,199.834z"/>
						</g>
						<g>
							<path style="fill:#0B1011;" d="M291.721,220.175c0.95,5.174,1.324,10.462,1.111,15.736c-0.011,0.276-0.244,0.491-0.52,0.48
								c-0.276-0.011-0.491-0.244-0.48-0.52c0-0.004,0.001-0.011,0.001-0.016c0.37-5.191,0.163-10.432-0.621-15.595
								c-0.021-0.141,0.075-0.272,0.216-0.293C291.567,219.946,291.696,220.039,291.721,220.175z"/>
						</g>
						<g>
							<path style="fill:#0B1011;" d="M326.634,217.393c0.734,0.837,1.282,1.824,1.664,2.857c0.387,1.033,0.632,2.106,0.817,3.176
								c0.356,2.144,0.567,4.27,0.854,6.407c0.037,0.274-0.155,0.525-0.429,0.562c-0.274,0.037-0.525-0.155-0.562-0.429
								c-0.001-0.006-0.001-0.011-0.002-0.017l-0.002-0.019c-0.204-2.128-0.338-4.284-0.607-6.388
								c-0.281-2.083-0.796-4.196-2.123-5.815c-0.091-0.109-0.076-0.272,0.033-0.363
								C326.383,217.276,326.542,217.29,326.634,217.393z"/>
						</g>
						<g>
							<path style="fill:#0B1011;" d="M336.887,217.417c0.992,1.361,1.524,3.003,1.791,4.635c0.271,1.64,0.307,3.293,0.328,4.918
								c0.004,0.276-0.217,0.503-0.493,0.507s-0.503-0.217-0.507-0.493c0-0.008,0-0.018,0-0.025c0.06-1.617,0.102-3.223-0.078-4.801
								c-0.178-1.571-0.601-3.128-1.465-4.449c-0.078-0.119-0.045-0.279,0.074-0.357
								C336.652,217.277,336.806,217.307,336.887,217.417z"/>
						</g>
						<g>
							<path style="fill:#0B1011;" d="M268.99,219.458c-1.023,3.763-1.331,7.705-0.914,11.551c0.03,0.275-0.169,0.521-0.443,0.551
								s-0.521-0.169-0.551-0.443c-0.001-0.006-0.001-0.015-0.002-0.021c-0.267-3.986,0.22-8.004,1.416-11.784
								c0.043-0.136,0.188-0.211,0.323-0.168C268.951,219.187,269.026,219.326,268.99,219.458z"/>
						</g>
						<g>
							<path style="fill:#0B1011;" d="M251.094,218.526c-0.35,1.52-0.639,3.053-0.71,4.585c-0.072,1.527,0.092,3.059,0.644,4.437
								c0.103,0.256-0.022,0.548-0.278,0.65c-0.257,0.103-0.548-0.022-0.65-0.278c-0.003-0.008-0.007-0.02-0.01-0.028
								c-0.537-1.576-0.617-3.243-0.46-4.835c0.157-1.599,0.535-3.145,0.966-4.659c0.039-0.137,0.181-0.216,0.318-0.177
								C251.046,218.258,251.124,218.394,251.094,218.526z"/>
						</g>
						<g>
							<path style="fill:#0B1011;" d="M189.696,169.274c1.486,1.308,3.382,2.12,5.343,2.355c1.956,0.222,3.993-0.047,5.747-0.924
								c1.762-0.852,3.18-2.299,4.245-3.965c1.085-1.663,1.88-3.52,2.673-5.387c0.107-0.255,0.4-0.374,0.655-0.267
								c0.255,0.107,0.374,0.4,0.267,0.655c-0.001,0.002-0.004,0.008-0.005,0.011c-0.833,1.857-1.682,3.748-2.859,5.476
								c-1.152,1.728-2.717,3.275-4.652,4.162c-1.917,0.908-4.089,1.147-6.156,0.87c-2.072-0.291-4.063-1.189-5.607-2.606
								c-0.105-0.096-0.112-0.259-0.016-0.364c0.095-0.103,0.255-0.112,0.359-0.019L189.696,169.274z"/>
						</g>
						<g>
							<path style="fill:#0B1011;" d="M165.789,151.477c4.196,12.757,14.643,23.237,27.302,27.476
								c0.262,0.088,0.403,0.371,0.316,0.633s-0.371,0.403-0.633,0.316c-0.001,0-0.005-0.002-0.006-0.002
								c-12.917-4.505-23.371-15.297-27.469-28.265c-0.043-0.135,0.032-0.28,0.168-0.323
								C165.602,151.269,165.745,151.343,165.789,151.477z"/>
						</g>
						<path style="fill:none;stroke:#0B1011;stroke-width:2;stroke-linecap:round;stroke-linejoin:round;stroke-miterlimit:10;" d="
							M247.702,145.732c0.05,1.262,0.271,2.473,0.659,3.618c1.72,5.05,6.49,8.68,12.12,8.68c5.88,0,10.83-3.95,12.34-9.35
							c0.266-0.942,0.414-1.93,0.453-2.948H247.702z"/>
						<path style="fill:#0B1011;" d="M273.273,144.744c-0.039,1.018-0.187,2.006-0.453,2.948l5.896-2.948H273.273z"/>
						<path style="fill:#0B1011;" d="M241.809,144.817l-1.888,1.398c0,0,5.53,1.44,8.44,2.22c-0.387-1.145-0.609-2.355-0.659-3.618
							H241.809z"/>
						<path style="fill:#0B1011;" d="M254.542,145.732c0.654,3.58,3.782,6.296,7.551,6.296c3.769,0,6.898-2.716,7.552-6.296H254.542
							z"/>
						<path style="fill:#FFFFFF;" d="M262.049,145.732c0.878,0.965,2.45,1.616,4.261,1.616c1.812,0,3.384-0.651,4.262-1.616H262.049
							z"/>
						<g>
							<path style="fill:#0B1011;" d="M243.053,133.449c1.302-3.348,3.979-6.082,7.188-7.654c3.209-1.598,6.859-2.194,10.416-1.918
								c3.552,0.284,7.097,1.453,9.965,3.674c1.427,1.108,2.655,2.493,3.555,4.075c0.905,1.58,1.469,3.348,1.701,5.148
								c0.037,0.274-0.156,0.525-0.429,0.562c-0.274,0.037-0.525-0.156-0.562-0.429c0-0.003-0.001-0.01-0.001-0.013
								c-0.363-3.379-2.116-6.548-4.808-8.652c-2.677-2.126-6.062-3.298-9.485-3.61c-3.427-0.307-6.965,0.23-10.071,1.734
								c-3.107,1.48-5.698,4.065-6.992,7.276c-0.053,0.132-0.203,0.196-0.335,0.143C243.064,133.731,243.002,133.58,243.053,133.449
								z"/>
						</g>
						<g>
							<path style="fill:#0B1011;" d="M285.192,118.954c0.03,1.633,0.264,3.261,0.694,4.834c0.218,0.786,0.48,1.559,0.793,2.312
								c0.311,0.756,0.67,1.527,0.863,2.381c0.19,0.856,0.196,1.711,0.195,2.543c-0.006,0.837-0.047,1.671-0.104,2.501
								c-0.114,1.66-0.293,3.305-0.378,4.944c-0.345,6.55,0.91,13.171,3.623,19.122c0.115,0.251,0.004,0.548-0.247,0.662
								c-0.251,0.115-0.548,0.004-0.662-0.247c0-0.001-0.002-0.005-0.003-0.006c-2.706-6.132-3.899-12.907-3.467-19.575
								c0.107-1.666,0.307-3.311,0.439-4.952c0.106-1.626,0.265-3.313-0.017-4.857c-0.162-0.768-0.493-1.514-0.803-2.289
								c-0.312-0.779-0.573-1.58-0.787-2.391c-0.423-1.625-0.643-3.301-0.653-4.978c-0.001-0.142,0.114-0.258,0.256-0.259
								C285.074,118.7,285.189,118.813,285.192,118.954z"/>
						</g>
						<g>
							<path style="fill:#0B1011;" d="M302.153,168.866c1.234-1.696,3.003-2.88,4.817-3.813c1.83-0.933,3.76-1.62,5.692-2.239
								c0.263-0.084,0.545,0.06,0.629,0.323c0.084,0.263-0.06,0.545-0.323,0.629c-0.006,0.002-0.014,0.004-0.02,0.006
								c-1.931,0.535-3.843,1.132-5.647,1.962c-1.79,0.831-3.517,1.898-4.736,3.44c-0.087,0.113-0.248,0.134-0.361,0.048
								C302.094,169.138,302.073,168.979,302.153,168.866z"/>
						</g>
						<g>
							<path style="fill:#0B1011;" d="M291.434,168.916c-4.395-3.063-9.764-4.662-15.066-4.519c-0.276,0.007-0.506-0.21-0.513-0.486
								c-0.007-0.276,0.21-0.506,0.487-0.513c0.004,0,0.011,0,0.015,0c5.523,0.018,10.986,1.842,15.378,5.101
								c0.114,0.085,0.138,0.246,0.053,0.36C291.705,168.97,291.548,168.995,291.434,168.916z"/>
						</g>
						<path style="fill:#0B1011;" d="M289.973,187.812c-6.813-3.504-10.809-12.338-18.959-11.07
							c-2.47,0.252-4.899,1.687-4.973,4.361c0.568,11.63,17.52,13.466,26.621,12.257c1.103-0.165,3.165-0.671,4.296-1.587
							c0.927-0.751,0.325-2.232-0.868-2.249C294.016,189.495,291.898,188.802,289.973,187.812z"/>
						<path style="fill:#0B1011;" d="M308.632,186.231c6.19-4.514,8.774-13.859,17.022-13.865c2.479-0.132,5.1,0.91,5.586,3.541
							c1.235,11.578-15.23,16.01-24.409,16.221c-1.116,0.008-3.23-0.174-4.489-0.905c-1.032-0.599-0.666-2.155,0.51-2.356
							C304.897,188.518,306.882,187.507,308.632,186.231z"/>
						<g>
							<path style="fill:#0B1011;" d="M251.411,159.171c1.445-0.401,2.895-0.625,4.363-0.792c1.466-0.161,2.94-0.235,4.415-0.247
								c1.474,0.012,2.95,0.055,4.419,0.203c1.471,0.126,2.931,0.345,4.387,0.592c0.272,0.046,0.456,0.304,0.409,0.577
								c-0.046,0.272-0.304,0.456-0.577,0.409c-0.004-0.001-0.007-0.001-0.011-0.002l-0.014-0.003
								c-1.42-0.281-2.847-0.537-4.287-0.7c-1.438-0.186-2.886-0.267-4.335-0.32c-1.449-0.028-2.901,0.005-4.346,0.123
								c-1.44,0.122-2.895,0.31-4.279,0.653l-0.015,0.004c-0.138,0.034-0.277-0.05-0.312-0.188
								C251.197,159.346,251.278,159.209,251.411,159.171z"/>
						</g>
						<path style="fill:none;stroke:#0B1011;stroke-width:2;stroke-linecap:round;stroke-linejoin:round;stroke-miterlimit:10;" d="
							M298.958,144.264c0.05,1.262,0.271,2.473,0.659,3.618c1.72,5.05,6.49,8.68,12.12,8.68c5.88,0,10.83-3.95,12.34-9.35
							c0.266-0.942,0.414-1.93,0.453-2.948H298.958z"/>
						<path style="fill:#0B1011;" d="M324.529,143.276c-0.039,1.018-0.187,2.006-0.453,2.948l1.671-2.891L324.529,143.276z"/>
						<path style="fill:#0B1011;" d="M293.065,143.349l-1.888,1.398c0,0,5.53,1.44,8.44,2.22c-0.388-1.145-0.609-2.356-0.659-3.618
							H293.065z"/>
						<path style="fill:#0B1011;" d="M305.798,144.264c0.654,3.58,3.782,6.296,7.551,6.296c3.769,0,6.898-2.716,7.552-6.296H305.798
							z"/>
						<path style="fill:#FFFFFF;" d="M313.305,144.264c0.878,0.965,2.45,1.616,4.261,1.616c1.812,0,3.384-0.651,4.262-1.616H313.305
							z"/>
						<g>
							<path style="fill:#0B1011;" d="M303.998,158.006c1.316-0.506,2.651-0.766,4.008-0.971c1.355-0.193,2.723-0.278,4.089-0.299
								c1.367-0.02,2.733,0.053,4.095,0.172c1.361,0.122,2.713,0.322,4.06,0.552c0.272,0.046,0.455,0.305,0.409,0.577
								c-0.046,0.272-0.305,0.455-0.577,0.409c-0.004-0.001-0.008-0.001-0.012-0.002l-0.012-0.002
								c-1.313-0.264-2.632-0.5-3.961-0.659c-1.329-0.156-2.665-0.268-4.004-0.288c-1.338-0.02-2.678,0.023-4.006,0.172
								c-1.319,0.156-2.664,0.385-3.89,0.815l-0.022,0.008c-0.134,0.047-0.281-0.024-0.328-0.158
								C303.802,158.2,303.869,158.056,303.998,158.006z"/>
						</g>
						<g>
							<path style="fill:#0B1011;" d="M293.687,131.619c1.302-3.348,3.979-6.082,7.188-7.654c3.209-1.598,6.859-2.194,10.416-1.918
								c3.552,0.284,7.097,1.453,9.965,3.674c1.427,1.108,2.655,2.493,3.556,4.075c0.905,1.58,1.469,3.348,1.701,5.148
								c0.037,0.274-0.156,0.525-0.429,0.562c-0.274,0.037-0.525-0.156-0.562-0.429c0-0.003-0.001-0.01-0.001-0.013
								c-0.363-3.379-2.116-6.548-4.808-8.652c-2.677-2.126-6.062-3.298-9.485-3.609c-3.427-0.307-6.965,0.23-10.071,1.734
								c-3.107,1.48-5.698,4.065-6.992,7.276c-0.053,0.132-0.203,0.196-0.335,0.143C293.699,131.901,293.636,131.75,293.687,131.619
								z"/>
						</g>
						<g>
							<path style="fill:#0B1011;" d="M303.265,253.016c3.348,0.604,6.838,0.279,9.979-0.906c0.259-0.098,0.547,0.033,0.645,0.291
								c0.097,0.258-0.033,0.547-0.291,0.645c-0.007,0.003-0.016,0.006-0.023,0.008c-3.368,1.092-7.005,1.247-10.413,0.467
								c-0.139-0.032-0.225-0.17-0.194-0.309C302.998,253.077,303.13,252.992,303.265,253.016z"/>
						</g>
						<path style="fill:none;stroke:#0B1011;stroke-width:2;stroke-linecap:round;stroke-linejoin:round;stroke-miterlimit:10;" d="
							M200.049,274c4.673-11.98,8.475-24.415,9.069-35.118"/>
						<path style="fill:none;stroke:#0B1011;stroke-width:2;stroke-linecap:round;stroke-linejoin:round;stroke-miterlimit:10;" d="
							M307.246,292.557c0.439,1.537-3.374,18.489,4.967,30.782"/>
						<g>
							<path style="fill:#0B1011;" d="M342.223,148.797c0.189-0.032,0.406,0.092,0.484,0.219c0.092,0.125,0.13,0.245,0.159,0.362
								c0.054,0.25,0.029,0.44,0.038,0.632c0.003,0.389-0.009,0.779-0.032,1.168c-0.047,0.778-0.147,1.554-0.302,2.32
								c-0.309,1.532-0.848,3.028-1.633,4.397c-1.562,2.731-4.168,4.944-7.301,5.766c-0.267,0.07-0.541-0.09-0.611-0.357
								c-0.07-0.267,0.09-0.54,0.357-0.611c0.004-0.001,0.011-0.003,0.015-0.004c2.849-0.663,5.351-2.645,6.887-5.18
								c0.774-1.272,1.328-2.683,1.663-4.147c0.169-0.732,0.284-1.477,0.35-2.228c0.033-0.375,0.054-0.752,0.061-1.129
								c-0.001-0.19,0.018-0.388-0.011-0.514c-0.031-0.162-0.101-0.204-0.068-0.183c-0.141,0.016-0.269-0.086-0.284-0.227
								C341.98,148.94,342.082,148.812,342.223,148.797z"/>
						</g>
						<g>
							<path style="fill:#0B1011;" d="M352.069,117.167c-3.969,3.877-6.567,9.097-7.276,14.545c-0.036,0.274-0.287,0.467-0.56,0.431
								c-0.274-0.036-0.467-0.286-0.431-0.56c0-0.004,0.001-0.011,0.002-0.015c0.903-5.652,3.745-10.932,7.911-14.774
								c0.104-0.096,0.267-0.09,0.364,0.015C352.173,116.91,352.168,117.07,352.069,117.167z"/>
						</g>
					</g>
					<path style="fill:none;stroke:#0B1011;stroke-linecap:round;stroke-linejoin:round;stroke-miterlimit:10;" d="M241.533,229.004
						c0,0-13.171,30.878,6.878,50.634"/>
					<path style="fill:none;stroke:#0B1011;stroke-width:2;stroke-linecap:round;stroke-linejoin:round;stroke-miterlimit:10;" d="
						M277.602,391.623c-6.066-49.824-11.962-97.75-21.285-111.842c0,0-91.317-6.805-101.634-14.488c0,0-1.756-12.293,52.902-18.219"
						/>
					<path style="fill:none;stroke:#0B1011;stroke-width:2;stroke-linecap:round;stroke-linejoin:round;stroke-miterlimit:10;" d="
						M271.48,502.462c0,0,3.75-18.952,6.131-42.582"/>
					<path style="fill:none;stroke:#0B1011;stroke-width:2;stroke-linecap:round;stroke-linejoin:round;stroke-miterlimit:10;" d="
						M154.683,265.293c0,0-19.537,76.61-6.585,107.781c0,0,64.317-84.732,108.658-92.634"/>
					<path style="fill:none;stroke:#0B1011;stroke-width:2;stroke-linecap:round;stroke-linejoin:round;stroke-miterlimit:10;" d="
						M271.52,416.935c-17.507-28.819-58.228-54.179-58.228-54.179l39.146-81"/>
					<path style="fill:none;stroke:#0B1011;stroke-width:2;stroke-linecap:round;stroke-linejoin:round;stroke-miterlimit:10;" d="
						M321.863,339.043c1.778-27.902,3.758-50.35,6.338-59.263c0,0,54.944-8.195,59.457-15.878c0,0,0.768-12.293-23.143-18.219
						c0,0-6.417-0.805-26.027-1.976"/>
					<path style="fill:none;stroke:#0B1011;stroke-width:2;stroke-linecap:round;stroke-linejoin:round;stroke-miterlimit:10;" d="
						M321.209,502.6c0,0-1.103-14.231-2.014-32.392"/>
					<path style="fill:none;stroke:#0B1011;stroke-width:2;stroke-linecap:round;stroke-linejoin:round;stroke-miterlimit:10;" d="
						M387.658,263.902c0,0-6.448,78-12.114,109.17c0,0-28.137-84.732-47.535-92.634"/>
					
						<path style="fill:none;stroke:#0B1011;stroke-width:1.3228;stroke-linecap:round;stroke-linejoin:round;stroke-miterlimit:10;" d="
						M328.523,280.88l34.843,81.876c0,0-11.316,10.033-22.625,24.649"/>
					<path style="fill:none;stroke:#0B1011;stroke-width:2;stroke-linecap:round;stroke-linejoin:round;stroke-miterlimit:10;" d="
						M144.146,332.098c0,0-36.293,7.61-41.268,25.463c-4.976,17.854-14.634,43.902-10.829,74.341c0,0-25.513,69.61-25.513,70.488
						l351.121,0.805c0,0-5.353-17.51-2.181-43.417c3.172-25.908-5.287-35.778-5.287-46.705c0-10.927-17.051-52.873-17.932-60.804
						c-0.881-7.931-11.985-11.456-11.985-11.456"/>
					<path style="fill:none;stroke:#0B1011;stroke-width:2;stroke-linecap:round;stroke-linejoin:round;stroke-miterlimit:10;" d="
						M165.275,353.642c5.433,3.55,12.889,8.466,16.012,14.155c2.622,4.777,3.167,10.387,3.494,15.826
						c0.272,4.532,0.429,9.09-0.038,13.606c-1.111,10.739-5.71,20.931-6.391,31.706c-0.253,4.006,0.041,8.024,0.345,12.026
						c1.499,19.782,3.213,41.599,2.583,61.428"/>
					<g>
						<path style="fill:#0B1011;" d="M182.819,426.17c5.751,4.425,11.943,8.272,18.458,11.461c6.525,3.165,13.356,5.7,20.378,7.502
							c1.759,0.436,3.521,0.86,5.299,1.208c1.772,0.378,3.557,0.687,5.346,0.911c1.789,0.219,3.586,0.334,5.378,0.269
							c1.793-0.06,3.584-0.278,5.362-0.583c7.12-1.264,14.089-3.422,20.696-6.362c0.252-0.113,0.548,0,0.66,0.253
							c0.113,0.252-0.001,0.548-0.253,0.66l-0.003,0.001c-6.701,2.937-13.743,5.075-20.956,6.314
							c-1.807,0.299-3.638,0.512-5.481,0.564c-1.845,0.057-3.688-0.072-5.507-0.305c-1.819-0.239-3.62-0.561-5.402-0.951
							c-1.789-0.361-3.562-0.798-5.331-1.247c-7.062-1.855-13.922-4.445-20.468-7.665c-6.535-3.245-12.739-7.147-18.494-11.626
							c-0.112-0.087-0.132-0.249-0.045-0.361C182.545,426.104,182.707,426.084,182.819,426.17z"/>
					</g>
					<g>
						<path style="fill:#0B1011;" d="M119.923,343.32c0.886,0.161,1.824-0.113,2.806-0.25c0.978-0.142,1.96-0.205,2.937-0.245
							c1.95-0.065,3.893-0.124,5.849-0.109c3.896,0.03,7.883,0.371,11.633,1.743c0.259,0.095,0.393,0.382,0.298,0.641
							c-0.095,0.259-0.382,0.393-0.641,0.298c-0.003-0.001-0.008-0.003-0.01-0.004c-3.555-1.387-7.437-1.812-11.293-1.921
							c-1.932-0.055-3.879-0.037-5.816-0.013c-0.967,0.019-1.929,0.061-2.879,0.18c-0.934,0.103-1.928,0.39-2.981,0.185
							c-0.14-0.027-0.231-0.162-0.203-0.302C119.648,343.385,119.784,343.295,119.923,343.32z"/>
					</g>
					<path style="fill:none;stroke:#0B1011;stroke-width:2;stroke-linecap:round;stroke-linejoin:round;stroke-miterlimit:10;" d="
						M378,360.78c0,0,8.488,46.244-10.244,72.585c0,0-1.845,62.382-5.358,69.699"/>
					<g>
						<path style="fill:#0B1011;" d="M367.864,433.376c-0.865,0.997-1.821,1.709-2.834,2.403c-1.013,0.676-2.082,1.251-3.175,1.766
							c-1.09,0.522-2.222,0.941-3.358,1.333c-0.57,0.193-1.149,0.353-1.722,0.53l-1.743,0.446c-0.138,0.035-0.278-0.048-0.313-0.185
							c-0.034-0.135,0.044-0.272,0.177-0.311l0.012-0.003l1.704-0.499c0.559-0.194,1.123-0.371,1.675-0.579
							c1.102-0.423,2.195-0.87,3.237-1.414c1.045-0.537,2.06-1.129,3.008-1.809c0.93-0.674,1.865-1.453,2.536-2.283l0.031-0.039
							c0.174-0.215,0.488-0.248,0.703-0.075c0.215,0.173,0.248,0.488,0.075,0.703C367.872,433.367,367.867,433.372,367.864,433.376z
							"/>
					</g>
					<path style="fill:#0B1011;" d="M222.293,445.073l-41.488,30.512c0,0-3.073-37.976-3.073-41.707
						c0-3.732,1.317-10.976,1.317-10.976S197.049,440.244,222.293,445.073z"/>
					<path style="fill:#0B1011;" d="M367.756,433.366c-2.817,3.219-12,6-12,6l10.537,13.39L367.756,433.366z"/>
					<g>
						<path style="fill:#0B1011;" d="M173.037,423.791c-10.078,15.641-25.297,27.924-42.768,34.476
							c-0.258,0.097-0.547-0.034-0.644-0.293c-0.097-0.259,0.034-0.547,0.293-0.644l0.004-0.002
							c17.321-6.323,32.533-18.361,42.683-33.819c0.078-0.119,0.238-0.152,0.356-0.074
							C173.08,423.514,173.113,423.672,173.037,423.791z"/>
					</g>
					<path style="fill:none;stroke:#0B1011;stroke-width:2;stroke-linecap:round;stroke-linejoin:round;stroke-miterlimit:10;" d="
						M310.61,328.146c0,0,3.512-7.098,1.756-13.976l11.268-0.146"/>
					<polygon style="fill:#0B1011;" points="312.018,313.256 308.726,315.78 312.238,322.146 					"/>
					<path style="fill:#0B1011;" d="M251.707,283.951c0,0-73.317,57.951-102.732,89.122c0,0,63-85.39,106.244-92.634
						L251.707,283.951z"/>
					<path style="fill:#0B1011;" d="M375.545,373.073l-14.127-15.347l-33.216-77.945c0,0,18.18,16.434,25.21,36.548
						C360.441,336.441,375.545,373.073,375.545,373.073z"/>
					<path style="fill:#0B1011;" d="M213.293,362.756"/>
					<path style="fill:#0B1011;" d="M213.293,362.756c0,0,55.244,35.78,57.878,56.561l-4.098,10.537
						C267.073,429.854,266.341,411.561,213.293,362.756z"/>
					<path style="fill:#0B1011;" d="M363.366,362.756c0,0-16.533,22.166-18.698,34.727l-4.331-9.384l5.342-7.075
						C345.678,381.023,358.675,365.423,363.366,362.756z"/>
					<ellipse style="fill:#0B1011;" cx="231.402" cy="357.598" rx="6.256" ry="6.476"/>
					<g>
						<path style="fill:#0B1011;" d="M276.545,145.781c-0.65,3.015-1.64,5.921-2.882,8.73c-1.256,2.798-2.784,5.489-4.688,7.914
							c-1.893,2.429-4.192,4.563-6.841,6.178c-2.673,1.555-5.673,2.616-8.766,2.886c-0.772,0.062-1.544,0.146-2.319,0.118
							l-1.162-0.003l-1.156-0.093c-1.537-0.073-3.12-0.412-4.562-1.033c-2.907-1.213-5.328-3.689-6.286-6.742
							c-0.496-1.514-0.628-3.136-0.449-4.704c0.175-1.572,0.637-3.084,1.225-4.525c1.216-2.875,2.959-5.466,4.904-7.849
							c0.175-0.214,0.49-0.246,0.704-0.071c0.214,0.175,0.246,0.49,0.071,0.704l-0.002,0.003c-1.922,2.321-3.63,4.835-4.81,7.576
							c-1.162,2.715-1.729,5.798-0.806,8.599c0.86,2.802,3.064,5.105,5.773,6.258c1.358,0.59,2.799,0.917,4.307,0.999l1.122,0.098
							l1.125,0.01c0.752,0.034,1.498-0.045,2.245-0.099c2.993-0.242,5.887-1.246,8.486-2.732c2.574-1.546,4.828-3.606,6.698-5.973
							c1.88-2.362,3.404-5.002,4.662-7.756c1.242-2.758,2.246-5.649,2.901-8.591l0.003-0.013c0.031-0.139,0.168-0.226,0.307-0.195
							C276.488,145.506,276.575,145.642,276.545,145.781z"/>
					</g>
					<g>
						<path style="fill:#0B1011;" d="M294.161,145.478c1.332,2.655,3.057,5.143,4.982,7.421c1.942,2.268,4.122,4.342,6.561,6.055
							c2.427,1.724,5.101,3.098,7.928,4.004c2.821,0.926,5.795,1.331,8.758,1.341c0.027,0,0.053,0.003,0.079,0.007l0.034,0.007
							c0.582,0.113,1.304,0.037,1.851-0.256c0.566-0.285,1.006-0.786,1.309-1.383c0.608-1.211,0.712-2.695,0.691-4.127l0-0.013
							c-0.004-0.276,0.217-0.503,0.493-0.507c0.276-0.004,0.503,0.217,0.507,0.493c0,0.001,0,0.006,0,0.007
							c0,1.52-0.095,3.114-0.84,4.587c-0.373,0.723-0.961,1.399-1.738,1.779c-0.782,0.383-1.624,0.485-2.498,0.307l0.112,0.014
							c-3.054-0.043-6.118-0.496-9.012-1.481c-2.9-0.965-5.629-2.408-8.091-4.197c-2.473-1.779-4.668-3.915-6.615-6.24
							c-1.933-2.341-3.641-4.856-4.98-7.602c-0.062-0.128-0.009-0.282,0.118-0.344c0.127-0.062,0.28-0.01,0.343,0.116
							L294.161,145.478z"/>
					</g>
					<g>
						<path style="fill:#0B1011;" d="M284.142,105.41c1.793-5.779,1.013-12.061-1.005-17.7c-2.036-5.68-5.255-10.899-9.111-15.534
							c-3.879-4.621-8.45-8.683-13.58-11.836c-5.111-3.114-10.923-5.377-16.901-5.369h-0.009c-0.276,0-0.5-0.223-0.501-0.499
							c0-0.276,0.223-0.5,0.499-0.501h0.004c6.252,0.037,12.183,2.419,17.369,5.621c5.203,3.246,9.803,7.394,13.702,12.1
							c3.874,4.72,7.099,10.024,9.129,15.807c1.006,2.888,1.697,5.901,1.906,8.963c0.211,3.057-0.077,6.17-1.01,9.104
							c-0.043,0.136-0.188,0.21-0.323,0.167C284.174,105.69,284.1,105.545,284.142,105.41z"/>
					</g>
					<g>
						<path style="fill:#0B1011;" d="M303.421,95.032c0.499-3.833-0.439-7.697-1.785-11.307c-1.382-3.621-3.038-7.157-4.937-10.535
							c-1.905-3.377-4.112-6.584-6.677-9.473c-1.286-1.441-2.677-2.781-4.139-4.035c-1.48-1.233-3.055-2.343-4.697-3.34l-0.01-0.006
							c-0.236-0.143-0.311-0.451-0.168-0.687c0.143-0.236,0.451-0.311,0.687-0.168l0.004,0.003c1.682,1.044,3.289,2.202,4.793,3.482
							c1.485,1.301,2.893,2.686,4.189,4.169c2.586,2.973,4.789,6.251,6.68,9.685c1.886,3.44,3.512,7.006,4.873,10.685
							c1.325,3.669,2.254,7.64,1.698,11.595c-0.02,0.141-0.15,0.239-0.291,0.219C303.501,95.301,303.403,95.172,303.421,95.032z"/>
					</g>
					<g>
						<path style="fill:#0B1011;" d="M316.417,96.715c1.922-8.132,0.923-16.895-2.739-24.342c-0.122-0.248-0.02-0.548,0.228-0.669
							c0.248-0.122,0.547-0.02,0.669,0.228c0.001,0.002,0.003,0.007,0.004,0.009c3.618,7.732,4.445,16.685,2.337,24.898
							c-0.035,0.138-0.176,0.221-0.313,0.185C316.467,96.989,316.385,96.851,316.417,96.715z"/>
					</g>
					<g>
						<path style="fill:#0B1011;" d="M264.383,97.453c-1.713-4.684-4.208-9.063-7.236-13.018c-3.03-3.958-6.59-7.501-10.496-10.593
							c-7.821-6.17-17.025-10.612-26.737-12.75c-0.27-0.058-0.442-0.323-0.385-0.594c0.058-0.27,0.323-0.442,0.593-0.384
							l0.007,0.002c9.857,2.254,19.13,6.829,26.993,13.134c3.926,3.16,7.497,6.772,10.53,10.8c3.031,4.025,5.519,8.476,7.214,13.228
							c0.048,0.134-0.022,0.281-0.156,0.329C264.578,97.654,264.432,97.585,264.383,97.453z"/>
					</g>
					<g>
						<path style="fill:#0B1011;" d="M238.993,97.309c-1.111-1.686-2.55-3.152-4.072-4.511l-1.132-1.031l-1.186-0.968
							c-0.779-0.66-1.606-1.259-2.438-1.85c-3.328-2.36-6.934-4.334-10.732-5.819c-7.588-2.979-15.881-4.174-23.969-3.292
							c-0.274,0.032-0.522-0.165-0.554-0.44c-0.031-0.274,0.165-0.522,0.44-0.554l0.008-0.001
							c8.268-0.819,16.688,0.486,24.357,3.584c3.839,1.545,7.474,3.582,10.821,6.005c0.837,0.607,1.668,1.221,2.45,1.897
							l1.191,0.992l1.136,1.054c1.521,1.387,2.977,2.893,4.113,4.654c0.077,0.119,0.043,0.279-0.077,0.356
							C239.23,97.463,239.071,97.427,238.993,97.309z"/>
					</g>
				</g>
				<g>
					<path style="fill:none;stroke:#0B1011;stroke-width:2;stroke-linecap:round;stroke-linejoin:round;stroke-miterlimit:10;" d="
						M324.706,351.06c0,1.88-0.21,3.7-0.61,5.46c-2.54,11.44-12.93,20-25.37,20c-7.77,0-14.75-3.35-19.51-8.66
						c-4.02-4.47-6.46-10.36-6.46-16.8c0-14.06,11.63-25.46,25.97-25.46C313.076,325.6,324.706,337,324.706,351.06z"/>
					<path style="fill:none;stroke:#0B1011;stroke-width:2;stroke-linecap:round;stroke-linejoin:round;stroke-miterlimit:10;" d="
						M350.486,460.88l-13.75,7.32l-5.86-7.61l-13.46,10.82h-31.9l-4.69-12.29l-23.12,4.68c0,0,21.66-65.85,21.66-84.29
						c0-4.72-0.06-8.56-0.15-11.65c4.76,5.31,11.74,8.66,19.51,8.66c12.44,0,22.83-8.56,25.37-20
						C332.086,367.71,360.026,414.97,350.486,460.88z"/>
					<g>
						<path style="fill:#0B1011;" d="M318.668,374.051c3.425,6.064,6.08,12.527,8.341,19.094c2.266,6.572,4.212,13.234,6.228,19.874
							c1.986,6.65,3.875,13.342,5.363,20.139c1.469,6.797,2.516,13.708,2.807,20.681c0.012,0.276-0.203,0.509-0.479,0.52
							c-0.276,0.012-0.509-0.203-0.52-0.479l0-0.005c-0.247-6.9-1.244-13.764-2.667-20.533c-1.44-6.77-3.284-13.453-5.23-20.108
							c-1.975-6.648-3.883-13.322-6.103-19.883c-2.215-6.559-4.82-13.002-8.188-19.047c-0.07-0.124-0.026-0.281,0.098-0.351
							C318.441,373.884,318.597,373.928,318.668,374.051z"/>
					</g>
					<g>
						<path style="fill:#0B1011;" d="M307.05,378.048c2.136,6.957,3.957,14.01,5.443,21.136c1.479,7.127,2.636,14.322,3.448,21.557
							c0.794,7.237,1.331,14.504,1.379,21.798c0.023,7.283-0.576,14.641-2.53,21.72c-0.073,0.266-0.349,0.422-0.615,0.349
							c-0.266-0.073-0.423-0.349-0.349-0.615l0.001-0.003c1.959-6.947,2.597-14.217,2.614-21.451
							c-0.007-7.245-0.502-14.501-1.253-21.715c-0.77-7.216-1.883-14.396-3.318-21.512c-1.442-7.115-3.22-14.161-5.312-21.114
							c-0.041-0.136,0.035-0.28,0.172-0.321C306.864,377.836,307.008,377.913,307.05,378.048z"/>
					</g>
					<g>
						<path style="fill:#0B1011;" d="M300.021,379.179c0.881,6.815,1.294,13.69,1.241,20.564
							c-0.066,6.871-0.546,13.751-1.591,20.544c-1.081,6.785-2.093,13.575-3.674,20.281c-1.567,6.689-3.796,13.333-7.481,19.236
							c-0.146,0.234-0.455,0.305-0.689,0.159c-0.234-0.146-0.305-0.455-0.159-0.689l0.003-0.004
							c3.636-5.746,5.878-12.276,7.472-18.906c1.609-6.644,2.662-13.431,3.779-20.184c1.081-6.76,1.598-13.6,1.705-20.443
							c0.094-6.844-0.278-13.696-1.116-20.492c-0.017-0.141,0.083-0.27,0.224-0.287
							C299.875,378.939,300.003,379.039,300.021,379.179z"/>
					</g>
					<g>
						<path style="fill:#0B1011;" d="M288.616,382.062c1.144,24.29-2.959,48.828-11.963,71.454c-0.102,0.257-0.393,0.382-0.649,0.28
							c-0.257-0.102-0.382-0.393-0.28-0.649l0.001-0.003c9.1-22.432,13.356-46.836,12.376-71.059
							c-0.006-0.142,0.105-0.262,0.247-0.268C288.49,381.811,288.61,381.921,288.616,382.062z"/>
					</g>
					<path style="fill:#0B1011;" d="M336.736,468.2l4.488-14.179c0,0-6.751,1.779-10.832,5.652L336.736,468.2z"/>
					<polygon style="fill:#0B1011;" points="285.516,471.41 288.512,459.122 280.756,458.024 					"/>
					<g>
						<path style="fill:none;stroke:#0B1011;stroke-width:2;stroke-linecap:round;stroke-linejoin:round;stroke-miterlimit:10;" d="
							M302.707,364.22l8.781-15.805c0,0-10.976-12.22-13.39-12.951l-6.293,16.39L302.707,364.22z"/>
						<g>
							<path style="fill:#0B1011;" d="M302.304,363.629l0.219-17.491l0.038,0.178l-4.916-10.35
								c-0.119-0.249-0.012-0.548,0.237-0.666c0.249-0.118,0.548-0.012,0.666,0.237c0.001,0.002,0.003,0.006,0.004,0.007
								l4.742,10.431l0.003,0.006c0.025,0.056,0.036,0.116,0.035,0.173l-0.512,17.485c-0.004,0.142-0.123,0.254-0.265,0.25
								C302.413,363.885,302.302,363.769,302.304,363.629z"/>
						</g>
						<g>
							<path style="fill:#0B1011;" d="M292.204,351.11l10.547-5.323c0.089-0.045,0.186-0.052,0.275-0.028l0.01,0.003l8.003,2.172
								c0.267,0.072,0.424,0.347,0.352,0.614c-0.072,0.267-0.347,0.424-0.613,0.352c-0.003-0.001-0.009-0.002-0.012-0.003
								l-7.948-2.365l0.285-0.025l-10.672,5.067c-0.129,0.061-0.282,0.006-0.343-0.122
								C292.027,351.324,292.08,351.173,292.204,351.11z"/>
						</g>
					</g>
				</g>
				<g>
					<path style="fill:none;stroke:#0B1011;stroke-linecap:round;stroke-linejoin:round;stroke-miterlimit:10;" d="M319.427,241.585
						c0,0,9.329-1.098,14.598-3.073c0,0,2.963,21.622-9.768,29.744"/>
					<path style="fill:#FFFFFF;" d="M334.024,238.512c-5.268,1.976-14.598,3.073-14.598,3.073
						c6.476,6.256,4.829,26.671,4.829,26.671C336.988,260.134,334.024,238.512,334.024,238.512z"/>
					<path style="fill:none;stroke:#0B1011;stroke-linecap:round;stroke-linejoin:round;stroke-miterlimit:10;" d="M334.024,238.512
						c-5.268,1.976-14.598,3.073-14.598,3.073c6.476,6.256,4.829,26.671,4.829,26.671
						C336.988,260.134,334.024,238.512,334.024,238.512z"/>
					<g>
						<path style="fill:#0B1011;" d="M327.841,240.763c0.869,2.203,1.327,4.498,1.566,6.823c0.223,2.323,0.23,4.674-0.06,6.996
							c-0.315,2.312-0.754,4.627-1.546,6.832c-0.321,1.129-0.832,2.185-1.26,3.275c-0.468,1.072-1.039,2.096-1.555,3.147
							c-0.122,0.248-0.421,0.35-0.669,0.228c-0.248-0.122-0.35-0.421-0.228-0.669c0.001-0.002,0.002-0.003,0.002-0.005l0.025-0.048
							c0.519-1.015,1.095-2.004,1.57-3.041c0.434-1.054,0.954-2.077,1.284-3.172c0.811-2.138,1.277-4.387,1.625-6.641
							c0.324-2.263,0.357-4.563,0.179-6.842c-0.191-2.271-0.614-4.562-1.406-6.678l-0.008-0.02c-0.05-0.133,0.018-0.281,0.151-0.331
							C327.644,240.567,327.79,240.633,327.841,240.763z"/>
					</g>
				</g>
				<g>
					<path style="fill:none;stroke:#0B1011;stroke-linecap:round;stroke-linejoin:round;stroke-miterlimit:10;" d="M295.827,243.04
						c0,0-10.199,1.416-15.468-0.56c0,0-2.973,21.452,9.759,29.574"/>
					<path style="fill:#FFFFFF;" d="M280.639,242.62c5.268,1.976,15.468,0.56,15.468,0.56c-6.476,6.256-5.708,29.014-5.708,29.014
						C277.667,264.073,280.639,242.62,280.639,242.62z"/>
					<path style="fill:none;stroke:#0B1011;stroke-linecap:round;stroke-linejoin:round;stroke-miterlimit:10;" d="M280.359,242.48
						c5.268,1.976,15.468,0.56,15.468,0.56c-5.894,6.803-5.613,29.103-5.708,29.014C277.387,263.932,280.359,242.48,280.359,242.48z
						"/>
					<g>
						<path style="fill:#0B1011;" d="M287.176,243.769c-0.793,2.207-1.244,4.572-1.464,6.925c-0.215,2.359-0.215,4.743,0.085,7.091
							c0.298,2.344,0.764,4.677,1.561,6.904c0.334,1.135,0.84,2.206,1.293,3.296c0.471,1.082,1.077,2.102,1.608,3.155l0.026,0.051
							c0.124,0.246,0.025,0.547-0.221,0.671c-0.246,0.124-0.547,0.025-0.671-0.222c-0.001-0.001-0.003-0.005-0.003-0.007
							c-0.529-1.091-1.131-2.147-1.596-3.266c-0.448-1.127-0.946-2.233-1.27-3.404c-0.777-2.297-1.216-4.695-1.479-7.096
							c-0.265-2.406-0.224-4.838,0.036-7.238c0.269-2.402,0.756-4.771,1.621-7.057c0.05-0.133,0.199-0.2,0.332-0.15
							c0.131,0.05,0.198,0.196,0.151,0.327L287.176,243.769z"/>
					</g>
				</g>
			</g>
		</g>
	</g>
</g>
</svg>
